<?xml version="1.0" standalone="no"?>
<!DOCTYPE svg PUBLIC "-//W3C//DTD SVG 20010904//EN"
 "http://www.w3.org/TR/2001/REC-SVG-20010904/DTD/svg10.dtd">
<svg version="1.0" xmlns="http://www.w3.org/2000/svg"
 width="1024.000000pt" height="1024.000000pt" viewBox="0 0 1024.000000 1024.000000"
 preserveAspectRatio="xMidYMid meet">
<metadata>
Created by potrace 1.11, written by Peter Selinger 2001-2013
</metadata>
<g transform="translate(0.000000,1024.000000) scale(0.100000,-0.100000)"
fill="#000000" stroke="none">
<path d="M1055 10190 c-4 -6 -14 -10 -23 -8 -10 1 -23 -1 -29 -5 -8 -5 -13 -3
-13 5 0 9 -3 9 -10 -2 -8 -12 -10 -12 -10 -1 0 10 -3 11 -14 2 -10 -8 -16 -9
-21 -1 -10 15 -28 12 -22 -4 4 -10 1 -13 -9 -9 -7 3 -14 9 -14 13 0 5 -9 6
-20 3 -17 -5 -18 -8 -8 -22 12 -15 11 -15 -6 -1 -12 10 -41 15 -82 15 -52 0
-60 -2 -51 -14 10 -12 9 -12 -10 -3 -14 8 -24 9 -28 2 -4 -6 -10 -8 -15 -5 -4
3 -14 -3 -21 -13 -13 -15 -12 -16 4 -3 12 9 17 10 17 2 0 -7 5 -9 13 -5 6 4 9
3 4 -1 -10 -12 -47 -14 -53 -3 -3 4 -13 4 -22 -1 -9 -5 -20 -10 -24 -10 -21
-4 -38 -14 -38 -23 0 -6 8 -4 18 3 15 12 16 12 5 -2 -7 -9 -9 -20 -5 -25 4 -5
-3 0 -15 10 -22 18 -29 13 -24 -17 1 -5 -3 -6 -9 -2 -6 3 -8 10 -6 14 3 4 -1
8 -9 8 -8 0 -12 -4 -9 -9 5 -7 -9 -12 -28 -10 -3 1 -12 -6 -20 -15 -9 -12 -9
-15 0 -9 18 11 15 1 -5 -15 -10 -8 -14 -9 -10 -2 4 6 3 14 -3 18 -5 3 -10 -1
-10 -10 0 -9 -4 -14 -9 -10 -5 3 -13 0 -17 -6 -5 -8 -3 -9 7 -4 8 5 4 -3 -9
-17 -12 -13 -19 -28 -15 -32 4 -4 -4 -3 -19 3 -23 9 -26 8 -23 -9 3 -14 -1
-17 -13 -13 -15 6 -15 4 -4 -9 11 -14 10 -16 -6 -11 -11 2 -23 0 -26 -6 -5 -7
0 -9 11 -5 10 3 3 -3 -15 -13 -23 -14 -29 -22 -21 -30 8 -8 7 -13 -2 -18 -8
-5 -10 -4 -5 3 4 7 2 12 -3 12 -6 0 -11 -6 -11 -13 0 -7 -12 -21 -27 -31 -16
-9 -20 -15 -11 -12 10 3 20 0 24 -6 4 -6 3 -8 -4 -4 -6 3 -13 2 -17 -4 -4 -6
-12 -7 -18 -3 -8 5 -8 2 1 -9 10 -13 9 -18 -5 -29 -16 -13 -17 -12 -4 4 9 11
10 17 2 17 -11 0 -15 -13 -11 -39 1 -8 -4 -11 -12 -8 -9 3 -14 -2 -15 -14 -1
-12 3 -16 14 -12 12 5 11 1 -3 -15 -20 -24 -30 -29 -18 -10 5 7 3 8 -6 3 -10
-6 -10 -10 3 -20 14 -10 13 -13 -6 -25 -21 -12 -21 -12 -7 6 11 15 11 16 0 7
-20 -19 -21 -43 -2 -37 10 3 6 -2 -8 -10 -14 -8 -20 -15 -13 -16 6 0 11 -9 10
-19 0 -11 -5 -17 -9 -15 -5 3 -5 10 -2 16 4 6 2 8 -3 5 -18 -11 -33 -66 -21
-73 7 -4 6 -9 -3 -14 -10 -7 -10 -12 2 -26 8 -10 9 -15 3 -11 -7 4 -15 0 -18
-9 -5 -12 -2 -15 11 -10 14 6 15 4 6 -5 -6 -6 -9 -18 -6 -27 4 -9 2 -13 -4 -9
-5 3 -10 0 -10 -8 0 -8 5 -11 11 -8 6 4 5 -1 -3 -10 -11 -14 -11 -17 0 -17 11
0 11 -2 -1 -10 -12 -8 -12 -10 -1 -10 10 0 11 -3 2 -14 -9 -10 -9 -16 -1 -21
8 -5 6 -13 -7 -27 -11 -13 -13 -18 -4 -16 7 2 16 -3 18 -9 3 -7 0 -13 -7 -13
-7 0 -8 -5 -3 -12 10 -17 11 -58 1 -52 -4 3 -8 1 -8 -5 0 -5 6 -11 13 -14 9
-3 9 -7 -2 -20 -11 -14 -11 -17 0 -17 11 0 11 -2 -1 -10 -12 -8 -12 -10 -1
-10 10 0 11 -3 2 -14 -9 -10 -9 -16 -1 -21 8 -5 6 -13 -7 -27 -11 -13 -13 -18
-4 -16 7 2 16 -3 18 -9 3 -7 -1 -13 -7 -13 -9 0 -9 -5 1 -17 8 -9 9 -14 3 -10
-12 7 -14 -47 -1 -59 4 -4 2 -13 -4 -21 -9 -10 -8 -13 2 -13 11 0 11 -2 -1
-10 -12 -8 -12 -10 -1 -10 10 0 11 -3 2 -14 -9 -10 -9 -16 -1 -21 8 -5 6 -13
-7 -27 -11 -13 -13 -18 -4 -16 7 2 16 -3 18 -9 3 -7 0 -13 -7 -13 -7 0 -8 -5
-3 -12 10 -17 11 -58 1 -52 -4 3 -8 1 -8 -5 0 -5 6 -11 13 -14 9 -3 9 -7 -2
-20 -11 -14 -11 -17 0 -17 11 0 11 -2 -1 -10 -12 -8 -12 -10 -1 -10 10 0 11
-3 2 -14 -9 -10 -9 -16 -1 -21 8 -5 6 -13 -7 -27 -11 -13 -13 -18 -4 -16 7 2
16 -3 18 -9 3 -7 -1 -13 -7 -13 -9 0 -9 -5 1 -17 8 -9 9 -14 3 -10 -12 7 -14
-47 -1 -59 4 -4 2 -13 -4 -21 -9 -10 -8 -13 2 -13 11 0 11 -2 -1 -10 -12 -8
-12 -10 -1 -10 10 0 11 -3 2 -14 -9 -10 -9 -16 -1 -21 8 -5 6 -13 -7 -27 -11
-13 -13 -18 -4 -16 7 2 16 -3 18 -9 3 -7 0 -13 -7 -13 -7 0 -8 -5 -3 -12 10
-17 11 -58 1 -52 -4 3 -8 1 -8 -5 0 -5 6 -11 12 -14 10 -3 10 -7 -1 -20 -11
-14 -11 -17 0 -17 11 0 11 -2 -1 -10 -12 -8 -12 -10 -1 -10 10 0 11 -3 2 -14
-9 -10 -9 -16 -1 -21 8 -5 6 -13 -7 -27 -11 -13 -13 -18 -4 -16 7 2 16 -3 18
-9 3 -7 -1 -13 -7 -13 -9 0 -9 -5 1 -17 8 -9 9 -14 3 -10 -12 7 -14 -47 -1
-59 4 -4 2 -13 -4 -21 -9 -10 -8 -13 2 -13 11 0 11 -2 -1 -10 -12 -8 -12 -10
-1 -10 10 0 11 -3 2 -14 -9 -10 -9 -16 -1 -21 8 -5 6 -13 -7 -27 -11 -13 -13
-18 -4 -16 7 2 16 -3 18 -9 3 -7 0 -13 -7 -13 -7 0 -8 -5 -3 -12 10 -17 11
-58 1 -52 -4 3 -8 1 -8 -5 0 -5 6 -11 13 -14 9 -3 9 -7 -2 -20 -11 -14 -11
-17 0 -17 11 0 11 -2 -1 -10 -12 -8 -12 -10 -1 -10 10 0 11 -3 2 -14 -9 -10
-9 -16 -1 -21 8 -5 6 -13 -7 -27 -11 -13 -13 -18 -4 -16 7 2 16 -3 18 -9 3 -7
-1 -13 -7 -13 -9 0 -9 -5 1 -17 8 -9 9 -14 3 -10 -12 7 -14 -47 -1 -59 4 -4 2
-13 -4 -21 -9 -10 -8 -13 2 -13 11 0 11 -2 -1 -10 -12 -8 -12 -10 -1 -10 10 0
11 -3 2 -14 -9 -10 -9 -16 -1 -21 8 -5 6 -13 -7 -27 -11 -13 -13 -18 -4 -16 7
2 16 -3 18 -9 3 -7 0 -13 -7 -13 -7 0 -8 -5 -3 -12 10 -17 11 -58 1 -52 -4 3
-8 1 -8 -5 0 -5 6 -11 13 -14 9 -3 9 -7 -2 -20 -11 -14 -11 -17 0 -17 11 0 11
-2 -1 -10 -12 -8 -12 -10 -1 -10 10 0 11 -3 2 -14 -9 -10 -9 -16 -1 -21 8 -5
6 -13 -7 -27 -11 -13 -13 -18 -4 -16 7 2 16 -3 18 -9 3 -7 -1 -13 -7 -13 -9 0
-9 -5 1 -17 8 -9 9 -14 3 -10 -12 7 -14 -47 -1 -59 4 -4 2 -13 -4 -21 -9 -10
-8 -13 2 -13 11 0 11 -2 -1 -10 -12 -8 -12 -10 -1 -10 10 0 11 -3 2 -14 -9
-10 -9 -16 -1 -21 8 -5 6 -13 -7 -27 -11 -13 -13 -18 -4 -16 7 2 16 -3 18 -9
3 -7 0 -13 -7 -13 -7 0 -8 -5 -3 -12 10 -17 11 -58 1 -52 -4 3 -8 1 -8 -5 0
-5 6 -11 13 -14 9 -3 9 -7 -2 -20 -11 -14 -11 -17 0 -17 11 0 11 -2 -1 -10
-12 -8 -12 -10 -1 -10 10 0 11 -3 2 -14 -9 -10 -9 -16 -1 -21 8 -5 6 -13 -7
-27 -11 -13 -13 -18 -4 -16 7 2 16 -3 18 -9 3 -7 -1 -13 -7 -13 -9 0 -9 -5 1
-17 8 -9 9 -14 3 -10 -12 7 -14 -47 -1 -59 4 -4 2 -13 -4 -21 -9 -10 -8 -13 2
-13 11 0 11 -2 -1 -10 -12 -8 -12 -10 -1 -10 10 0 11 -3 2 -14 -9 -10 -9 -16
-1 -21 8 -5 6 -13 -7 -27 -11 -13 -13 -18 -4 -16 7 2 16 -3 18 -9 3 -7 0 -13
-7 -13 -7 0 -8 -5 -3 -12 10 -17 11 -58 1 -52 -4 3 -8 1 -8 -5 0 -5 6 -11 13
-14 9 -3 9 -7 -2 -20 -11 -14 -11 -17 0 -17 11 0 11 -2 -1 -10 -12 -8 -12 -10
-1 -10 10 0 11 -3 2 -14 -9 -10 -9 -16 -1 -21 8 -5 6 -13 -7 -27 -11 -13 -13
-18 -4 -16 7 2 16 -3 18 -9 3 -7 -1 -13 -7 -13 -9 0 -9 -5 1 -17 8 -9 9 -14 3
-10 -12 7 -14 -47 -1 -59 4 -4 2 -13 -4 -21 -9 -10 -8 -13 2 -13 11 0 11 -2
-1 -10 -12 -8 -12 -10 -1 -10 10 0 11 -3 2 -14 -9 -10 -9 -16 -1 -21 8 -5 6
-13 -7 -27 -11 -13 -13 -18 -4 -16 7 2 16 -3 18 -9 3 -7 0 -13 -7 -13 -7 0 -8
-5 -3 -12 10 -17 11 -58 1 -52 -4 3 -8 1 -8 -5 0 -5 6 -11 13 -14 9 -3 9 -7
-2 -20 -11 -14 -11 -17 0 -17 11 0 11 -2 -1 -10 -12 -8 -12 -10 -1 -10 10 0
11 -3 2 -14 -9 -10 -9 -16 -1 -21 8 -5 6 -13 -7 -27 -11 -13 -13 -18 -4 -16 7
2 16 -3 18 -9 3 -7 -1 -13 -7 -13 -9 0 -9 -5 1 -17 8 -9 9 -14 3 -10 -12 7
-14 -47 -1 -59 4 -4 2 -13 -4 -21 -9 -10 -8 -13 2 -13 11 0 11 -2 -1 -10 -12
-8 -12 -10 -1 -10 10 0 11 -3 2 -14 -9 -10 -9 -16 -1 -21 8 -5 6 -13 -7 -27
-11 -13 -13 -18 -4 -16 7 2 16 -3 18 -9 3 -7 0 -13 -7 -13 -7 0 -8 -5 -3 -12
10 -17 11 -58 1 -52 -4 3 -8 1 -8 -5 0 -5 6 -11 13 -14 9 -3 9 -7 -2 -20 -11
-14 -11 -17 0 -17 11 0 11 -2 -1 -10 -12 -8 -12 -10 -1 -10 10 0 11 -3 2 -14
-9 -10 -9 -16 -1 -21 8 -5 6 -13 -7 -27 -11 -13 -13 -18 -4 -16 7 2 16 -3 18
-9 3 -7 -1 -13 -7 -13 -9 0 -9 -5 1 -17 8 -9 9 -14 3 -10 -12 7 -14 -47 -1
-59 4 -4 2 -13 -4 -21 -9 -10 -8 -13 2 -13 11 0 11 -2 -1 -10 -12 -8 -12 -10
-1 -10 10 0 11 -3 2 -14 -9 -10 -9 -16 -1 -21 8 -5 6 -13 -7 -27 -11 -13 -13
-18 -4 -16 7 2 16 -3 18 -9 3 -7 0 -13 -7 -13 -7 0 -8 -5 -3 -12 10 -17 11
-58 1 -52 -4 3 -8 1 -8 -5 0 -5 6 -11 13 -14 9 -3 9 -7 -2 -20 -11 -14 -11
-17 0 -17 11 0 11 -2 -1 -10 -12 -8 -12 -10 -1 -10 10 0 11 -3 2 -14 -9 -10
-9 -16 -1 -21 8 -5 6 -13 -7 -27 -11 -13 -13 -18 -4 -16 7 2 16 -3 18 -9 3 -7
-1 -13 -7 -13 -9 0 -9 -5 1 -17 8 -9 9 -14 3 -10 -12 7 -14 -47 -1 -59 4 -4 2
-13 -4 -21 -9 -10 -8 -13 2 -13 11 0 11 -2 -1 -10 -12 -8 -12 -10 -1 -10 10 0
11 -3 2 -14 -9 -10 -9 -16 -1 -21 8 -5 6 -13 -7 -27 -11 -13 -13 -18 -4 -16 7
2 16 -3 18 -9 3 -7 0 -13 -7 -13 -7 0 -8 -5 -3 -12 10 -17 11 -58 1 -52 -4 3
-8 1 -8 -5 0 -5 6 -11 12 -14 10 -3 10 -7 -1 -20 -11 -14 -11 -17 0 -17 11 0
11 -2 -1 -10 -12 -8 -12 -10 -1 -10 10 0 11 -3 2 -14 -9 -10 -9 -16 -1 -21 8
-5 6 -13 -7 -27 -11 -13 -13 -18 -4 -16 7 2 16 -3 18 -9 3 -7 -1 -13 -7 -13
-9 0 -9 -5 1 -17 8 -9 9 -14 3 -10 -12 7 -14 -47 -1 -59 4 -4 2 -13 -4 -21 -9
-10 -8 -13 2 -13 11 0 11 -2 -1 -10 -12 -8 -12 -10 -1 -10 10 0 11 -3 2 -14
-9 -10 -9 -16 -1 -21 8 -5 6 -13 -7 -27 -11 -13 -13 -18 -4 -16 7 2 16 -3 18
-9 3 -7 0 -13 -7 -13 -7 0 -8 -5 -3 -12 10 -17 11 -58 1 -52 -4 3 -8 1 -8 -5
0 -5 6 -11 13 -14 9 -3 9 -7 -2 -20 -11 -14 -11 -17 0 -17 11 0 11 -2 -1 -10
-12 -8 -12 -10 -1 -10 10 0 11 -3 2 -14 -9 -10 -9 -16 -1 -21 8 -5 6 -13 -7
-27 -11 -13 -13 -18 -4 -16 7 2 16 -3 18 -9 3 -7 -1 -13 -7 -13 -9 0 -9 -5 1
-17 8 -9 9 -14 3 -10 -12 7 -14 -47 -1 -59 4 -4 2 -13 -4 -21 -9 -10 -8 -13 2
-13 11 0 11 -2 -1 -10 -12 -8 -12 -10 -1 -10 10 0 11 -3 2 -14 -9 -10 -9 -16
-1 -21 8 -5 6 -13 -7 -27 -11 -13 -13 -18 -4 -16 7 2 16 -3 18 -9 3 -7 0 -13
-7 -13 -7 0 -8 -5 -3 -12 10 -17 11 -58 1 -52 -4 3 -8 1 -8 -5 0 -5 6 -11 13
-14 9 -3 9 -7 -2 -20 -11 -14 -11 -17 0 -17 11 0 11 -2 -1 -10 -12 -8 -12 -10
-1 -10 10 0 11 -3 2 -14 -9 -10 -9 -16 -1 -21 8 -5 6 -13 -7 -27 -11 -13 -13
-18 -4 -16 7 2 16 -3 18 -9 3 -7 -1 -13 -7 -13 -9 0 -9 -5 1 -17 8 -9 9 -14 3
-10 -12 7 -14 -47 -1 -59 4 -4 2 -13 -4 -21 -9 -10 -8 -13 2 -13 11 0 11 -2
-1 -10 -12 -8 -12 -10 -1 -10 10 0 11 -3 2 -14 -9 -10 -9 -16 -1 -21 8 -5 6
-13 -7 -27 -11 -13 -13 -18 -4 -16 7 2 16 -3 18 -9 3 -7 0 -13 -7 -13 -7 0 -8
-5 -3 -12 10 -17 11 -58 1 -52 -4 3 -8 1 -8 -5 0 -5 6 -11 13 -14 9 -3 9 -7
-2 -20 -11 -14 -11 -17 0 -17 11 0 11 -2 -1 -10 -12 -8 -12 -10 -1 -10 10 0
11 -3 2 -14 -9 -10 -9 -16 -1 -21 8 -5 6 -13 -7 -27 -11 -13 -13 -18 -4 -16 7
2 16 -3 18 -9 3 -7 -1 -13 -7 -13 -9 0 -9 -5 1 -17 8 -9 9 -14 3 -10 -12 7
-14 -47 -1 -59 4 -4 2 -13 -4 -21 -9 -10 -8 -13 2 -13 11 0 11 -2 -1 -10 -12
-8 -12 -10 -1 -10 10 0 11 -3 2 -14 -9 -10 -9 -16 -1 -21 8 -5 6 -13 -7 -27
-11 -13 -13 -18 -4 -16 7 2 16 -3 18 -9 3 -7 0 -13 -7 -13 -7 0 -8 -5 -3 -12
10 -17 11 -58 1 -52 -4 3 -8 1 -8 -5 0 -5 6 -11 13 -14 9 -3 9 -7 -2 -20 -11
-14 -11 -17 0 -17 11 0 11 -2 -1 -10 -12 -8 -12 -10 -1 -10 10 0 11 -3 2 -14
-9 -10 -9 -16 -1 -21 8 -5 6 -13 -7 -27 -11 -13 -13 -18 -4 -16 7 2 16 -3 18
-9 3 -7 -1 -13 -7 -13 -9 0 -9 -5 1 -17 8 -9 9 -14 3 -10 -12 7 -14 -47 -1
-59 4 -4 2 -13 -4 -21 -9 -10 -8 -13 2 -13 11 0 11 -2 -1 -10 -12 -8 -12 -10
-1 -10 10 0 11 -3 2 -14 -9 -10 -9 -16 -1 -21 8 -5 6 -13 -7 -27 -11 -13 -13
-18 -4 -16 7 2 16 -3 18 -9 3 -7 0 -13 -7 -13 -7 0 -8 -5 -3 -12 10 -17 11
-58 1 -52 -4 3 -8 1 -8 -5 0 -5 6 -11 13 -14 9 -3 9 -7 -2 -20 -11 -14 -11
-17 0 -17 11 0 11 -2 -1 -10 -12 -8 -12 -10 -1 -10 10 0 11 -3 2 -14 -9 -10
-9 -16 -1 -21 8 -5 6 -13 -7 -27 -11 -13 -13 -18 -4 -16 7 2 16 -3 18 -9 3 -7
-1 -13 -7 -13 -9 0 -9 -5 1 -17 8 -9 9 -14 3 -10 -12 7 -14 -47 -1 -59 4 -4 2
-13 -4 -21 -9 -10 -8 -13 2 -13 11 0 11 -2 -1 -10 -12 -8 -12 -10 -1 -10 10 0
11 -3 2 -14 -9 -10 -9 -16 -1 -21 8 -5 6 -13 -7 -27 -11 -13 -13 -18 -4 -16 7
2 16 -3 18 -9 3 -7 0 -13 -7 -13 -7 0 -8 -5 -3 -12 10 -17 11 -58 1 -52 -4 3
-8 1 -8 -5 0 -5 6 -11 13 -14 9 -3 9 -7 -2 -20 -11 -14 -11 -17 0 -17 11 0 11
-2 -1 -10 -12 -8 -12 -10 -1 -10 10 0 11 -3 2 -14 -9 -10 -9 -16 -1 -21 8 -5
6 -13 -7 -27 -11 -13 -13 -18 -4 -16 7 2 16 -3 18 -9 3 -7 -1 -13 -7 -13 -9 0
-9 -5 1 -17 8 -9 9 -14 3 -10 -12 7 -14 -47 -1 -59 4 -4 2 -13 -4 -21 -9 -10
-8 -13 2 -13 11 0 11 -2 -1 -10 -12 -8 -12 -10 -1 -10 10 0 11 -3 2 -14 -9
-10 -9 -16 -1 -21 8 -5 6 -13 -7 -27 -11 -13 -13 -18 -4 -16 7 2 16 -3 18 -9
3 -7 0 -13 -7 -13 -7 0 -8 -5 -3 -12 10 -17 11 -58 1 -52 -4 3 -8 1 -8 -5 0
-5 6 -11 12 -14 10 -3 10 -7 -1 -20 -11 -14 -11 -17 0 -17 11 0 11 -2 -1 -10
-12 -8 -12 -10 -1 -10 10 0 11 -3 2 -14 -8 -10 -9 -16 -1 -21 5 -3 10 -12 10
-18 0 -7 -4 -6 -10 3 -8 13 -10 13 -10 -2 0 -9 8 -22 18 -27 9 -6 12 -11 5
-11 -13 0 -11 -99 3 -134 6 -15 4 -17 -6 -11 -9 6 -11 4 -5 -4 5 -9 10 -10 18
-2 6 6 16 11 22 11 5 0 4 -4 -3 -8 -18 -12 -23 -49 -6 -49 10 0 11 4 3 14 -7
8 -8 13 -1 13 17 0 23 -30 7 -36 -21 -8 -8 -24 13 -18 15 5 15 4 2 -6 -11 -9
-12 -13 -2 -17 6 -2 12 -9 12 -14 0 -6 -5 -7 -12 -3 -7 4 -8 3 -4 -4 4 -6 14
-8 24 -5 15 6 16 5 2 -12 -12 -15 -12 -17 -1 -10 11 6 13 3 8 -15 -4 -16 1
-29 19 -47 13 -13 24 -30 24 -38 0 -8 5 -17 10 -20 6 -4 7 -12 3 -18 -4 -7 1
-5 11 2 16 13 17 13 14 -5 -2 -12 2 -18 11 -16 9 2 11 -3 7 -14 -6 -15 -4 -15
10 -3 16 13 16 12 6 -8 -11 -20 -10 -21 9 -18 18 4 19 2 7 -12 -8 -10 -8 -14
-1 -10 7 4 14 -1 18 -13 5 -17 9 -19 21 -9 9 7 14 8 13 3 -4 -22 2 -34 17 -34
8 0 12 -5 9 -10 -3 -6 1 -10 9 -10 9 0 16 -4 16 -8 0 -5 14 -19 31 -31 18 -13
29 -19 25 -12 -4 6 -2 11 3 11 6 0 12 -4 12 -10 1 -5 2 -16 3 -22 1 -7 11 -12
24 -10 13 2 22 -2 22 -10 0 -9 3 -9 10 2 5 8 10 10 10 3 0 -6 16 -20 35 -32
19 -11 35 -16 35 -11 0 6 5 10 11 10 5 0 7 -4 4 -10 -5 -9 2 -12 25 -12 3 -1
19 2 35 6 29 6 30 6 6 -7 -20 -12 -21 -15 -7 -20 10 -4 15 -3 11 3 -3 6 -2 10
4 10 5 0 13 -5 16 -11 4 -6 13 -8 21 -5 8 3 14 2 14 -2 0 -4 15 -8 34 -8 19 0
32 4 30 8 -3 4 2 5 10 2 10 -4 16 -1 16 7 0 7 3 9 6 6 4 -4 2 -13 -4 -20 -9
-10 -8 -14 3 -14 8 0 17 7 20 15 5 13 9 12 28 -5 22 -21 67 -29 47 -9 -13 13
-13 26 1 26 5 0 7 -4 4 -10 -3 -5 1 -10 10 -10 9 0 14 -4 11 -8 -6 -11 40 -9
50 1 4 4 18 7 31 7 17 0 22 4 17 13 -4 6 5 1 21 -13 l27 -25 -6 25 c-6 19 -5
21 3 10 6 -8 15 -16 21 -16 5 -1 11 -3 13 -4 6 -7 46 -6 41 1 -2 4 -11 6 -19
2 -8 -3 -15 0 -15 7 0 7 -7 10 -17 5 -15 -5 -16 -4 -5 6 9 10 15 10 24 1 9 -9
14 -7 25 6 12 16 13 16 7 0 -4 -13 -1 -18 11 -18 9 0 14 -4 11 -8 -7 -12 41
-9 51 2 5 5 2 6 -6 1 -8 -5 -12 -4 -8 1 6 11 64 10 75 -1 4 -5 2 -5 -5 -1 -6
3 -14 3 -17 -2 -2 -4 6 -8 19 -8 16 0 21 4 17 15 -3 9 -1 12 6 7 7 -4 12 -2
12 3 0 6 9 3 20 -7 23 -19 69 -27 51 -9 -14 14 -14 27 0 27 5 0 7 -4 4 -10 -3
-5 1 -10 10 -10 9 0 14 -4 11 -8 -3 -5 7 -8 22 -7 19 1 26 6 24 18 -2 9 2 17
8 17 6 0 8 -5 5 -10 -4 -6 8 -10 30 -10 20 0 34 -4 31 -8 -3 -5 1 -9 9 -9 18
0 19 9 3 27 -7 8 -2 6 11 -5 20 -17 23 -17 18 -3 -6 16 15 20 29 5 4 -4 13 1
21 11 12 16 13 16 7 -1 -4 -12 -1 -17 11 -17 9 0 14 -4 11 -8 -7 -12 41 -9 51
2 5 5 1 6 -7 1 -8 -5 -12 -5 -8 0 11 11 69 12 75 1 4 -5 1 -6 -5 -2 -6 3 -13
3 -16 -2 -2 -4 6 -8 19 -8 16 0 21 4 17 15 -3 9 -1 12 6 7 7 -4 12 -2 12 3 0
6 9 3 20 -7 23 -19 69 -27 51 -9 -14 14 -14 27 0 27 5 0 7 -4 4 -10 -3 -5 1
-10 10 -10 9 0 14 -4 11 -8 -3 -5 7 -8 22 -7 19 1 26 6 24 18 -2 9 2 17 8 17
6 0 8 -4 5 -10 -4 -6 8 -10 30 -10 20 0 34 -4 31 -8 -3 -5 1 -9 9 -9 18 0 19
9 3 27 -7 8 -2 6 11 -5 20 -17 23 -17 18 -3 -6 16 15 20 29 5 4 -4 13 1 21 11
12 16 13 16 7 -1 -4 -12 -1 -17 11 -17 9 0 14 -4 11 -8 -7 -12 41 -9 51 2 5 5
2 6 -6 1 -8 -5 -12 -4 -8 1 6 11 64 10 75 -1 4 -5 2 -5 -5 -1 -6 3 -14 3 -17
-2 -2 -4 6 -8 19 -8 16 0 21 4 17 15 -3 9 -1 12 6 7 7 -4 12 -2 12 3 0 6 9 3
20 -7 23 -19 69 -27 51 -9 -14 14 -14 27 0 27 5 0 7 -4 4 -10 -3 -5 1 -10 10
-10 9 0 14 -4 11 -8 -3 -5 7 -8 22 -7 19 1 26 6 24 18 -2 9 2 17 8 17 6 0 9
-4 6 -9 -3 -5 8 -11 26 -13 28 -5 29 -4 13 9 -11 7 -14 13 -8 13 6 0 17 -7 24
-16 12 -14 14 -14 20 3 7 17 8 17 8 -1 1 -12 6 -16 16 -13 8 4 17 2 20 -3 4
-6 11 -10 18 -10 6 0 3 6 -8 13 -14 11 -15 16 -5 22 9 6 11 4 5 -5 -6 -10 0
-12 23 -8 24 3 29 1 24 -11 -4 -10 5 -7 29 9 32 22 33 23 15 2 -11 -12 -14
-22 -8 -22 6 0 14 4 17 10 3 5 11 10 16 10 6 0 8 -4 5 -9 -4 -5 2 -8 11 -6 10
2 20 4 23 4 3 1 -2 6 -10 12 -12 9 -11 9 5 4 11 -4 26 -8 33 -8 6 0 12 -3 12
-7 0 -3 20 -6 44 -6 24 1 42 4 39 8 -2 5 1 8 6 8 6 0 11 -4 11 -10 0 -5 5 -10
11 -10 5 0 8 4 5 9 -3 5 1 11 9 14 10 4 12 1 8 -11 -6 -14 -4 -15 9 -4 13 10
17 10 21 0 4 -10 6 -10 6 0 1 6 8 12 16 12 8 0 15 5 15 10 0 6 4 10 8 10 5 0
9 -7 9 -15 0 -8 -3 -12 -7 -10 -4 2 -7 -2 -7 -10 0 -10 4 -12 12 -5 7 5 15 6
19 2 5 -4 6 1 4 10 -1 9 2 16 7 15 6 -1 9 -6 7 -12 -2 -5 7 -1 19 10 12 11 19
14 15 7 -5 -8 0 -12 13 -13 40 -3 46 -5 43 -19 -3 -11 0 -11 12 0 9 7 16 9 16
4 0 -4 5 -3 12 4 13 13 52 17 44 4 -2 -4 6 -8 19 -8 13 0 21 4 19 8 -3 5 -9 6
-14 3 -17 -10 -19 13 -3 26 12 10 15 10 9 1 -10 -17 22 -28 45 -14 13 8 20 8
25 1 4 -8 9 -7 15 2 6 10 9 10 9 2 0 -17 -23 -29 -28 -15 -4 12 -22 7 -22 -7
0 -10 96 -8 106 2 5 4 1 5 -9 1 -9 -3 -17 -2 -17 4 0 13 24 10 43 -6 12 -10
17 -10 23 -1 4 8 3 9 -4 5 -18 -11 -14 0 5 15 11 10 14 10 9 1 -4 -7 -2 -12 8
-12 8 0 16 3 19 8 2 4 3 2 1 -4 -1 -6 4 -11 12 -11 7 0 11 4 8 8 -2 4 0 11 6
14 6 4 9 1 8 -7 -2 -7 5 -13 14 -13 9 0 20 -4 24 -8 4 -4 12 -7 18 -7 6 0 5 4
-2 9 -10 6 -7 10 12 13 15 3 29 1 33 -5 4 -6 1 -7 -7 -2 -8 5 -11 4 -7 -2 8
-12 53 -11 64 1 5 5 1 6 -7 1 -8 -5 -12 -5 -8 0 11 11 69 12 75 1 4 -5 1 -6
-5 -2 -6 3 -13 3 -16 -2 -2 -4 6 -8 19 -8 16 0 21 4 17 15 -3 9 -1 12 6 7 7
-4 12 -2 12 3 0 6 9 3 20 -7 23 -19 69 -27 51 -9 -14 14 -14 27 0 27 5 0 7 -4
4 -10 -3 -5 1 -10 10 -10 9 0 14 -4 11 -8 -3 -5 7 -8 22 -7 19 1 26 6 24 18
-2 9 2 17 8 17 6 0 8 -5 5 -10 -4 -6 8 -10 30 -10 20 0 34 -4 31 -8 -3 -5 1
-9 9 -9 18 0 19 9 3 27 -7 8 -2 6 11 -5 19 -16 23 -17 19 -4 -4 10 -1 16 8 16
8 0 13 -6 10 -13 -3 -7 3 -18 12 -26 16 -12 16 -11 2 6 -14 18 -13 19 12 14
18 -3 25 -1 21 6 -4 6 1 5 10 -3 9 -7 14 -18 10 -25 -5 -8 -3 -8 8 1 8 6 17
12 21 12 4 1 14 4 21 7 22 8 72 -2 69 -15 -4 -20 7 -12 22 17 14 25 15 26 16
5 0 -13 5 -23 11 -23 5 0 7 6 3 13 -5 7 0 6 11 -3 17 -14 18 -13 12 2 -3 10
-1 20 5 24 7 5 8 2 3 -6 -6 -10 -4 -12 10 -6 14 5 16 4 6 -7 -9 -11 -6 -14 14
-13 13 1 28 6 32 10 4 5 3 6 -4 2 -6 -3 -14 -2 -17 3 -8 13 19 8 37 -7 12 -10
17 -10 23 -1 4 8 3 9 -4 5 -18 -11 -14 0 5 15 11 10 14 10 9 1 -5 -8 1 -12 19
-12 14 0 24 -4 21 -8 -3 -5 1 -9 10 -9 10 0 12 7 8 21 -6 21 -6 21 10 1 l16
-20 -6 20 c-6 18 -5 18 10 -2 14 -19 62 -30 50 -11 -3 4 -11 5 -19 1 -8 -3
-15 -1 -15 5 0 6 8 9 18 7 9 -2 23 -4 30 -4 7 -1 11 -5 8 -9 -6 -10 42 -8 51
3 5 4 2 5 -6 0 -8 -5 -12 -4 -8 1 3 5 24 8 46 6 23 -2 39 -7 36 -11 -2 -4 2
-8 10 -8 18 0 19 9 3 25 -7 7 -8 12 -4 12 5 0 14 -8 21 -17 13 -17 80 -28 69
-12 -2 4 -11 6 -19 2 -15 -5 -22 12 -7 20 9 5 54 -18 47 -24 -2 -3 7 -4 20 -4
14 1 28 5 32 10 5 4 2 5 -4 1 -9 -5 -11 -2 -7 8 3 9 10 16 16 16 5 0 6 -4 3
-10 -3 -5 3 -10 15 -10 12 0 19 4 15 9 -3 5 0 13 6 17 7 4 9 3 5 -4 -3 -6 -2
-13 4 -17 5 -3 10 0 10 7 0 10 2 10 9 -1 5 -8 18 -12 29 -9 13 4 19 2 16 -6
-3 -8 6 -12 25 -12 17 0 28 3 25 7 -2 5 -11 6 -19 2 -8 -3 -15 -1 -15 5 0 6 8
9 18 7 9 -2 23 -4 30 -4 7 -1 11 -5 8 -9 -6 -10 42 -8 51 3 5 4 3 5 -3 2 -6
-3 -11 0 -11 7 0 11 4 12 19 3 14 -9 23 -9 38 0 12 8 21 9 25 3 3 -6 15 -10
26 -10 13 0 18 4 13 12 -4 7 -3 8 4 4 6 -4 9 -13 6 -20 -7 -19 34 -15 46 4 8
12 10 12 10 1 0 -8 3 -12 6 -8 3 3 17 2 30 -3 14 -6 26 -6 29 0 4 6 11 10 16
10 6 0 8 -4 5 -9 -3 -5 5 -8 18 -7 13 0 22 4 19 8 -2 5 1 8 6 8 6 0 11 -4 11
-9 0 -5 7 -11 15 -15 13 -5 14 -2 4 17 -9 17 -9 20 1 10 7 -6 19 -9 28 -6 8 4
13 2 9 -3 -3 -6 7 -10 23 -9 15 0 26 3 23 7 -2 5 1 8 6 8 6 0 11 -4 11 -8 0
-10 36 -9 46 1 11 10 26 8 19 -2 -3 -6 7 -9 22 -7 16 1 36 -1 45 -6 10 -5 20
-4 24 4 4 7 3 8 -4 4 -7 -4 -12 -2 -12 4 0 6 -5 8 -12 4 -6 -4 -8 -3 -5 3 4 6
18 8 32 6 13 -3 23 -8 21 -12 -3 -4 8 -7 24 -6 15 0 26 3 23 7 -2 5 1 8 6 8 6
0 11 -4 11 -8 0 -10 36 -9 46 1 11 10 26 9 20 -2 -3 -5 5 -8 18 -7 13 0 22 4
19 8 -2 5 1 8 6 8 6 0 11 -4 11 -9 0 -5 7 -11 15 -15 13 -5 14 -2 4 17 -9 17
-9 20 1 10 7 -6 19 -9 28 -6 8 4 13 2 9 -3 -3 -6 7 -10 23 -9 15 0 26 3 23 7
-2 5 1 8 6 8 6 0 11 -4 11 -8 0 -10 36 -9 46 1 11 10 26 8 19 -2 -3 -6 7 -9
22 -7 16 1 36 -1 45 -6 10 -5 20 -4 24 4 4 7 3 8 -4 4 -7 -4 -12 -2 -12 4 0 6
-5 8 -12 4 -6 -4 -8 -3 -5 3 4 6 18 8 32 6 13 -3 23 -8 21 -12 -3 -4 8 -7 24
-6 15 0 26 3 23 7 -2 5 1 8 6 8 6 0 11 -4 11 -8 0 -10 36 -9 46 1 11 10 26 9
20 -2 -3 -5 5 -8 18 -7 13 0 22 4 19 9 -2 4 1 7 6 7 6 0 11 -4 11 -9 0 -5 7
-11 15 -15 13 -5 14 -2 4 17 -9 17 -9 20 1 10 7 -6 19 -9 28 -6 8 4 13 2 9 -3
-3 -6 7 -10 23 -9 15 0 26 3 23 7 -2 5 1 8 6 8 6 0 11 -4 11 -8 0 -10 36 -9
46 1 11 10 26 8 19 -2 -3 -6 7 -9 22 -7 16 1 36 -1 45 -6 10 -5 20 -4 24 4 4
7 3 8 -4 4 -7 -4 -12 -2 -12 4 0 6 -5 8 -12 4 -6 -4 -8 -3 -5 3 4 6 18 8 32 6
13 -3 23 -8 21 -12 -3 -4 8 -7 24 -6 15 0 26 3 23 7 -2 5 1 8 6 8 6 0 11 -4
11 -8 0 -10 36 -9 46 1 11 10 26 9 20 -2 -3 -5 5 -8 18 -7 13 0 22 4 19 9 -2
4 1 7 6 7 6 0 11 -4 11 -9 0 -5 7 -11 15 -15 13 -5 14 -2 4 17 -9 17 -9 20 1
10 7 -6 19 -9 28 -6 8 4 13 2 9 -3 -3 -6 7 -10 23 -9 15 0 26 3 23 7 -2 5 1 8
6 8 6 0 11 -4 11 -8 0 -10 36 -9 46 1 11 10 26 8 19 -2 -3 -6 7 -9 22 -7 16 1
36 -1 45 -6 10 -5 20 -4 24 4 4 7 3 8 -4 4 -7 -4 -12 -2 -12 4 0 6 -5 8 -12 4
-6 -4 -8 -3 -5 3 4 6 18 8 32 6 13 -3 23 -8 21 -12 -3 -4 8 -7 24 -6 15 0 26
3 23 7 -2 5 1 8 6 8 6 0 11 -4 11 -8 0 -10 36 -9 46 1 11 10 26 9 20 -2 -3 -5
5 -8 18 -7 13 0 22 4 19 9 -2 4 1 7 6 7 6 0 11 -4 11 -9 0 -5 7 -11 15 -15 13
-5 14 -2 4 17 -9 17 -9 20 1 10 7 -6 19 -9 28 -6 8 4 13 2 9 -3 -3 -6 7 -10
23 -9 15 0 26 3 23 7 -2 5 1 8 6 8 6 0 11 -4 11 -8 0 -10 36 -9 46 1 11 10 26
8 19 -2 -3 -6 7 -9 22 -7 16 1 36 -1 45 -6 10 -5 20 -4 24 4 4 7 3 8 -4 4 -7
-4 -12 -2 -12 4 0 6 -5 8 -12 4 -6 -4 -8 -3 -5 3 4 6 18 8 32 6 13 -3 23 -8
21 -12 -3 -4 8 -7 24 -6 15 0 26 3 23 7 -2 5 1 8 6 8 6 0 11 -4 11 -8 0 -10
36 -9 46 1 11 10 26 9 20 -2 -3 -5 5 -8 18 -7 13 0 22 4 19 9 -2 4 1 7 6 7 6
0 11 -4 11 -9 0 -5 7 -11 15 -15 13 -5 14 -2 4 17 -9 17 -9 20 1 10 7 -6 19
-9 28 -6 8 4 13 2 9 -3 -3 -6 7 -10 23 -9 15 0 26 3 23 7 -2 5 1 8 6 8 6 0 11
-4 11 -8 0 -10 36 -9 46 1 11 10 26 8 19 -2 -3 -6 7 -9 22 -7 16 1 36 -1 45
-6 10 -5 20 -4 24 4 4 7 3 8 -4 4 -7 -4 -12 -2 -12 4 0 6 -5 8 -12 4 -6 -4 -8
-3 -5 3 4 6 18 8 32 6 13 -3 23 -8 21 -12 -3 -4 8 -7 24 -6 15 0 26 3 23 7 -2
5 1 8 6 8 6 0 11 -4 11 -8 0 -10 36 -9 46 1 11 10 26 9 20 -2 -3 -5 5 -8 18
-7 13 0 22 4 19 8 -2 5 1 8 6 8 6 0 11 -4 11 -9 0 -5 7 -11 15 -15 13 -5 14
-2 4 17 -9 17 -9 20 1 10 7 -6 19 -9 28 -6 8 4 13 2 9 -3 -3 -6 7 -10 23 -9
15 0 26 3 23 7 -2 5 1 8 6 8 6 0 11 -4 11 -8 0 -10 36 -9 46 1 11 10 26 8 19
-2 -3 -6 7 -9 22 -7 16 1 36 -1 45 -6 10 -5 20 -4 24 4 4 7 3 8 -4 4 -7 -4
-12 -2 -12 4 0 6 -5 8 -12 4 -6 -4 -8 -3 -5 3 4 6 18 8 32 6 13 -3 23 -8 21
-12 -3 -4 8 -7 24 -6 15 0 26 3 23 7 -2 5 1 8 6 8 6 0 11 -4 11 -8 0 -10 36
-9 46 1 11 10 26 9 20 -2 -3 -5 5 -8 18 -7 13 0 22 4 19 9 -2 4 1 7 6 7 6 0
11 -4 11 -9 0 -5 7 -11 15 -15 13 -5 14 -2 4 17 -9 17 -9 20 1 10 7 -6 19 -9
28 -6 8 4 13 2 9 -3 -3 -6 7 -10 23 -9 15 0 26 3 23 7 -2 5 1 8 6 8 6 0 11 -4
11 -8 0 -10 36 -9 46 1 11 10 26 8 19 -2 -3 -6 7 -9 22 -7 16 1 36 -1 45 -6
10 -5 20 -4 24 4 4 7 3 8 -4 4 -7 -4 -12 -2 -12 4 0 6 -5 8 -12 4 -6 -4 -8 -3
-5 3 4 6 18 8 32 6 13 -3 23 -8 21 -12 -3 -4 8 -7 24 -6 15 0 26 3 23 7 -2 5
1 8 6 8 6 0 11 -4 11 -8 0 -10 36 -9 46 1 11 10 26 9 20 -2 -3 -5 5 -8 18 -7
13 0 22 4 19 9 -2 4 1 7 6 7 6 0 11 -4 11 -9 0 -5 7 -11 15 -15 13 -5 14 -2 4
17 -9 17 -9 20 1 10 7 -6 19 -9 28 -6 8 4 13 2 9 -3 -3 -6 7 -10 23 -9 15 0
26 3 23 7 -2 5 1 8 6 8 6 0 11 -4 11 -10 0 -5 5 -10 11 -10 5 0 8 4 5 8 -2 4
5 14 17 22 21 12 21 12 7 -5 -14 -17 -13 -18 2 -12 9 3 19 1 22 -6 3 -9 5 -8
5 1 1 7 6 10 13 6 7 -4 8 -3 4 5 -4 6 -12 8 -18 5 -7 -4 -8 -2 -4 5 4 6 12 9
17 5 5 -3 18 0 27 8 15 12 16 11 3 -4 -15 -21 -2 -24 18 -6 8 8 11 8 8 2 -4
-7 3 -11 18 -11 14 0 22 3 20 7 -3 4 2 11 11 14 8 3 13 2 10 -2 -2 -4 4 -8 14
-8 12 0 17 6 15 18 -2 10 1 20 6 24 5 3 8 0 7 -7 -2 -6 3 -14 11 -17 9 -3 11
0 6 8 -6 9 -4 11 5 5 7 -4 16 -2 21 6 7 11 9 11 9 1 0 -7 5 -10 10 -7 6 4 8
11 5 16 -3 5 2 6 11 2 10 -4 15 -2 11 4 -3 5 1 10 9 10 9 0 13 -6 10 -14 -4
-8 -1 -11 5 -7 6 3 8 15 6 26 -4 16 -3 17 9 7 10 -8 14 -8 14 0 0 6 5 11 11
11 5 0 7 -6 3 -12 -6 -10 -5 -10 8 -1 8 7 19 9 24 5 5 -4 0 4 -11 17 -11 14
-14 21 -6 16 8 -4 17 -2 23 6 8 11 9 10 4 -3 -3 -10 -1 -18 4 -18 6 0 10 5 10
11 0 5 5 7 10 4 6 -3 10 1 10 10 0 10 5 13 12 9 8 -5 9 -2 4 11 -5 15 -4 16 8
6 11 -9 16 -9 22 0 4 8 3 9 -4 5 -7 -4 -12 -5 -12 -1 0 3 11 10 25 15 14 5 25
17 25 25 0 9 4 14 9 11 4 -3 17 2 27 10 17 14 17 15 2 10 -30 -9 -20 2 16 19
18 9 39 28 47 43 8 15 21 34 30 42 9 8 14 21 11 29 -3 10 0 11 9 5 12 -7 12
-5 1 9 -12 14 -11 16 8 12 19 -4 20 -2 8 12 -11 15 -11 16 5 10 15 -6 16 -4 7
13 -9 17 -8 19 7 13 15 -6 16 -4 5 9 -9 11 -10 18 -2 23 6 3 8 10 5 14 -2 5 7
13 20 19 29 13 36 45 8 35 -15 -6 -16 -5 -3 9 8 9 17 15 20 15 3 -1 6 2 7 7 1
5 7 13 15 18 10 8 10 9 -2 5 -8 -2 -14 -11 -12 -18 2 -8 0 -10 -4 -6 -10 10
-14 37 -6 36 20 -3 32 2 27 11 -4 6 -12 7 -18 3 -7 -4 -6 0 2 10 15 19 26 23
15 5 -4 -6 -3 -8 2 -5 12 7 11 67 -1 86 -6 10 -4 12 5 6 10 -6 12 -4 7 7 -3 9
-3 19 0 22 4 3 8 17 9 31 2 17 -1 23 -9 18 -9 -5 -9 -3 -1 8 11 15 12 28 3 44
-8 13 -5 47 5 63 4 6 3 12 -1 12 -11 0 -10 56 0 66 12 12 8 26 -5 18 -9 -5 -9
-2 1 9 10 13 10 17 1 17 -9 0 -9 4 1 17 12 15 12 16 -1 8 -13 -8 -13 -7 -1 8
7 9 9 17 4 17 -10 0 -11 50 0 67 4 6 3 14 -2 17 -11 7 -9 45 3 64 4 7 3 12 -1
12 -11 0 -10 56 0 66 12 12 8 26 -5 18 -9 -5 -9 -2 1 9 10 13 10 17 1 17 -9 0
-9 4 1 17 12 15 12 16 -1 8 -13 -8 -13 -7 -1 8 7 9 9 17 4 17 -10 0 -11 50 0
67 4 6 3 14 -2 17 -11 7 -9 45 3 64 4 7 3 12 -2 12 -7 0 -9 39 -2 48 8 8 4 30
-8 52 -13 23 -13 23 1 7 14 -17 15 -17 13 7 0 13 -5 22 -11 19 -5 -3 -4 0 3 8
16 17 16 32 0 23 -9 -5 -9 -2 1 9 10 13 10 17 1 17 -9 0 -9 4 1 17 12 15 12
16 -1 8 -12 -6 -13 -5 -2 6 16 17 16 32 0 23 -9 -5 -9 -2 1 9 10 13 10 17 1
17 -9 0 -9 4 1 17 12 15 12 16 -1 8 -12 -6 -13 -5 -2 6 6 7 12 17 12 22 0 4
-6 5 -12 1 -9 -5 -9 -2 1 9 10 13 10 17 1 17 -9 0 -9 4 1 17 12 15 12 16 -1 8
-12 -6 -13 -5 -2 6 13 14 17 33 4 25 -10 -6 -9 50 1 60 12 12 8 26 -5 18 -9
-5 -9 -2 1 9 10 13 10 17 1 17 -9 0 -9 4 1 17 12 15 12 16 -1 8 -13 -8 -13 -7
-1 8 10 13 10 17 1 17 -10 0 -10 3 0 15 7 8 8 15 3 15 -5 0 -8 21 -7 48 1 26
3 47 4 47 1 0 3 10 6 23 3 17 1 21 -8 16 -9 -5 -9 -2 1 9 10 13 10 17 1 17 -9
0 -9 4 1 17 12 15 12 16 -1 8 -13 -8 -13 -7 -1 8 7 9 9 17 4 17 -10 0 -11 50
0 67 4 6 3 14 -2 17 -11 7 -9 45 3 64 4 7 3 12 -1 12 -11 0 -10 56 0 66 12 12
8 26 -5 18 -9 -5 -9 -2 1 9 10 13 10 17 1 17 -9 0 -9 4 1 17 12 15 12 16 -1 8
-13 -8 -13 -7 -1 8 7 9 9 17 4 17 -10 0 -11 50 0 67 4 6 3 14 -2 17 -11 7 -9
45 3 64 4 7 3 12 -1 12 -11 0 -10 56 0 66 12 12 8 26 -5 18 -9 -5 -9 -2 1 9
10 13 10 17 1 17 -9 0 -9 4 1 17 12 15 12 16 -1 8 -13 -8 -13 -7 -1 8 7 9 9
17 4 17 -10 0 -11 50 0 67 4 6 3 14 -2 17 -11 7 -9 45 3 64 4 7 3 12 -1 12
-11 0 -10 56 0 66 10 10 9 26 -1 20 -10 -6 -9 45 1 62 5 6 4 12 0 12 -11 0
-10 50 0 67 4 6 3 14 -2 17 -11 7 -9 45 3 64 4 7 3 12 -1 12 -11 0 -10 56 0
66 10 10 9 26 -1 20 -10 -6 -9 45 1 62 5 6 4 12 0 12 -11 0 -10 50 0 67 4 6 3
14 -2 17 -11 7 -9 45 3 64 4 7 3 12 -1 12 -11 0 -10 56 0 66 10 10 9 26 -1 20
-10 -6 -9 45 1 62 5 6 4 12 0 12 -11 0 -10 50 0 67 4 6 3 14 -2 17 -11 7 -9
45 3 64 4 7 3 12 -1 12 -11 0 -10 56 0 66 10 10 9 26 -1 20 -10 -6 -9 45 1 62
5 6 4 12 0 12 -11 0 -10 50 0 67 4 6 3 14 -2 17 -11 7 -9 45 3 64 4 7 3 12 -1
12 -11 0 -10 56 0 66 10 10 9 26 -1 20 -10 -6 -9 45 1 62 5 6 4 12 0 12 -11 0
-10 50 0 67 4 6 3 14 -2 17 -11 7 -9 45 3 64 4 7 3 12 -1 12 -11 0 -10 51 2
69 5 10 4 16 -3 19 -7 2 -12 8 -12 13 0 6 4 8 9 5 9 -6 6 42 -3 51 -3 4 -1 12
5 20 9 10 8 13 -1 13 -9 0 -9 4 1 17 12 15 12 16 -1 8 -13 -7 -13 -6 -2 7 8
10 9 19 3 22 -10 7 -9 52 2 63 12 11 7 24 -5 17 -9 -5 -9 -2 1 9 10 13 10 17
1 17 -9 0 -9 4 1 17 12 15 12 16 -1 8 -13 -8 -13 -7 -1 8 7 9 9 17 4 17 -10 0
-11 56 0 66 12 12 8 26 -5 18 -9 -5 -9 -2 1 9 10 13 10 17 1 17 -9 0 -9 4 1
17 12 15 12 16 -1 8 -13 -7 -13 -6 -2 7 8 10 9 19 3 22 -10 7 -9 52 2 63 12
11 7 24 -5 17 -9 -5 -9 -2 1 9 10 13 10 17 1 17 -9 0 -9 4 1 17 12 15 12 16
-1 8 -13 -7 -13 -6 -2 7 8 10 9 19 3 22 -10 7 -9 52 2 63 12 11 7 24 -5 17 -9
-5 -9 -2 1 9 10 13 10 17 1 17 -9 0 -9 4 1 17 12 15 12 16 -1 8 -13 -7 -13 -6
-2 7 8 10 9 19 3 22 -10 7 -9 52 2 63 12 11 7 24 -5 17 -9 -5 -9 -2 1 9 10 13
10 17 1 17 -9 0 -9 4 1 17 12 15 12 16 -1 8 -13 -7 -13 -6 -2 7 8 10 9 19 3
22 -10 7 -9 52 2 63 12 11 7 24 -5 17 -9 -5 -9 -2 1 9 10 13 10 17 1 17 -9 0
-9 4 1 17 12 15 12 16 -1 8 -13 -7 -13 -6 -2 7 8 10 9 19 3 22 -10 7 -9 52 2
63 12 11 7 24 -5 17 -9 -5 -9 -2 1 9 10 13 10 17 1 17 -9 0 -9 4 1 17 12 15
12 16 -1 8 -13 -7 -13 -6 -2 7 8 10 9 19 3 22 -10 7 -9 52 2 63 12 11 7 24 -5
17 -9 -5 -9 -2 1 9 10 13 10 17 1 17 -9 0 -9 4 1 17 12 15 12 16 -1 8 -13 -7
-13 -6 -2 7 8 10 9 19 3 22 -10 7 -9 52 2 63 12 11 7 24 -5 17 -9 -5 -9 -2 1
9 10 13 10 17 1 17 -9 0 -9 4 1 17 12 15 12 16 -1 8 -13 -7 -13 -6 -2 7 8 10
9 19 3 22 -10 7 -9 52 2 63 12 11 7 24 -5 17 -9 -5 -9 -2 1 9 10 13 10 17 1
17 -9 0 -9 4 1 17 12 15 12 16 -1 8 -13 -7 -13 -6 -2 7 8 10 9 19 3 22 -10 7
-9 52 2 63 12 11 7 24 -5 17 -9 -5 -9 -2 1 9 10 13 10 17 1 17 -9 0 -9 4 1 17
12 15 12 16 -1 8 -13 -7 -13 -6 -2 7 8 10 9 19 3 22 -10 7 -9 52 2 63 12 11 7
24 -5 17 -9 -5 -9 -2 1 9 10 13 10 17 1 17 -9 0 -9 4 1 17 12 15 12 16 -1 8
-13 -7 -13 -6 -2 7 8 10 9 19 3 22 -10 7 -9 52 2 63 12 11 7 24 -5 17 -9 -5
-9 -2 1 9 10 13 10 17 1 17 -9 0 -9 4 1 17 12 15 12 16 -1 8 -13 -7 -13 -6 -2
7 8 10 9 19 3 22 -10 7 -9 52 2 63 12 11 7 24 -5 17 -9 -5 -9 -2 1 9 10 13 10
17 1 17 -9 0 -9 4 1 17 12 15 12 16 -1 8 -13 -7 -13 -6 -2 7 8 10 9 19 3 22
-10 7 -9 52 2 63 12 11 7 24 -5 17 -9 -5 -9 -2 1 9 10 13 10 17 1 17 -9 0 -9
4 1 17 12 15 12 16 -1 8 -13 -7 -13 -6 -2 7 8 10 9 19 3 22 -10 7 -9 52 2 63
12 11 7 24 -5 17 -9 -5 -9 -2 1 9 10 13 10 17 1 17 -9 0 -9 4 1 17 12 15 12
16 -1 8 -13 -7 -13 -6 -2 7 8 10 9 19 3 22 -10 7 -9 52 2 63 12 11 7 24 -5 17
-9 -5 -9 -2 1 9 10 13 10 17 1 17 -9 0 -9 4 1 17 12 15 12 16 -1 8 -13 -7 -13
-6 -2 7 8 10 9 19 3 22 -10 7 -9 52 2 63 12 11 7 24 -5 17 -9 -5 -9 -2 1 9 10
13 10 17 1 17 -9 0 -9 4 1 17 12 15 12 16 -1 8 -13 -7 -13 -6 -2 7 8 10 9 19
3 22 -10 7 -9 52 2 63 12 11 7 24 -5 17 -9 -5 -9 -2 1 9 10 13 10 17 1 17 -9
0 -9 4 1 17 12 15 12 16 -1 8 -13 -7 -13 -6 -2 7 8 10 9 19 3 22 -10 7 -9 52
2 63 12 11 7 24 -5 17 -9 -5 -9 -2 1 9 10 13 10 17 1 17 -9 0 -9 4 1 17 12 15
12 16 -1 8 -13 -7 -13 -6 -2 7 8 10 9 19 3 22 -10 7 -9 52 2 63 12 11 7 24 -5
17 -9 -5 -9 -2 1 9 10 13 10 17 1 17 -9 0 -9 4 1 17 12 15 12 16 -1 8 -13 -7
-13 -6 -2 7 8 10 9 19 3 22 -10 7 -9 52 2 63 12 11 7 24 -5 17 -9 -5 -9 -2 1
9 10 13 10 17 1 17 -9 0 -9 4 1 17 12 15 12 16 -1 8 -13 -7 -13 -6 -2 7 8 10
9 19 3 22 -10 7 -9 52 2 63 12 11 7 24 -5 17 -9 -5 -9 -2 1 9 10 13 10 17 1
17 -9 0 -9 4 1 17 12 15 12 16 -1 8 -13 -7 -13 -6 -2 7 8 10 9 19 3 22 -10 7
-9 52 2 63 12 11 7 24 -5 17 -9 -5 -9 -2 1 9 10 13 10 17 1 17 -9 0 -9 4 1 17
12 15 12 16 -1 8 -13 -7 -13 -6 -2 7 8 10 9 19 3 22 -10 7 -9 52 2 63 12 11 7
24 -5 17 -9 -5 -9 -2 1 9 10 13 10 17 1 17 -9 0 -9 4 1 17 12 15 12 16 -1 8
-13 -7 -13 -6 -2 7 8 10 9 19 3 22 -10 7 -9 52 2 63 12 11 7 24 -5 17 -9 -5
-9 -2 1 9 10 13 10 17 1 17 -9 0 -9 4 1 17 12 15 12 16 -1 8 -13 -7 -13 -6 -2
7 8 10 9 19 3 22 -10 7 -9 52 2 63 12 11 7 24 -5 17 -9 -5 -9 -2 1 9 10 13 10
17 1 17 -9 0 -9 4 1 17 12 15 12 16 -1 8 -13 -8 -13 -7 -1 8 7 9 9 17 4 17 -5
0 -9 9 -9 19 0 11 5 17 11 13 5 -3 4 2 -4 11 -11 14 -11 17 0 17 9 1 8 4 -4
11 -9 6 -14 15 -11 21 4 6 8 24 8 39 1 26 0 27 -19 11 -19 -17 -19 -17 -2 10
15 24 15 27 0 40 -10 8 -14 8 -10 1 4 -6 3 -14 -2 -17 -10 -7 -9 19 1 30 11
10 -3 34 -16 27 -6 -3 -6 -1 2 8 17 18 15 26 -7 32 -10 2 -24 15 -31 28 -11
24 -11 24 10 -1 l21 -25 -16 32 c-8 18 -16 36 -18 40 -1 5 -6 7 -11 5 -5 -2
-6 5 -2 14 6 15 4 15 -11 3 -9 -8 -14 -9 -10 -2 4 6 3 15 -3 18 -8 5 -7 11 1
21 10 12 9 13 -6 8 -14 -6 -16 -4 -10 6 6 9 4 12 -6 8 -10 -4 -15 1 -16 15 -1
11 -7 23 -13 27 -7 4 -12 11 -13 16 -1 5 -5 8 -9 7 -4 -2 -10 6 -13 17 -3 11
-16 28 -29 37 -13 10 -26 25 -30 33 -3 9 -4 5 -2 -7 2 -13 0 -23 -4 -23 -5 0
-10 10 -12 23 -2 12 -9 21 -17 19 -9 -2 -11 3 -7 13 5 13 1 15 -16 9 -16 -5
-20 -3 -15 9 4 12 2 14 -10 10 -11 -4 -14 -2 -9 5 4 7 1 12 -9 12 -10 0 -13
-5 -9 -12 4 -7 -2 -5 -14 5 -11 11 -25 16 -31 12 -7 -3 -8 0 -5 9 9 24 -4 38
-26 26 -16 -9 -18 -8 -13 6 4 11 3 15 -5 10 -6 -3 -14 -2 -17 4 -5 8 -11 7
-21 -1 -11 -9 -14 -8 -14 5 0 10 -4 15 -9 12 -5 -3 -14 0 -20 8 -14 17 -33 15
-56 -4 -14 -11 -16 -11 -13 1 2 8 -2 13 -8 12 -7 -1 -10 7 -8 20 2 12 2 16 -2
9 -3 -7 -15 -17 -27 -24 -21 -10 -21 -10 -5 8 16 19 15 19 -60 20 -44 0 -80
-4 -84 -10 -5 -7 -8 -4 -8 6 0 10 -7 15 -17 13 -10 -1 -17 -8 -15 -14 2 -9 -4
-8 -20 1 -28 15 -41 16 -49 5 -10 -14 -31 2 -22 16 4 7 0 6 -10 -2 -9 -7 -23
-11 -31 -8 -7 3 -19 0 -25 -6 -8 -8 -11 -7 -11 3 0 13 -2 13 -10 0 -8 -12 -10
-12 -10 -1 0 11 -3 11 -17 0 -13 -11 -17 -11 -20 -1 -3 6 -10 9 -16 5 -18 -12
-38 -12 -31 -1 7 12 -28 6 -37 -6 -10 -13 -31 3 -22 17 4 7 0 6 -10 -2 -9 -7
-23 -11 -31 -8 -7 3 -19 0 -25 -6 -8 -8 -11 -7 -11 3 0 13 -2 13 -10 0 -8 -12
-10 -12 -10 -1 0 9 -4 10 -12 3 -8 -5 -22 -6 -33 -1 -28 11 -37 11 -30 0 3 -5
1 -13 -5 -16 -6 -4 -9 -1 -8 6 3 15 -24 19 -33 6 -10 -14 -31 2 -22 16 4 7 0
6 -10 -2 -9 -7 -23 -11 -31 -8 -7 3 -19 0 -25 -6 -8 -8 -11 -7 -11 3 0 13 -2
13 -10 0 -8 -12 -10 -12 -10 -1 0 11 -3 11 -17 0 -13 -11 -17 -11 -20 -1 -3 6
-9 12 -14 12 -6 0 -8 -4 -5 -8 6 -10 -35 -9 -51 1 -6 4 -14 1 -16 -5 -4 -10
-8 -10 -15 1 -7 10 -14 11 -31 2 -16 -9 -21 -9 -21 0 0 8 -4 8 -15 -1 -12 -10
-15 -10 -15 1 0 11 -2 11 -10 -1 -7 -11 -10 -11 -10 -2 0 8 -5 10 -12 6 -16
-10 -48 -13 -48 -4 0 10 -54 6 -62 -5 -5 -6 -11 -6 -19 2 -8 8 -18 9 -31 2
-13 -7 -18 -6 -18 2 0 8 -4 8 -15 -1 -12 -10 -15 -10 -15 1 0 11 -2 11 -10 -1
-5 -8 -10 -10 -10 -5 0 6 -15 11 -33 12 -21 2 -27 0 -18 -6 10 -7 7 -9 -12 -8
-14 1 -23 6 -20 10 7 11 -30 4 -39 -7 -4 -6 -12 -5 -21 2 -7 7 -17 9 -20 6 -9
-9 -98 -11 -103 -2 -6 9 -36 -2 -46 -16 -5 -7 -8 -3 -8 9 0 17 -2 17 -10 5 -7
-11 -10 -11 -10 -2 0 8 -5 10 -12 5 -19 -11 -38 -12 -38 -2 0 6 -7 6 -17 2
-10 -5 -29 -8 -43 -7 -81 6 -97 6 -112 -1 -12 -4 -18 -3 -18 5 0 10 -3 10 -14
1 -12 -10 -21 -8 -42 6 -16 10 -25 13 -21 6 4 -6 3 -14 -3 -18 -5 -3 -10 -1
-10 6 0 8 -4 8 -15 -1 -12 -10 -15 -10 -15 1 0 11 -2 11 -10 -1 -6 -9 -10 -11
-10 -3 0 7 -7 10 -15 7 -8 -4 -12 -11 -8 -17 3 -6 1 -7 -6 -3 -6 4 -9 12 -6
17 7 10 -8 12 -19 2 -10 -11 -37 -12 -30 -2 3 5 -5 7 -18 5 -13 -3 -29 -5 -36
-5 -7 -1 -10 -6 -6 -13 4 -7 3 -8 -5 -4 -6 4 -9 11 -6 16 3 4 -2 11 -11 14 -8
3 -12 2 -9 -3 3 -5 1 -12 -5 -16 -5 -3 -10 -1 -10 6 0 8 -4 8 -15 -1 -12 -10
-15 -10 -15 1 0 11 -2 11 -10 -1 -8 -12 -10 -12 -10 -1 0 11 -3 11 -17 0 -13
-11 -17 -11 -21 -1 -3 10 -7 10 -18 1 -9 -7 -19 -8 -26 -2 -7 5 -19 8 -25 7
-7 -1 -20 -2 -29 -3 -9 0 -12 -6 -8 -13 4 -7 3 -8 -5 -4 -6 4 -9 11 -6 16 3 4
-2 11 -11 14 -8 3 -12 2 -9 -3 3 -5 1 -12 -5 -16 -5 -3 -10 -1 -10 6 0 8 -4 8
-15 -1 -12 -10 -15 -10 -15 1 0 11 -2 11 -10 -1 -9 -13 -10 -13 -10 0 0 13 -1
13 -10 0 -9 -14 -15 -7 -11 14 1 5 -5 3 -14 -4 -18 -15 -55 -21 -55 -9 0 4 -8
6 -17 4 -10 -2 -24 -4 -31 -4 -7 -1 -10 -6 -6 -13 4 -7 3 -8 -5 -4 -6 4 -9 11
-6 16 3 4 -2 11 -11 14 -8 3 -12 2 -9 -3 3 -5 1 -12 -5 -16 -5 -3 -10 -1 -10
6 0 8 -4 8 -15 -1 -12 -10 -15 -10 -15 1 0 11 -2 11 -10 -1 -8 -12 -10 -12
-10 -1 0 11 -3 11 -17 0 -13 -11 -17 -11 -21 -1 -3 10 -7 10 -18 1 -9 -7 -19
-8 -26 -2 -7 5 -19 8 -25 7 -7 -1 -20 -2 -29 -3 -9 0 -12 -6 -8 -13 4 -7 3 -8
-5 -4 -6 4 -9 11 -6 16 3 4 -2 11 -11 14 -8 3 -12 2 -9 -3 3 -5 1 -12 -5 -16
-5 -3 -10 -1 -10 6 0 8 -4 8 -15 -1 -12 -10 -15 -10 -15 1 0 11 -2 11 -10 -1
-8 -12 -10 -12 -10 -1 0 11 -3 11 -17 0 -13 -11 -17 -11 -21 -1 -3 10 -7 10
-19 1 -11 -9 -16 -10 -22 -1 -3 6 -15 9 -26 7 -11 -2 -26 -4 -33 -4 -7 -1 -10
-6 -6 -13 4 -7 3 -8 -5 -4 -6 4 -9 11 -6 16 3 4 -2 11 -11 14 -8 3 -12 2 -9
-3 3 -5 1 -12 -5 -16 -5 -3 -10 -1 -10 6 0 8 -4 8 -15 -1 -12 -10 -15 -10 -15
1 0 11 -2 11 -10 -1 -8 -12 -10 -12 -10 -1 0 11 -3 11 -17 0 -13 -11 -17 -11
-21 -1 -3 10 -7 10 -18 1 -9 -7 -19 -8 -26 -2 -7 5 -19 8 -25 7 -7 -1 -20 -2
-29 -3 -9 0 -12 -6 -8 -13 4 -7 3 -8 -5 -4 -6 4 -9 11 -6 16 3 4 -2 11 -11 14
-8 3 -12 2 -9 -3 3 -5 1 -12 -5 -16 -5 -3 -10 -1 -10 6 0 8 -4 8 -15 -1 -12
-10 -15 -10 -15 1 0 11 -2 11 -10 -1 -9 -13 -10 -13 -10 0 0 13 -1 13 -10 0
-9 -14 -15 -7 -11 14 1 5 -5 3 -14 -4 -18 -15 -55 -21 -55 -9 0 4 -8 6 -17 4
-10 -2 -24 -4 -31 -4 -7 -1 -10 -6 -6 -13 4 -7 3 -8 -5 -4 -6 4 -9 11 -6 16 3
4 -2 11 -11 14 -8 3 -12 2 -9 -3 3 -5 1 -12 -5 -16 -5 -3 -10 -1 -10 6 0 8 -4
8 -15 -1 -12 -10 -15 -10 -15 1 0 11 -2 11 -10 -1 -9 -13 -10 -13 -10 0 0 12
-2 13 -9 1 -7 -11 -9 -11 -13 0 -3 8 -9 9 -18 4 -18 -11 -50 -14 -50 -5 0 4
-21 5 -47 3 -101 -8 -191 -8 -187 -1 3 4 -5 6 -18 4 -13 -3 -29 -5 -36 -5 -7
-1 -10 -6 -6 -13 4 -7 3 -8 -5 -4 -6 4 -9 11 -6 16 3 4 -2 11 -11 14 -8 3 -12
2 -9 -3 3 -5 1 -12 -5 -16 -5 -3 -10 -1 -10 6 0 8 -4 8 -15 -1 -12 -10 -15
-10 -15 1 0 11 -2 11 -10 -1 -8 -12 -10 -12 -10 -1 0 11 -3 11 -17 0 -13 -11
-17 -11 -21 -1 -3 10 -7 10 -18 1 -9 -7 -19 -8 -26 -2 -7 5 -19 8 -25 7 -7 -1
-20 -2 -29 -3 -9 0 -12 -6 -8 -13 4 -7 3 -8 -5 -4 -6 4 -9 11 -6 16 3 4 -2 10
-10 14 -8 3 -14 0 -12 -5 1 -7 -20 -12 -50 -13 -29 -1 -53 2 -53 7 0 5 -7 4
-16 -4 -13 -10 -17 -10 -24 0 -6 11 -9 11 -13 0 -5 -12 -6 -12 -6 0 -1 11 -4
11 -16 1 -12 -10 -19 -10 -27 -2 -8 8 -17 8 -30 1 -13 -7 -18 -6 -18 2 0 8 -4
8 -15 -1 -12 -10 -15 -10 -15 1 0 11 -2 11 -10 -1 -8 -12 -10 -12 -10 -1 0 11
-3 11 -17 0 -13 -11 -17 -11 -21 -1 -3 10 -7 10 -18 1 -9 -7 -19 -8 -26 -2 -7
5 -19 8 -25 7 -7 -1 -20 -2 -29 -3 -9 0 -12 -6 -8 -13 4 -7 3 -8 -5 -4 -6 4
-9 11 -6 16 3 4 -2 11 -11 14 -8 3 -12 2 -9 -3 3 -5 1 -12 -5 -16 -5 -3 -10
-1 -10 6 0 8 -4 8 -15 -1 -12 -10 -15 -10 -15 1 0 11 -2 11 -10 -1 -8 -12 -10
-12 -10 -1 0 11 -3 11 -17 0 -13 -11 -17 -11 -21 -1 -3 10 -7 10 -19 1 -11 -9
-16 -10 -22 -1 -3 6 -15 9 -26 7 -11 -2 -26 -4 -33 -4 -7 -1 -10 -6 -6 -13 4
-7 3 -8 -5 -4 -6 4 -9 11 -6 16 3 4 -2 11 -11 14 -8 3 -12 2 -9 -3 3 -5 1 -12
-5 -16 -5 -3 -10 -1 -10 6 0 8 -4 8 -15 -1 -12 -10 -15 -10 -15 1 0 11 -2 11
-10 -1 -5 -8 -10 -10 -10 -4 0 6 -7 11 -15 11 -10 0 -14 -6 -10 -16 4 -13 3
-13 -8 1 -11 14 -16 15 -26 5 -8 -8 -14 -8 -19 -1 -4 6 -33 8 -77 5 -38 -3
-86 -3 -105 0 -19 3 -44 1 -55 -4 -13 -7 -20 -6 -23 2 -3 9 -7 9 -18 1 -7 -7
-19 -8 -26 -4 -7 5 -24 7 -38 6 -14 -2 -37 -4 -53 -6 -15 -2 -30 1 -33 6 -3 4
-11 5 -17 1 -19 -11 -57 -12 -57 -1 0 6 -6 6 -15 -2 -11 -9 -18 -10 -28 -1 -8
6 -16 9 -19 6 -4 -5 -91 -7 -128 -4 -8 1 -23 -2 -32 -6 -12 -4 -18 -3 -18 5 0
10 -3 10 -15 0 -8 -6 -20 -8 -27 -4 -7 5 -24 7 -38 6 -14 -2 -37 -4 -53 -6
-15 -2 -30 1 -33 6 -3 4 -11 5 -17 1 -19 -11 -57 -12 -57 -1 0 6 -6 5 -15 -2
-11 -9 -19 -10 -26 -3 -6 6 -26 7 -47 4 -20 -4 -53 -4 -72 -1 -19 4 -44 2 -55
-3 -13 -7 -20 -6 -23 2 -3 9 -7 9 -18 1 -7 -7 -19 -8 -26 -4 -7 5 -24 7 -38 6
-14 -2 -37 -4 -53 -6 -15 -2 -30 1 -33 6 -3 4 -11 5 -17 1 -19 -11 -57 -12
-57 -1 0 6 -6 6 -15 -2 -11 -9 -18 -10 -28 -1 -8 6 -16 9 -19 6 -4 -5 -91 -7
-128 -4 -8 1 -23 -2 -32 -6 -12 -4 -18 -3 -18 5 0 10 -3 10 -15 0 -11 -9 -19
-9 -28 -2 -7 6 -18 7 -25 3 -6 -4 -27 -6 -44 -5 -18 1 -36 -3 -40 -9 -5 -8 -8
-6 -8 6 0 10 -5 15 -10 12 -19 -12 -70 -14 -70 -3 0 7 -5 6 -15 -2 -12 -10
-18 -10 -29 -1 -10 8 -16 9 -21 1 -4 -7 -12 -7 -26 0 -14 8 -19 7 -19 -2 0 -9
-3 -9 -10 2 -9 13 -10 13 -10 0 0 -12 -2 -12 -9 -1 -6 9 -11 10 -15 2 -4 -6
-13 -8 -19 -4 -19 12 -49 14 -42 4 3 -5 1 -13 -5 -16 -6 -4 -9 -1 -8 6 3 15
-24 19 -33 6 -10 -14 -31 2 -22 16 4 7 0 6 -10 -2 -9 -7 -23 -11 -31 -8 -7 3
-19 0 -25 -6 -8 -8 -11 -7 -11 4 0 12 -2 12 -10 -1 -8 -12 -10 -12 -10 -1 0
11 -3 11 -17 0 -13 -11 -17 -11 -20 -1 -3 6 -10 9 -16 5 -18 -12 -38 -12 -31
-1 7 12 -28 6 -37 -6 -10 -13 -31 3 -22 17 4 7 0 6 -10 -2 -9 -7 -23 -11 -31
-8 -7 3 -19 0 -25 -6 -8 -8 -11 -7 -11 4 0 12 -2 12 -10 -1 -8 -12 -10 -12
-10 -1 0 9 -4 10 -12 3 -8 -5 -22 -6 -33 -1 -28 11 -37 11 -30 0 3 -5 1 -13
-5 -16 -6 -4 -9 -1 -8 6 3 15 -24 19 -33 6 -10 -14 -31 2 -22 16 4 7 0 6 -10
-2 -9 -7 -23 -11 -31 -8 -7 3 -19 0 -25 -6 -8 -8 -11 -7 -11 4 0 12 -2 12 -10
-1 -8 -12 -10 -12 -10 -1 0 11 -3 11 -17 0 -13 -11 -17 -11 -20 -1 -3 6 -10 9
-16 5 -18 -12 -38 -12 -31 -1 7 12 -28 6 -37 -6 -10 -13 -31 3 -22 17 4 7 0 6
-10 -2 -9 -7 -23 -11 -31 -8 -7 3 -19 0 -25 -6 -8 -8 -11 -7 -11 4 0 12 -2 12
-10 -1 -8 -12 -10 -12 -10 -1 0 9 -4 10 -12 3 -8 -5 -22 -6 -33 -1 -28 11 -37
11 -30 0 3 -5 1 -13 -5 -16 -6 -4 -9 -1 -8 6 3 15 -24 19 -33 6 -9 -12 -31 1
-24 14 4 5 4 9 1 9 -3 0 -8 -5 -11 -10z m-290 -39 c-3 -6 -11 -11 -16 -11 -5
0 -4 6 3 14 14 16 24 13 13 -3z m8705 9 c0 -5 -2 -10 -4 -10 -3 0 -8 5 -11 10
-3 6 -1 10 4 10 6 0 11 -4 11 -10z m146 -39 c1 -6 0 -7 -3 -1 -2 5 -9 8 -13 5
-5 -3 -11 -1 -14 4 -4 5 2 8 11 7 9 -2 18 -8 19 -15z m-8989 -6 c0 -8 -4 -12
-9 -9 -5 3 -6 10 -3 15 9 13 12 11 12 -6z m9058 -14 c3 -5 2 -12 -3 -15 -5 -3
-9 1 -9 9 0 17 3 19 12 6z m-9194 -59 c-7 -2 -18 1 -23 6 -8 8 -4 9 13 5 13
-4 18 -8 10 -11z m9459 -122 c0 -5 -5 -10 -11 -10 -5 0 -7 5 -4 10 3 6 8 10
11 10 2 0 4 -4 4 -10z m-9857 -385 c4 -8 3 -16 -1 -19 -4 -3 -9 4 -9 15 -2 23
3 25 10 4z m-6 -8807 c2 -17 0 -19 -7 -8 -5 8 -6 18 -4 22 8 12 10 10 11 -14z
m96 -231 c4 3 7 4 7 0 0 -18 -21 -14 -30 5 -10 21 -10 21 3 6 8 -10 17 -15 20
-11z m9841 -77 c-6 -6 -10 -3 -10 10 0 13 4 16 10 10 7 -7 7 -13 0 -20z m-58
-78 c-17 -16 -18 -16 -5 5 7 12 15 20 18 17 3 -2 -3 -12 -13 -22z m-9386 -210
c0 -1 -9 2 -20 8 -11 6 -20 15 -20 20 0 6 9 2 20 -7 11 -10 20 -19 20 -21z
m8950 -16 c0 -2 -8 -10 -17 -17 -16 -13 -17 -12 -4 4 13 16 21 21 21 13z
m-8765 -16 c-3 -5 -12 -10 -18 -10 -7 0 -6 4 3 10 19 12 23 12 15 0z m225 -22
c0 7 5 12 12 12 17 0 -7 -23 -28 -26 -9 -1 -13 0 -10 3 3 4 0 13 -6 22 -8 10
-4 9 10 -3 12 -11 22 -14 22 -8z m458 -9 c-3 -8 -7 -3 -11 10 -4 17 -3 21 5
13 5 -5 8 -16 6 -23z m480 0 c-3 -8 -7 -3 -11 10 -4 17 -3 21 5 13 5 -5 8 -16
6 -23z m480 0 c-3 -8 -7 -3 -11 10 -4 17 -3 21 5 13 5 -5 8 -16 6 -23z m1440
0 c-3 -8 -7 -3 -11 10 -4 17 -3 21 5 13 5 -5 8 -16 6 -23z m-2948 6 c7 -9 8
-15 2 -15 -5 0 -12 7 -16 15 -3 8 -4 15 -2 15 2 0 9 -7 16 -15z m313 0 c-3 -9
-8 -14 -10 -11 -3 3 -2 9 2 15 9 16 15 13 8 -4z m167 0 c7 -9 8 -15 2 -15 -5
0 -12 7 -16 15 -3 8 -4 15 -2 15 2 0 9 -7 16 -15z m313 0 c-3 -9 -8 -14 -10
-11 -3 3 -2 9 2 15 9 16 15 13 8 -4z m167 0 c7 -9 8 -15 2 -15 -5 0 -12 7 -16
15 -3 8 -4 15 -2 15 2 0 9 -7 16 -15z m313 0 c-3 -9 -8 -14 -10 -11 -3 3 -2 9
2 15 9 16 15 13 8 -4z m167 0 c7 -9 8 -15 2 -15 -5 0 -12 7 -16 15 -3 8 -4 15
-2 15 2 0 9 -7 16 -15z m464 -14 c-2 -3 -12 3 -22 13 -16 17 -16 18 5 5 12 -7
20 -15 17 -18z m46 25 c0 -2 -8 -10 -17 -17 -16 -13 -17 -12 -4 4 13 16 21 21
21 13z m280 -11 c0 -19 -6 -19 -14 0 -3 8 -1 15 4 15 6 0 10 -7 10 -15z m40
11 c0 -2 -7 -9 -15 -16 -13 -11 -14 -10 -9 4 5 14 24 23 24 12z m360 -4 c0 -5
-7 -9 -15 -9 -8 0 -12 4 -9 9 7 10 24 10 24 0z m83 -9 c-6 -16 -10 -16 -16 0
-3 8 1 14 8 14 7 0 11 -6 8 -14z m167 2 c7 -9 8 -15 2 -15 -5 0 -12 7 -16 15
-3 8 -4 15 -2 15 2 0 9 -7 16 -15z m313 -2 c-6 -16 -10 -16 -16 0 -3 8 1 14 8
14 7 0 11 -6 8 -14z m37 13 c0 -2 -7 -9 -15 -16 -13 -11 -14 -10 -9 4 5 14 24
23 24 12z m45 -6 c3 -6 -1 -7 -9 -4 -18 7 -21 14 -7 14 6 0 13 -4 16 -10z
m542 -12 c-3 -8 -6 -5 -6 6 -1 11 2 17 5 13 3 -3 4 -12 1 -19z m754 -1 c-10
-9 -11 -8 -5 6 3 10 9 15 12 12 3 -3 0 -11 -7 -18z m244 14 c3 -5 2 -12 -3
-15 -5 -3 -9 1 -9 9 0 17 3 19 12 6z m236 -14 c-10 -9 -11 -8 -5 6 3 10 9 15
12 12 3 -3 0 -11 -7 -18z m244 14 c3 -5 2 -12 -3 -15 -5 -3 -9 1 -9 9 0 17 3
19 12 6z m236 -14 c-10 -9 -11 -8 -5 6 3 10 9 15 12 12 3 -3 0 -11 -7 -18z
m244 14 c3 -5 2 -12 -3 -15 -5 -3 -9 1 -9 9 0 17 3 19 12 6z m236 -14 c-10 -9
-11 -8 -5 6 3 10 9 15 12 12 3 -3 0 -11 -7 -18z m244 14 c3 -5 2 -12 -3 -15
-5 -3 -9 1 -9 9 0 17 3 19 12 6z m236 -14 c-10 -9 -11 -8 -5 6 3 10 9 15 12
12 3 -3 0 -11 -7 -18z m244 14 c3 -5 2 -12 -3 -15 -5 -3 -9 1 -9 9 0 17 3 19
12 6z m236 -14 c-10 -9 -11 -8 -5 6 3 10 9 15 12 12 3 -3 0 -11 -7 -18z m244
14 c3 -5 2 -12 -3 -15 -5 -3 -9 1 -9 9 0 17 3 19 12 6z m236 -14 c-10 -9 -11
-8 -5 6 3 10 9 15 12 12 3 -3 0 -11 -7 -18z m244 14 c3 -5 2 -12 -3 -15 -5 -3
-9 1 -9 9 0 17 3 19 12 6z m236 -14 c-10 -9 -11 -8 -5 6 3 10 9 15 12 12 3 -3
0 -11 -7 -18z m244 14 c3 -5 2 -12 -3 -15 -5 -3 -9 1 -9 9 0 17 3 19 12 6z
m236 -14 c-10 -9 -11 -8 -5 6 3 10 9 15 12 12 3 -3 0 -11 -7 -18z m-4086 3 c3
-5 1 -10 -4 -10 -6 0 -11 5 -11 10 0 6 2 10 4 10 3 0 8 -4 11 -10z m390 -8
c-3 -3 -11 0 -18 7 -9 10 -8 11 6 5 10 -3 15 -9 12 -12z m480 0 c-3 -3 -11 0
-18 7 -9 10 -8 11 6 5 10 -3 15 -9 12 -12z m480 0 c-3 -3 -11 0 -18 7 -9 10
-8 11 6 5 10 -3 15 -9 12 -12z m480 0 c-3 -3 -11 0 -18 7 -9 10 -8 11 6 5 10
-3 15 -9 12 -12z m480 0 c-3 -3 -11 0 -18 7 -9 10 -8 11 6 5 10 -3 15 -9 12
-12z m480 0 c-3 -3 -11 0 -18 7 -9 10 -8 11 6 5 10 -3 15 -9 12 -12z m480 0
c-3 -3 -11 0 -18 7 -9 10 -8 11 6 5 10 -3 15 -9 12 -12z m480 0 c-3 -3 -11 0
-18 7 -9 10 -8 11 6 5 10 -3 15 -9 12 -12z"/>
<path d="M9550 10161 c0 -6 4 -13 10 -16 6 -3 7 1 4 9 -7 18 -14 21 -14 7z"/>
<path d="M9760 10076 c0 -2 7 -9 15 -16 9 -7 15 -8 15 -2 0 5 -7 12 -15 16 -8
3 -15 4 -15 2z"/>
<path d="M367 10003 c-4 -3 -7 -11 -7 -17 0 -6 5 -5 12 2 6 6 9 14 7 17 -3 3
-9 2 -12 -2z"/>
<path d="M10232 5250 c0 -14 2 -19 5 -12 2 6 2 18 0 25 -3 6 -5 1 -5 -13z"/>
<path d="M10232 2240 c0 -14 2 -19 5 -12 2 6 2 18 0 25 -3 6 -5 1 -5 -13z"/>
<path d="M10232 2010 c0 -14 2 -19 5 -12 2 6 2 18 0 25 -3 6 -5 1 -5 -13z"/>
<path d="M10233 1825 c0 -27 2 -38 4 -22 2 15 2 37 0 50 -2 12 -4 0 -4 -28z"/>
<path d="M10101 547 c-13 -21 -12 -21 5 -5 10 10 16 20 13 22 -3 3 -11 -5 -18
-17z"/>
<path d="M850 64 c0 -8 5 -12 10 -9 6 4 8 11 5 16 -9 14 -15 11 -15 -7z"/>
<path d="M1603 70 c2 -8 13 -16 25 -16 12 -1 19 3 16 8 -3 4 -10 5 -16 2 -6
-4 -15 0 -20 7 -8 12 -9 11 -5 -1z"/>
<path d="M2083 70 c2 -8 13 -16 25 -16 12 -1 19 3 16 8 -3 4 -10 5 -16 2 -6
-4 -15 0 -20 7 -8 12 -9 11 -5 -1z"/>
<path d="M5122 67 c-9 -10 -6 -13 13 -13 19 0 22 3 13 13 -6 7 -12 13 -13 13
-1 0 -7 -6 -13 -13z"/>
<path d="M1330 60 c0 -5 5 -10 11 -10 5 0 7 5 4 10 -3 6 -8 10 -11 10 -2 0 -4
-4 -4 -10z"/>
<path d="M1810 60 c0 -5 5 -10 11 -10 5 0 7 5 4 10 -3 6 -8 10 -11 10 -2 0 -4
-4 -4 -10z"/>
<path d="M2290 60 c0 -5 5 -10 11 -10 5 0 7 5 4 10 -3 6 -8 10 -11 10 -2 0 -4
-4 -4 -10z"/>
<path d="M3040 66 c0 -2 8 -10 18 -17 15 -13 16 -12 3 4 -13 16 -21 21 -21 13z"/>
<path d="M3730 60 c0 -5 5 -10 11 -10 5 0 7 5 4 10 -3 6 -8 10 -11 10 -2 0 -4
-4 -4 -10z"/>
<path d="M4876 61 c-3 -4 6 -7 19 -7 14 0 22 2 19 5 -8 8 -34 10 -38 2z"/>
</g>
</svg>
