<?xml version="1.0" standalone="no"?>
<!DOCTYPE svg PUBLIC "-//W3C//DTD SVG 20010904//EN"
 "http://www.w3.org/TR/2001/REC-SVG-20010904/DTD/svg10.dtd">
<svg version="1.0" xmlns="http://www.w3.org/2000/svg"
 width="1024.000000pt" height="1024.000000pt" viewBox="0 0 1024.000000 1024.000000"
 preserveAspectRatio="xMidYMid meet">
<metadata>
Created by potrace 1.11, written by Peter Selinger 2001-2013
</metadata>
<g transform="translate(0.000000,1024.000000) scale(0.100000,-0.100000)"
fill="#000000" stroke="none">
<path d="M1371 9933 c3 -18 -2 -33 -11 -33 -5 0 -7 8 -3 18 6 16 5 16 -14 -1
-12 -11 -24 -14 -27 -9 -3 6 -16 8 -29 5 -15 -3 -18 -2 -9 4 9 7 -2 9 -32 9
-29 -1 -41 -4 -36 -11 6 -7 2 -11 -10 -11 -10 0 -17 4 -14 7 2 4 0 10 -6 14
-5 3 -10 1 -10 -4 0 -6 -9 -11 -21 -11 -12 0 -17 4 -14 11 4 6 -3 5 -14 -3
-18 -11 -23 -11 -31 2 -6 10 -10 11 -10 3 0 -8 -13 -13 -31 -13 -21 0 -28 4
-23 13 6 9 4 9 -8 -1 -13 -10 -17 -10 -20 0 -3 8 -7 6 -11 -6 -4 -10 -3 -15 3
-11 16 10 11 -1 -7 -16 -11 -10 -14 -10 -9 -1 4 7 2 12 -4 12 -6 0 -8 5 -4 12
4 7 3 8 -5 4 -6 -4 -9 -10 -7 -14 2 -4 -3 -13 -11 -21 -13 -12 -14 -11 -9 6 5
15 1 19 -17 19 -16 0 -24 -6 -24 -19 -2 -19 -2 -19 12 -1 8 11 15 14 15 7 0
-6 -5 -15 -10 -18 -6 -4 -7 -12 -3 -18 4 -7 -1 -5 -12 3 -10 8 -20 14 -22 13
-1 -2 -4 -3 -5 -2 -21 6 -37 5 -32 -2 3 -5 10 -7 15 -4 5 4 9 4 9 1 0 -3 -10
-10 -21 -17 -15 -8 -19 -8 -15 0 4 6 3 11 -2 11 -6 0 -13 -7 -16 -16 -4 -11
-14 -15 -30 -12 -19 4 -24 1 -21 -13 2 -10 -1 -22 -7 -25 -7 -4 -8 -2 -4 4 4
7 2 12 -4 12 -6 0 -8 5 -4 11 4 7 -3 6 -17 -2 -13 -7 -28 -12 -32 -11 -5 1 -6
-2 -2 -8 5 -8 11 -7 21 1 8 6 17 9 21 5 3 -3 1 -6 -6 -6 -7 0 -10 -4 -7 -9 4
-5 -5 -8 -19 -6 -15 1 -24 -2 -23 -9 2 -6 1 -11 -2 -12 -22 -3 -49 -27 -43
-37 4 -7 -1 -6 -11 2 -13 11 -16 11 -14 1 2 -7 -3 -15 -11 -18 -9 -3 -11 0 -6
8 5 9 4 11 -4 6 -9 -6 -9 -11 1 -24 10 -12 10 -14 1 -8 -8 4 -13 2 -13 -4 0
-7 -7 -10 -17 -6 -15 5 -14 3 2 -10 20 -15 20 -16 -4 -12 -14 2 -26 -3 -29
-11 -3 -9 0 -11 8 -6 9 6 11 4 6 -4 -5 -7 -14 -10 -21 -7 -9 3 -12 -2 -10 -15
2 -11 0 -17 -6 -13 -6 3 -19 -2 -29 -11 -14 -13 -17 -22 -10 -35 11 -20 4 -31
-15 -24 -17 7 -29 -12 -14 -22 8 -5 9 -3 4 6 -5 9 -4 11 4 6 6 -4 9 -12 5 -17
-3 -5 -10 -6 -16 -3 -7 5 -9 1 -5 -9 3 -9 2 -19 -4 -23 -6 -3 -8 -12 -5 -19 3
-8 -3 -19 -12 -27 -13 -11 -15 -11 -8 2 4 8 0 6 -8 -4 -9 -11 -14 -28 -11 -37
3 -10 0 -21 -6 -25 -8 -5 -9 -3 -4 6 6 9 4 11 -4 6 -9 -6 -8 -13 6 -28 18 -21
18 -21 -7 -8 l-25 13 20 -23 20 -23 -23 12 c-12 7 -22 8 -22 2 0 -5 6 -12 13
-14 9 -4 9 -6 0 -6 -7 -1 -13 -9 -13 -19 0 -10 6 -24 13 -32 10 -12 9 -12 -5
-2 -12 10 -18 10 -24 1 -4 -8 -3 -9 4 -5 7 4 12 1 12 -8 0 -9 -6 -16 -12 -16
-7 0 -5 -5 5 -11 18 -10 18 -11 0 -26 -10 -8 -12 -12 -5 -8 14 7 17 -11 2 -20
-13 -8 -13 -25 1 -25 5 0 7 5 3 12 -5 7 -3 8 5 3 9 -5 10 -10 2 -18 -14 -14
-14 -30 -1 -22 6 3 10 1 10 -4 0 -6 -8 -11 -17 -11 -15 0 -16 -2 -3 -10 13 -9
13 -11 0 -20 -10 -6 -11 -10 -2 -10 6 0 12 -5 12 -11 0 -5 -6 -7 -12 -3 -7 4
-5 -1 4 -12 16 -19 16 -22 1 -44 -9 -13 -11 -20 -5 -16 7 4 12 1 12 -9 0 -12
-5 -15 -18 -11 -14 5 -13 3 3 -9 17 -14 18 -17 5 -25 -13 -8 -13 -11 -1 -22
11 -11 13 -11 6 1 -5 9 -4 12 3 7 6 -4 9 -13 6 -21 -4 -8 -10 -13 -14 -10 -5
3 -7 -2 -6 -11 1 -8 9 -20 17 -25 12 -7 11 -9 -3 -9 -17 0 -19 -15 -4 -39 5
-8 4 -16 -4 -21 -10 -6 -9 -9 1 -14 11 -5 11 -7 2 -12 -20 -9 -15 -27 4 -19
15 5 16 4 6 -6 -15 -15 -17 -33 -3 -24 6 3 10 1 10 -4 0 -6 -8 -11 -17 -12
-11 0 -13 -3 -5 -6 6 -2 12 -9 12 -14 0 -6 -4 -8 -8 -5 -5 3 -9 -1 -9 -9 0 -8
4 -12 9 -9 4 3 8 -4 8 -15 0 -12 -5 -21 -11 -21 -5 0 -7 -5 -4 -10 4 -6 10 -8
14 -6 3 3 7 -4 7 -14 0 -11 -5 -16 -14 -12 -11 4 -10 -2 3 -22 17 -25 17 -26
-1 -19 -16 6 -17 4 -7 -8 10 -12 10 -18 0 -29 -9 -10 -9 -11 1 -6 8 5 12 0 12
-13 0 -12 -5 -21 -11 -21 -5 0 -7 -5 -4 -10 4 -6 10 -8 14 -6 3 3 7 -4 7 -14
0 -11 -5 -16 -14 -12 -11 4 -10 -2 3 -22 17 -25 17 -26 -1 -19 -17 6 -17 5 -5
-10 7 -9 11 -23 8 -32 -4 -8 -2 -17 4 -21 6 -4 3 -14 -8 -27 -17 -19 -17 -20
0 -14 9 4 17 2 17 -3 0 -9 -15 -14 -33 -11 -5 1 -6 -3 -2 -9 3 -6 11 -8 16 -5
13 9 11 -9 -3 -23 -9 -9 -9 -15 0 -24 14 -14 16 -32 4 -24 -5 3 -9 -1 -9 -9 0
-8 4 -12 9 -9 10 6 11 -10 1 -20 -11 -10 -12 -37 -2 -30 5 3 6 10 3 16 -4 7
-2 8 4 4 9 -5 9 -13 2 -27 -6 -10 -7 -19 -3 -19 4 0 1 -5 -7 -10 -13 -8 -12
-10 4 -10 20 0 20 0 0 -16 -15 -13 -16 -15 -2 -10 12 3 15 1 11 -10 -3 -9 -12
-13 -22 -9 -10 4 -8 -2 7 -15 19 -18 20 -24 10 -43 -13 -23 -19 -99 -7 -91 4
2 6 -7 6 -21 0 -15 -4 -22 -11 -18 -6 3 -3 -2 6 -13 16 -18 16 -22 3 -41 -14
-20 -14 -23 2 -32 10 -6 13 -11 7 -11 -7 0 -14 -9 -17 -20 -3 -11 -1 -18 4
-14 5 3 9 -4 9 -15 0 -12 -5 -21 -11 -21 -5 0 -7 -5 -4 -10 4 -6 10 -8 14 -6
3 3 7 -4 7 -14 0 -11 -5 -16 -14 -12 -11 4 -10 -2 3 -22 17 -25 17 -26 -1 -19
-16 6 -17 4 -7 -8 10 -12 10 -18 0 -29 -9 -10 -9 -11 1 -6 8 5 12 0 12 -13 0
-12 -5 -21 -11 -21 -5 0 -7 -5 -4 -10 4 -6 10 -8 14 -6 3 3 7 -4 7 -14 0 -11
-5 -16 -14 -12 -11 4 -10 -2 3 -22 17 -25 17 -26 -1 -20 -16 6 -17 5 -7 -7 17
-17 17 -32 1 -23 -7 4 -5 -1 4 -12 16 -19 16 -22 1 -44 -9 -13 -11 -20 -5 -16
7 4 12 1 12 -9 0 -12 -5 -15 -17 -11 -15 5 -14 3 2 -9 17 -14 18 -17 5 -25
-13 -8 -13 -11 -1 -22 11 -11 13 -11 6 1 -5 9 -4 12 3 7 6 -4 9 -13 6 -21 -4
-8 -10 -13 -14 -10 -5 3 -7 -2 -6 -11 1 -8 9 -20 17 -25 12 -7 11 -9 -3 -9
-17 0 -19 -15 -4 -39 5 -8 4 -16 -4 -21 -10 -6 -9 -9 1 -13 12 -4 11 -7 -1
-16 -10 -7 -11 -11 -2 -11 6 0 12 -5 12 -11 0 -6 -8 -8 -17 -5 -15 5 -14 3 2
-9 17 -14 18 -17 5 -25 -13 -8 -13 -11 -1 -22 11 -11 13 -11 6 1 -5 9 -4 12 3
7 6 -4 9 -13 6 -21 -4 -8 -10 -13 -14 -10 -5 3 -7 -2 -6 -11 1 -8 9 -20 17
-25 12 -7 11 -9 -3 -9 -17 0 -19 -15 -4 -39 5 -8 4 -16 -4 -21 -10 -6 -9 -9 1
-14 11 -5 11 -7 2 -12 -20 -9 -15 -27 5 -19 14 5 15 4 4 -6 -14 -15 -16 -33
-2 -24 5 3 10 1 10 -4 0 -6 -8 -11 -17 -12 -11 0 -13 -3 -5 -6 6 -2 12 -9 12
-14 0 -6 -4 -8 -8 -5 -5 3 -9 -1 -9 -9 0 -8 4 -12 9 -9 4 3 8 -4 8 -15 0 -12
-5 -21 -11 -21 -5 0 -7 -5 -4 -10 4 -6 10 -8 14 -6 3 3 7 -4 7 -14 0 -11 -5
-16 -14 -12 -11 4 -10 -2 3 -22 17 -25 17 -26 -1 -19 -16 6 -17 4 -7 -8 10
-12 10 -18 0 -29 -9 -10 -9 -11 0 -6 9 5 13 0 13 -13 0 -12 -5 -21 -11 -21 -5
0 -7 -5 -4 -10 4 -6 10 -8 14 -6 3 3 7 -4 7 -14 0 -11 -5 -16 -14 -12 -11 4
-10 -2 3 -22 17 -25 17 -26 -1 -19 -17 6 -17 5 -5 -10 7 -9 11 -23 8 -32 -4
-8 -2 -17 4 -21 6 -4 3 -14 -8 -27 -17 -19 -17 -20 0 -14 9 4 17 2 17 -3 0 -9
-15 -14 -33 -11 -5 1 -6 -3 -2 -9 3 -6 11 -8 16 -5 13 9 11 -9 -3 -23 -9 -9
-9 -15 0 -24 14 -14 16 -32 4 -24 -5 3 -9 -1 -9 -9 0 -8 4 -12 9 -9 10 6 11
-10 1 -20 -11 -10 -12 -37 -2 -30 5 3 6 10 3 16 -4 7 -2 8 4 4 9 -5 9 -13 2
-27 -6 -10 -7 -19 -3 -19 4 0 1 -5 -7 -10 -13 -8 -12 -10 4 -10 20 0 20 0 0
-16 -15 -13 -16 -15 -2 -10 12 3 15 1 11 -10 -3 -9 -12 -13 -22 -9 -10 4 -8
-2 7 -15 19 -18 20 -24 10 -43 -13 -23 -19 -99 -7 -91 4 2 6 -7 6 -21 0 -15
-4 -22 -11 -18 -6 3 -3 -2 6 -13 16 -18 16 -22 3 -41 -14 -20 -14 -23 2 -32
10 -6 13 -11 7 -11 -7 0 -14 -9 -17 -20 -3 -11 -1 -18 4 -14 5 3 9 -4 9 -15 0
-12 -5 -21 -11 -21 -5 0 -7 -5 -4 -10 4 -6 10 -8 14 -6 3 3 7 -4 7 -14 0 -11
-5 -16 -14 -12 -11 4 -10 -2 3 -22 17 -25 17 -26 -1 -19 -16 6 -17 4 -7 -8 10
-12 10 -18 0 -29 -9 -10 -9 -11 0 -6 9 5 13 0 13 -13 0 -12 -5 -21 -11 -21 -5
0 -7 -5 -4 -10 4 -6 10 -8 14 -6 3 3 7 -4 7 -14 0 -11 -5 -16 -14 -12 -11 4
-10 -2 3 -22 17 -25 17 -26 -1 -20 -16 6 -17 5 -6 -7 16 -17 16 -32 0 -23 -7
4 -5 -1 4 -12 16 -19 16 -22 1 -44 -9 -13 -11 -20 -5 -16 7 4 12 1 12 -9 0
-12 -5 -15 -18 -11 -14 5 -13 3 3 -9 17 -14 18 -17 5 -25 -13 -8 -13 -11 -1
-22 11 -11 13 -11 6 1 -5 9 -4 12 3 7 6 -4 9 -13 6 -21 -4 -8 -10 -13 -14 -10
-5 3 -7 -2 -6 -11 1 -8 9 -20 17 -25 12 -7 11 -9 -3 -9 -17 0 -19 -15 -4 -39
5 -8 4 -16 -4 -21 -10 -6 -9 -9 1 -13 12 -4 11 -7 -1 -16 -10 -7 -11 -11 -2
-11 6 0 12 -5 12 -11 0 -6 -8 -8 -18 -5 -14 5 -13 3 3 -9 17 -14 18 -17 5 -25
-13 -8 -13 -11 -1 -22 11 -11 13 -11 6 1 -5 9 -4 12 3 7 6 -4 9 -13 6 -21 -4
-8 -10 -13 -14 -10 -5 3 -7 -2 -6 -11 1 -8 9 -20 17 -25 12 -7 11 -9 -3 -9
-17 0 -19 -15 -4 -39 5 -8 4 -16 -4 -21 -10 -6 -9 -9 1 -14 11 -5 11 -7 2 -12
-20 -9 -15 -27 4 -19 15 5 16 4 6 -6 -15 -15 -17 -33 -3 -24 6 3 10 1 10 -4 0
-6 -8 -11 -17 -12 -11 0 -13 -3 -5 -6 6 -2 12 -9 12 -14 0 -6 -4 -8 -8 -5 -5
3 -9 -1 -9 -9 0 -8 4 -12 9 -9 4 3 8 -4 8 -15 0 -12 -5 -21 -11 -21 -5 0 -7
-5 -4 -10 4 -6 10 -8 14 -6 3 3 7 -4 7 -14 0 -11 -5 -16 -14 -12 -11 4 -10 -2
3 -22 17 -25 17 -26 -1 -19 -16 6 -17 4 -7 -8 10 -12 10 -18 0 -29 -9 -10 -9
-11 0 -6 9 5 13 0 13 -13 0 -12 -5 -21 -11 -21 -5 0 -7 -5 -4 -10 4 -6 10 -8
14 -6 3 3 7 -4 7 -14 0 -11 -5 -16 -14 -12 -11 4 -10 -2 3 -22 17 -25 17 -26
-1 -19 -17 6 -17 5 -5 -10 7 -9 11 -23 8 -32 -4 -8 -2 -17 4 -21 6 -4 3 -14
-8 -27 -17 -19 -17 -20 -1 -14 10 4 18 2 18 -3 0 -9 -15 -14 -33 -11 -5 1 -6
-3 -2 -9 3 -6 11 -8 16 -5 13 9 11 -9 -3 -23 -9 -9 -9 -15 0 -24 14 -14 16
-32 4 -24 -5 3 -9 -1 -9 -9 0 -8 4 -12 9 -9 10 6 11 -10 1 -20 -11 -10 -12
-37 -2 -30 5 3 6 10 3 16 -4 7 -2 8 4 4 9 -5 9 -13 2 -27 -6 -10 -7 -19 -3
-19 4 0 1 -5 -7 -10 -13 -8 -12 -10 4 -10 20 0 20 0 0 -16 -15 -13 -16 -15 -2
-10 12 3 15 1 11 -10 -3 -9 -12 -13 -22 -9 -10 4 -8 -2 7 -15 19 -18 20 -24
10 -43 -13 -23 -19 -99 -7 -91 4 2 7 -7 7 -21 0 -15 -5 -22 -12 -18 -6 3 -3
-2 6 -13 16 -18 16 -22 3 -41 -14 -20 -14 -23 2 -32 10 -6 13 -11 7 -11 -7 0
-14 -9 -17 -20 -3 -11 -1 -18 4 -14 5 3 9 -4 9 -15 0 -12 -5 -21 -11 -21 -5 0
-7 -5 -4 -10 4 -6 10 -8 14 -6 3 3 7 -4 7 -14 0 -11 -5 -16 -14 -12 -11 4 -10
-2 3 -22 17 -25 17 -26 -1 -20 -15 6 -17 4 -7 -6 10 -11 10 -17 0 -29 -9 -12
-9 -13 0 -7 9 5 13 0 13 -13 0 -12 -5 -21 -11 -21 -5 0 -7 -5 -4 -10 4 -6 10
-8 14 -6 3 3 7 -4 7 -14 0 -11 -5 -16 -14 -12 -11 4 -10 -2 3 -22 17 -25 17
-26 -1 -20 -16 6 -17 5 -7 -7 17 -17 17 -32 1 -23 -7 4 -5 -1 4 -12 16 -19 16
-22 1 -44 -9 -13 -11 -20 -5 -16 7 4 12 1 12 -9 0 -12 -5 -15 -17 -11 -15 5
-14 3 2 -9 17 -14 18 -17 5 -25 -13 -8 -13 -11 -1 -22 11 -11 13 -11 6 1 -5 9
-4 12 3 7 6 -4 9 -13 6 -21 -4 -8 -10 -13 -14 -10 -5 3 -7 -2 -6 -11 1 -8 9
-20 17 -25 12 -7 11 -9 -3 -9 -17 0 -19 -15 -4 -39 5 -8 4 -16 -4 -21 -10 -6
-9 -9 1 -13 12 -4 11 -7 -1 -16 -10 -7 -11 -11 -2 -11 6 0 12 -5 12 -11 0 -6
-8 -8 -17 -5 -15 5 -14 3 2 -9 17 -14 18 -17 5 -25 -13 -8 -13 -11 -1 -22 11
-11 13 -11 6 1 -5 9 -4 12 3 7 6 -4 9 -13 6 -21 -4 -8 -10 -13 -14 -10 -5 3
-7 -2 -6 -11 1 -8 9 -20 17 -25 12 -7 11 -9 -3 -9 -17 0 -19 -15 -4 -39 5 -8
4 -16 -4 -21 -10 -6 -9 -9 1 -14 11 -5 11 -7 2 -12 -20 -9 -15 -27 4 -19 15 5
16 4 5 -6 -14 -15 -16 -33 -2 -24 5 3 10 1 10 -4 0 -6 -8 -11 -17 -12 -11 0
-13 -3 -5 -6 6 -2 12 -9 12 -14 0 -6 -4 -8 -8 -5 -5 3 -9 -1 -9 -9 0 -8 4 -12
9 -9 4 3 8 -4 8 -15 0 -12 -5 -21 -11 -21 -5 0 -7 -5 -4 -10 4 -6 10 -8 14 -6
3 3 7 -4 7 -14 0 -11 -5 -16 -14 -12 -11 4 -10 -2 3 -22 17 -25 17 -26 -1 -19
-16 6 -17 4 -7 -8 10 -12 10 -18 0 -29 -9 -10 -9 -11 0 -6 9 5 13 0 13 -13 0
-12 -5 -21 -11 -21 -5 0 -7 -5 -4 -10 4 -6 10 -8 14 -6 3 3 7 -4 7 -14 0 -11
-5 -16 -14 -12 -11 4 -10 -2 3 -22 17 -25 17 -26 -1 -19 -17 6 -17 5 -5 -10 7
-9 11 -23 8 -32 -4 -8 -2 -17 4 -21 6 -4 3 -14 -8 -27 -17 -19 -17 -20 -1 -14
10 4 18 2 18 -3 0 -9 -15 -14 -33 -11 -5 1 -6 -3 -2 -9 3 -6 11 -8 16 -5 13 9
11 -9 -3 -23 -9 -9 -9 -15 0 -24 14 -14 16 -32 4 -24 -5 3 -9 -1 -9 -9 0 -8 4
-12 9 -9 10 6 11 -10 1 -20 -11 -10 -12 -37 -2 -30 5 3 6 10 3 16 -4 7 -2 8 4
4 9 -5 9 -13 2 -27 -6 -10 -7 -19 -3 -19 4 0 1 -5 -7 -10 -13 -8 -12 -10 4
-10 20 0 20 0 0 -16 -15 -13 -16 -15 -2 -10 12 3 15 1 11 -10 -3 -9 -12 -13
-22 -9 -10 4 -8 -2 7 -15 19 -18 20 -24 10 -43 -13 -23 -19 -99 -7 -91 4 2 6
-7 7 -21 0 -15 -5 -22 -12 -18 -6 3 -3 -2 6 -13 16 -18 16 -22 3 -41 -14 -20
-14 -23 2 -32 10 -6 13 -11 7 -11 -7 0 -14 -9 -17 -20 -3 -11 -1 -18 4 -14 5
3 9 -4 9 -15 0 -12 -5 -21 -11 -21 -5 0 -7 -5 -4 -10 4 -6 10 -8 14 -6 3 3 7
-4 7 -14 0 -11 -5 -16 -14 -12 -11 4 -10 -2 3 -22 17 -25 17 -26 -1 -19 -16 6
-17 4 -7 -8 10 -12 10 -18 0 -29 -9 -10 -9 -11 0 -6 9 5 13 0 13 -13 0 -12 -5
-21 -11 -21 -5 0 -7 -5 -4 -10 4 -6 10 -8 14 -6 3 3 7 -4 7 -14 0 -11 -5 -16
-14 -12 -11 4 -10 -2 3 -22 17 -25 17 -26 -1 -20 -16 6 -17 5 -6 -7 6 -7 12
-17 12 -22 0 -4 -6 -5 -12 -1 -7 4 -5 -1 4 -12 16 -19 16 -22 1 -44 -9 -13
-11 -20 -5 -16 7 4 12 1 12 -9 0 -12 -5 -15 -17 -11 -15 5 -14 3 2 -9 17 -14
18 -17 5 -25 -13 -8 -13 -11 -1 -22 11 -11 13 -11 6 1 -5 9 -4 12 3 7 6 -4 9
-13 6 -21 -4 -8 -10 -13 -14 -10 -5 3 -7 -2 -6 -11 1 -8 9 -20 17 -25 12 -7
11 -9 -3 -9 -17 0 -19 -15 -4 -39 5 -8 4 -16 -4 -21 -10 -6 -9 -9 1 -13 12 -5
12 -7 0 -15 -11 -8 -11 -10 0 -15 12 -5 12 -7 0 -15 -11 -8 -11 -10 0 -15 12
-5 12 -7 1 -15 -11 -7 -10 -10 3 -16 15 -6 16 -9 3 -29 -8 -12 -14 -32 -12
-44 2 -13 -1 -23 -8 -23 -6 0 -3 -7 8 -16 14 -11 16 -17 6 -21 -10 -4 -9 -8 5
-19 17 -13 17 -13 -2 -14 -18 -1 -18 -2 -3 -11 11 -6 15 -16 11 -26 -5 -12 -3
-14 7 -8 9 6 11 4 6 -4 -5 -7 -14 -10 -20 -8 -7 3 -13 -1 -13 -8 0 -7 8 -12
18 -10 15 3 17 0 8 -21 -12 -32 -12 -54 1 -54 5 0 7 6 4 14 -3 8 -1 17 5 21 7
4 8 -1 4 -12 -6 -15 -4 -16 9 -5 13 11 18 11 24 0 4 -7 4 -10 -1 -6 -11 11
-36 -12 -28 -25 4 -7 -1 -8 -13 -4 -15 5 -14 3 3 -9 22 -16 34 -42 14 -29 -5
3 -13 0 -17 -6 -4 -8 -3 -9 5 -5 6 4 14 0 17 -8 3 -9 11 -16 16 -16 6 0 6 6
-1 14 -8 10 -9 16 -1 21 6 4 9 1 8 -7 -2 -7 4 -12 12 -10 8 2 12 0 8 -4 -4 -4
-3 -13 3 -20 8 -10 6 -12 -10 -9 -11 2 -24 -1 -27 -7 -4 -6 -3 -8 3 -5 6 4 18
0 28 -7 14 -10 15 -15 5 -21 -8 -5 -11 -4 -7 2 3 5 0 10 -8 10 -11 0 -12 -4
-4 -13 6 -7 18 -10 27 -7 14 5 15 3 4 -8 -6 -7 -12 -18 -12 -23 0 -6 5 -4 10
4 8 13 10 13 10 -2 0 -9 5 -20 12 -24 7 -4 8 -3 4 4 -4 7 -2 12 4 12 7 0 10
-6 7 -12 -2 -7 -11 -12 -20 -12 -9 1 -14 -3 -11 -8 3 -5 13 -7 21 -4 10 4 13
2 10 -7 -3 -8 -1 -20 4 -28 6 -10 9 -10 9 -1 0 6 5 12 10 12 6 0 9 -3 9 -7 -4
-27 1 -35 16 -23 12 10 13 7 5 -19 -8 -29 -7 -30 12 -20 18 10 20 9 14 -6 -5
-13 -2 -16 10 -11 14 5 15 4 5 -8 -8 -9 -8 -16 -2 -20 5 -4 12 -2 16 3 8 14
48 -27 42 -43 -4 -9 3 -11 21 -8 20 4 24 2 19 -10 -7 -19 11 -38 29 -31 8 3
14 0 14 -7 0 -7 8 -9 20 -5 12 4 20 2 20 -5 0 -6 -4 -9 -8 -6 -4 2 -14 0 -22
-6 -13 -8 -12 -9 1 -5 9 3 27 -2 40 -11 23 -15 23 -15 10 1 -12 15 -12 17 3
11 9 -3 16 -10 16 -15 0 -5 5 -9 11 -9 5 0 8 4 5 8 -3 5 2 9 11 9 13 0 12 -4
-5 -17 -21 -17 -20 -18 29 -16 28 0 53 -3 56 -8 3 -4 9 -2 14 5 6 10 9 10 9 2
0 -7 6 -11 13 -9 6 1 9 1 4 -1 -4 -3 -7 -11 -7 -20 0 -12 2 -12 16 1 20 20 30
21 14 1 -14 -17 -10 -18 50 -15 49 3 54 4 63 15 5 6 5 0 2 -12 -7 -26 9 -32
19 -8 4 12 11 13 23 7 10 -5 30 -7 46 -5 15 2 27 -1 27 -7 0 -6 -5 -8 -12 -4
-7 4 -8 3 -4 -5 6 -8 12 -9 20 -2 7 6 17 7 22 3 5 -4 0 4 -11 17 l-20 24 23
-14 c12 -8 22 -17 22 -21 0 -5 5 -8 11 -8 6 0 9 7 5 15 -7 19 -1 19 19 -1 19
-20 33 -11 16 10 -11 13 -9 13 12 3 14 -6 23 -15 21 -19 -3 -5 0 -8 5 -8 6 0
11 6 11 13 0 9 2 9 8 -1 9 -14 42 -6 42 10 0 6 -6 5 -15 -2 -10 -9 -15 -9 -15
-1 0 6 5 11 10 11 6 0 13 0 18 1 4 0 10 -10 14 -23 4 -17 6 -18 7 -5 1 10 6
15 11 12 6 -4 8 -10 5 -15 -3 -5 -1 -11 4 -15 6 -3 8 3 6 14 -4 23 23 37 32
16 3 -10 12 -13 25 -9 16 5 19 3 13 -7 -5 -8 -5 -11 0 -7 4 4 14 3 22 -3 20
-17 16 -2 -6 20 -14 14 -22 16 -30 8 -8 -8 -11 -8 -11 0 0 18 30 24 36 8 4 -8
10 -13 14 -10 5 3 14 -3 20 -12 10 -15 11 -15 6 -1 -6 20 23 33 30 14 6 -15
44 -18 44 -4 0 4 4 8 10 8 5 0 7 -8 3 -18 -5 -14 -3 -14 11 3 14 16 17 17 12
3 -3 -10 -2 -19 2 -22 4 -3 9 5 9 16 2 22 22 40 35 32 4 -3 8 -11 7 -17 0 -9
-2 -8 -6 1 -2 6 -9 10 -14 6 -15 -9 -10 -20 11 -21 11 -1 20 3 20 9 0 6 3 8 6
5 4 -3 15 -2 25 4 16 8 21 6 29 -13 9 -22 9 -22 9 -2 1 12 8 25 17 28 14 5 15
4 4 -9 -13 -16 -13 -16 30 -19 20 -2 39 16 32 29 -3 6 2 4 12 -4 9 -8 15 -20
12 -27 -3 -7 -1 -16 5 -19 5 -4 9 -3 8 2 -4 21 2 43 11 43 5 0 6 -7 3 -17 -5
-12 -3 -14 8 -7 23 14 49 15 72 3 l22 -12 -20 24 c-11 13 -13 18 -4 11 9 -6
19 -9 22 -5 4 3 7 -1 7 -10 0 -19 15 -23 26 -5 4 7 3 8 -4 4 -17 -10 -15 -1 4
14 8 8 14 9 13 4 -3 -20 2 -34 12 -34 6 0 9 6 6 13 -3 9 2 13 16 12 11 -1 23
-7 25 -13 2 -7 13 -17 25 -23 19 -8 20 -8 7 3 -20 18 -24 39 -5 32 8 -4 15
-11 15 -17 0 -6 7 -2 15 9 13 16 14 16 9 2 -3 -10 -1 -18 5 -18 6 0 11 5 11
10 0 6 10 10 23 10 18 0 19 -2 7 -11 -12 -9 -12 -10 3 -5 10 3 21 6 23 6 3 0
2 6 -2 13 -5 8 -2 7 10 -2 12 -10 14 -16 5 -21 -8 -6 -8 -9 0 -14 10 -7 16 6
12 27 -1 5 4 7 11 4 7 -2 12 -10 10 -17 -2 -11 0 -11 13 0 14 12 18 11 26 -1
6 -10 9 -10 9 -1 0 6 5 12 11 12 5 0 8 -4 4 -9 -3 -5 -1 -13 5 -16 6 -4 9 -1
8 7 -2 9 7 12 27 11 22 -2 26 0 15 7 -11 7 -10 9 8 7 16 -1 21 -6 17 -16 -3
-9 -3 -12 1 -8 4 4 13 2 21 -4 9 -9 13 -8 13 0 0 6 -4 11 -10 11 -16 0 -12 27
5 33 15 6 32 -10 21 -20 -3 -4 -6 -1 -6 6 0 7 -4 9 -10 6 -6 -4 -5 -11 3 -19
10 -12 13 -12 20 1 6 9 13 11 20 5 15 -11 48 -12 41 -1 -2 5 -12 6 -22 3 -14
-5 -14 -4 -3 4 18 13 39 5 44 -16 4 -15 5 -15 6 1 0 9 6 17 12 17 6 0 9 -7 6
-15 -4 -8 -2 -17 4 -20 5 -4 9 -3 8 2 -1 4 -1 15 0 23 1 13 2 13 11 0 8 -13
10 -12 10 3 0 9 4 17 10 17 5 0 7 -7 4 -15 -4 -8 -2 -15 4 -15 5 0 13 7 16 16
5 12 10 13 19 6 8 -7 18 -7 27 -2 17 11 43 -7 33 -23 -3 -6 -1 -7 5 -3 6 4 9
14 6 24 -5 15 -4 15 6 -1 10 -15 14 -16 28 -5 9 7 13 8 10 3 -4 -6 2 -17 14
-24 11 -7 18 -9 15 -4 -3 5 3 15 15 22 11 7 18 9 15 4 -3 -5 3 -15 15 -22 16
-10 19 -10 12 1 -5 7 -9 20 -11 28 -1 11 2 11 11 -3 14 -18 61 -34 51 -16 -4
5 -10 7 -15 4 -5 -3 -11 -1 -15 4 -5 9 3 9 45 -1 8 -1 14 3 12 10 -1 8 2 11 8
7 6 -3 8 -11 5 -16 -4 -5 -3 -9 2 -10 4 0 16 -2 26 -4 9 -2 15 1 11 6 -3 5
-10 7 -15 4 -5 -4 -9 -2 -9 4 0 5 9 9 20 8 11 -1 20 -4 20 -7 0 -3 10 -11 23
-19 l22 -14 -20 22 c-14 16 -15 22 -5 19 8 -2 20 -9 26 -17 7 -10 13 -11 18
-3 3 6 17 9 31 6 13 -2 26 0 29 5 3 4 -6 7 -19 5 -14 -1 -27 2 -30 6 -3 5 4 7
16 5 13 -3 29 1 36 7 8 6 13 7 12 2 -3 -20 2 -34 12 -34 6 0 9 6 6 14 -4 10 0
12 14 9 10 -3 17 -8 15 -12 -3 -4 4 -12 15 -19 11 -7 19 -8 19 -2 0 5 -4 10
-9 10 -6 0 -9 9 -8 19 0 11 5 17 9 15 5 -3 6 -8 4 -12 -2 -4 2 -12 9 -19 11
-10 15 -10 19 0 3 9 8 8 16 -3 10 -13 11 -13 7 0 -2 8 -11 15 -19 14 -8 -1
-15 5 -15 12 0 10 6 10 29 -2 16 -8 26 -19 23 -24 -3 -5 -1 -11 4 -15 6 -3 8
3 6 15 -4 22 10 28 18 8 4 -10 6 -10 6 0 1 6 6 12 12 12 5 0 7 -4 4 -10 -3 -5
-1 -10 4 -10 6 0 11 5 11 10 0 6 5 10 11 10 6 0 8 -7 5 -17 -4 -10 -4 -14 0
-10 4 4 14 1 22 -6 9 -6 13 -7 10 -2 -3 6 0 16 8 23 8 7 14 9 14 4 0 -5 11
-14 25 -20 21 -10 26 -9 35 8 13 25 32 26 23 3 -5 -15 -3 -15 11 2 15 17 17
17 12 3 -3 -10 -1 -18 4 -18 6 0 10 9 10 19 0 11 5 23 11 27 7 4 9 0 5 -13 -4
-14 -1 -19 14 -20 11 -1 20 3 20 9 0 6 3 8 6 5 4 -3 15 -2 25 4 16 8 21 6 29
-13 9 -22 9 -22 9 -2 1 12 8 25 17 28 14 5 15 4 4 -9 -13 -16 -13 -16 30 -19
20 -2 39 16 32 29 -3 6 2 4 12 -4 9 -8 15 -20 12 -27 -3 -7 -1 -16 5 -19 5 -4
9 -3 8 2 -4 21 2 43 11 43 5 0 6 -7 3 -17 -5 -12 -3 -14 8 -7 23 14 49 15 72
3 l22 -12 -20 24 c-11 13 -13 18 -4 11 9 -6 19 -9 22 -5 4 3 7 -1 7 -10 0 -19
15 -23 26 -5 4 7 3 8 -4 4 -17 -10 -15 -1 4 14 8 8 14 9 13 4 -3 -20 2 -34 12
-34 6 0 9 6 6 13 -8 20 31 14 47 -8 10 -14 15 -15 21 -5 5 8 4 11 -2 7 -5 -3
-10 0 -10 7 0 8 6 12 14 9 7 -3 13 -10 13 -16 0 -6 7 -2 15 9 13 16 14 16 9 2
-7 -22 5 -23 20 -3 8 11 15 12 26 4 12 -9 11 -10 -5 -4 -17 5 -18 4 -7 -7 11
-11 17 -9 32 9 15 19 19 20 24 7 3 -8 2 -12 -4 -9 -6 3 -10 2 -10 -3 0 -12 48
-13 56 -1 3 5 -3 6 -13 3 -14 -5 -15 -4 -4 4 18 13 41 5 41 -14 0 -8 4 -14 10
-14 5 0 7 8 3 18 -3 9 -3 14 2 10 4 -4 15 -2 23 5 13 9 14 9 8 0 -4 -7 -3 -13
3 -13 6 0 8 -8 5 -17 -5 -17 -5 -17 6 0 6 9 8 22 5 27 -3 6 1 7 10 4 10 -4 13
-13 9 -26 -4 -14 -2 -18 5 -14 6 4 11 14 11 23 0 11 5 9 21 -8 11 -13 18 -19
15 -13 -3 7 1 15 10 18 8 3 12 11 8 17 -5 9 -11 6 -21 -6 -7 -11 -13 -14 -13
-9 0 6 5 15 12 22 9 9 16 8 30 -5 20 -18 25 -38 6 -27 -7 4 -8 3 -4 -5 12 -18
28 -2 20 21 -5 18 -4 19 9 7 8 -8 13 -17 11 -21 -2 -4 -1 -9 4 -12 4 -2 9 4 9
15 1 10 -2 19 -8 19 -5 0 -9 6 -9 13 0 6 11 1 23 -13 22 -25 23 -25 42 -8 10
10 23 18 29 18 6 0 4 -5 -4 -10 -17 -11 -17 -11 33 -15 27 -2 37 1 37 11 0 8
4 14 10 14 5 0 7 -7 4 -15 -4 -8 -1 -15 4 -15 6 0 14 10 17 21 6 17 9 19 16 8
13 -21 11 -41 -3 -33 -7 4 -9 3 -5 -2 16 -17 53 -12 54 9 2 19 2 19 -12 1 -12
-16 -14 -17 -15 -3 0 27 28 30 45 6 16 -22 16 -22 11 6 -3 16 -1 25 5 22 5 -4
7 -11 4 -16 -4 -5 -2 -9 4 -9 5 0 13 4 16 10 3 5 12 10 18 9 9 0 8 -2 -1 -6
-6 -2 -9 -9 -6 -14 3 -6 12 -5 22 3 10 8 13 9 9 1 -4 -6 -2 -15 4 -19 7 -4 9
-3 6 3 -4 6 2 18 12 27 15 13 18 14 18 1 0 -8 -4 -12 -9 -9 -4 3 -8 1 -8 -3 0
-5 10 -14 22 -22 21 -13 22 -13 9 2 -8 10 -9 17 -3 17 6 0 14 -5 17 -10 4 -6
11 -8 16 -4 5 3 7 10 3 15 -3 5 -9 7 -14 4 -5 -3 -11 -1 -15 4 -7 12 36 5 44
-7 3 -4 15 -7 26 -7 11 0 26 -4 34 -10 11 -7 13 -7 7 3 -10 17 5 15 34 -5 24
-16 24 -16 11 0 -8 10 -9 17 -3 17 6 0 14 -5 18 -11 4 -7 15 -1 30 17 13 16
24 25 23 19 -3 -22 2 -35 12 -35 6 0 9 6 6 14 -4 10 0 12 15 8 16 -4 19 -2 14
9 -4 8 2 4 13 -9 21 -25 42 -25 53 -2 5 11 7 9 7 -7 1 -13 6 -23 12 -23 5 0 8
4 5 8 -2 4 -1 14 5 22 7 13 9 12 9 -1 0 -23 23 -40 39 -30 9 6 10 11 2 15 -6
4 -11 2 -11 -4 0 -6 -4 -8 -10 -5 -18 11 -11 22 13 21 12 0 27 -8 34 -16 10
-13 12 -13 18 2 4 10 11 18 17 18 5 0 6 -4 3 -10 -3 -5 -1 -10 5 -10 6 0 8 -5
4 -12 -5 -7 -3 -8 5 -4 7 5 10 15 7 23 -3 8 -2 12 3 8 5 -3 12 1 15 7 4 7 4 3
2 -9 -2 -13 1 -26 6 -30 6 -3 8 -1 5 4 -4 6 1 17 10 24 14 12 15 11 8 -10 -5
-16 -4 -21 4 -17 6 4 11 14 11 23 0 11 5 9 21 -8 11 -13 18 -18 14 -11 -3 6
-1 12 5 12 6 0 8 5 4 11 -3 6 4 4 18 -5 22 -14 26 -14 48 1 13 9 20 12 17 6
-4 -6 -1 -13 6 -15 18 -7 38 2 31 14 -4 5 4 3 18 -6 22 -14 26 -14 48 1 13 9
21 12 17 7 -3 -6 3 -16 15 -23 11 -7 17 -8 13 -2 -3 6 -1 11 5 11 6 0 8 5 4
11 -3 6 4 4 17 -4 24 -15 62 -17 75 -4 3 3 -7 4 -24 2 -20 -3 -35 2 -44 13
-11 15 -11 15 2 6 8 -6 32 -10 53 -9 34 2 37 0 31 -19 -6 -21 -6 -21 9 -1 8
11 13 24 10 29 -4 5 -1 6 6 2 6 -4 9 -12 6 -17 -4 -5 -3 -9 2 -10 4 0 16 -2
26 -4 9 -2 15 1 11 6 -3 5 -10 7 -15 4 -5 -4 -9 -2 -9 4 0 5 9 9 20 8 19 -1
25 -10 21 -31 -1 -5 5 -4 13 3 8 7 20 10 25 7 5 -4 12 -2 15 3 4 5 -5 8 -19 6
-14 -1 -23 0 -20 4 4 3 20 6 36 7 25 0 28 -3 23 -20 -6 -21 -6 -21 9 -1 8 11
13 24 10 29 -4 5 -1 6 6 2 6 -4 9 -12 6 -17 -4 -5 -3 -9 2 -10 4 0 16 -2 26
-4 9 -2 15 1 11 6 -3 5 -10 7 -15 4 -5 -4 -9 -2 -9 4 0 5 9 9 20 8 19 -1 24
-10 21 -30 -1 -5 3 -6 9 -2 6 4 8 16 5 28 -4 15 -3 18 3 9 5 -7 13 -12 18 -11
23 4 33 -2 27 -18 -4 -11 -3 -14 5 -9 7 4 12 14 12 23 0 11 5 9 21 -8 11 -13
18 -18 14 -12 -3 7 -1 13 4 13 6 0 11 8 12 18 0 13 2 14 6 2 3 -8 11 -18 16
-22 12 -8 39 1 32 11 -2 4 2 8 10 8 8 0 12 -4 10 -8 -7 -10 20 -19 32 -11 5 4
13 14 16 22 4 12 6 12 6 -1 1 -25 25 -30 52 -12 12 9 20 12 16 7 -3 -6 3 -16
15 -23 11 -7 17 -8 13 -2 -3 6 -1 11 4 11 6 0 11 8 12 18 0 13 2 14 6 2 3 -8
11 -18 16 -22 12 -8 39 1 32 11 -2 4 2 8 10 8 8 0 12 -4 10 -8 -7 -10 20 -19
32 -11 5 4 13 14 16 22 4 12 6 12 6 -1 1 -25 25 -30 52 -12 12 9 20 12 16 7
-3 -6 3 -16 15 -23 11 -7 18 -9 15 -4 -3 5 3 15 15 22 11 7 17 8 13 2 -7 -12
-5 -13 38 -15 16 -1 30 1 33 5 2 4 -10 6 -27 4 -18 -3 -29 -1 -25 2 3 4 22 7
41 8 32 2 35 0 29 -19 -6 -21 -6 -21 9 -1 8 11 13 24 10 29 -4 5 -1 6 6 2 6
-4 9 -12 6 -17 -4 -5 -3 -9 2 -10 4 0 16 -2 26 -4 9 -2 15 1 11 6 -3 5 -10 7
-15 4 -5 -4 -9 -2 -9 4 0 5 9 9 20 8 19 -1 25 -10 21 -31 -1 -5 5 -4 13 3 8 7
20 10 25 7 5 -4 12 -2 15 3 4 5 -5 8 -19 6 -14 -1 -23 0 -20 4 4 3 20 6 36 7
25 0 28 -3 23 -20 -6 -21 -6 -21 9 -1 8 11 13 24 10 29 -4 5 -1 6 6 2 6 -4 9
-12 6 -17 -4 -5 -3 -9 2 -10 4 0 16 -2 26 -4 9 -2 15 1 11 6 -3 5 -10 7 -15 4
-5 -4 -9 -2 -9 4 0 5 9 9 20 8 11 -1 20 -5 20 -10 0 -5 8 -3 17 4 9 8 14 9 10
3 -9 -15 15 -25 33 -14 7 4 9 14 6 21 -5 9 -3 9 6 -1 20 -23 53 -47 44 -32 -4
7 -2 12 4 12 6 0 8 5 4 12 -4 6 3 4 15 -5 22 -15 56 -13 46 2 -2 4 2 8 10 8 8
0 12 -4 10 -8 -9 -13 24 -18 37 -5 11 11 16 11 26 0 12 -13 46 -8 37 5 -2 4 2
8 10 8 8 0 12 -3 10 -7 -2 -3 5 -12 17 -19 11 -7 17 -8 13 -2 -3 6 -1 11 5 11
6 0 8 5 4 11 -3 6 4 4 18 -5 22 -14 26 -14 48 1 13 9 20 12 17 6 -4 -6 -1 -13
6 -15 18 -7 38 2 31 14 -4 5 4 3 18 -6 22 -14 26 -14 48 1 13 9 21 12 17 7 -3
-6 3 -16 15 -23 11 -7 17 -8 13 -2 -3 6 -1 11 5 11 6 0 8 5 4 11 -3 6 4 4 17
-4 24 -15 62 -17 75 -4 3 3 -7 4 -24 2 -20 -3 -35 2 -44 13 -11 15 -11 15 2 6
8 -6 32 -10 53 -9 34 2 37 0 31 -19 -6 -21 -6 -21 9 -1 8 11 13 24 10 29 -4 5
-1 6 6 2 6 -4 9 -12 6 -17 -4 -5 -3 -9 2 -10 4 0 16 -2 26 -4 9 -2 15 1 11 6
-3 5 -10 7 -15 4 -5 -4 -9 -2 -9 4 0 5 9 9 20 8 19 -1 25 -10 21 -31 -1 -5 5
-4 13 3 8 7 20 10 25 7 5 -4 12 -2 15 3 4 5 -5 8 -19 6 -14 -1 -23 0 -20 4 4
3 20 6 36 7 25 0 28 -3 23 -20 -6 -21 -6 -21 9 -1 8 11 13 24 10 29 -4 5 -1 6
6 2 6 -4 9 -12 6 -17 -4 -5 -3 -9 2 -10 4 0 16 -2 26 -4 9 -2 15 1 11 6 -3 5
-10 7 -15 4 -5 -4 -9 -2 -9 4 0 5 9 9 20 8 19 -1 24 -10 21 -30 -1 -5 3 -6 9
-2 6 4 8 16 5 28 -4 15 -3 18 3 9 5 -7 13 -12 18 -11 23 4 33 -2 27 -18 -4
-11 -3 -14 5 -9 7 4 12 14 12 23 0 11 5 9 21 -8 11 -13 18 -18 14 -11 -3 6 -1
12 4 12 6 0 11 8 12 18 0 13 2 14 6 2 3 -8 11 -18 16 -22 12 -8 39 1 32 11 -2
4 2 8 10 8 8 0 12 -4 10 -8 -7 -10 20 -19 32 -11 5 4 13 14 16 22 4 12 6 12 6
-1 1 -25 25 -30 52 -12 12 9 20 12 16 7 -3 -6 3 -16 15 -23 11 -7 17 -8 13 -2
-3 6 -1 11 4 11 6 0 11 8 12 18 0 13 2 14 6 2 3 -8 11 -18 16 -22 12 -8 39 1
32 11 -2 4 2 8 10 8 8 0 12 -4 10 -8 -7 -10 20 -19 32 -11 5 4 13 14 16 22 4
12 6 12 6 -1 1 -25 25 -30 52 -12 12 9 20 12 16 7 -3 -6 3 -16 15 -23 11 -7
18 -9 15 -4 -3 5 3 15 15 22 11 7 17 8 13 2 -7 -12 -5 -13 38 -15 16 -1 30 1
33 5 2 4 -10 6 -27 4 -18 -3 -29 -1 -25 2 3 4 22 7 41 8 32 2 35 0 29 -19 -6
-21 -6 -21 9 -1 8 11 13 24 10 29 -4 5 -1 6 6 2 6 -4 9 -12 6 -17 -4 -5 -3 -9
2 -10 4 0 16 -2 26 -4 9 -2 15 1 11 6 -3 5 -10 7 -15 4 -5 -4 -9 -2 -9 4 0 5
9 9 20 8 19 -1 25 -10 21 -31 -1 -5 5 -4 13 3 8 7 20 10 25 7 5 -4 12 -2 15 3
4 5 -5 8 -19 6 -14 -1 -23 0 -20 4 4 3 20 6 36 7 25 0 28 -3 23 -20 -6 -21 -6
-21 9 -1 8 11 13 24 10 29 -4 5 -1 6 6 2 6 -4 9 -12 6 -17 -4 -5 -3 -9 2 -10
4 0 16 -2 26 -4 9 -2 15 1 11 6 -3 5 -10 7 -15 4 -5 -4 -9 -2 -9 4 0 5 9 9 20
8 11 -1 20 -5 20 -10 0 -5 8 -3 17 4 9 8 14 9 10 3 -9 -15 15 -25 33 -14 7 4
9 14 6 21 -5 9 -3 9 6 -1 20 -23 53 -47 44 -32 -4 7 -2 12 4 12 6 0 8 5 4 12
-4 6 3 4 15 -5 23 -15 56 -13 46 3 -3 5 0 12 6 16 8 4 9 3 5 -4 -3 -6 2 -16
13 -22 17 -9 20 -8 14 6 -4 10 -1 15 8 14 29 -4 40 0 33 12 -6 9 -3 9 9 -1 9
-7 24 -11 32 -7 9 3 14 2 10 -3 -3 -5 3 -8 12 -7 10 2 22 -2 26 -8 6 -7 7 -6
4 4 -2 8 -10 14 -16 12 -7 -1 -10 2 -6 8 4 6 13 7 23 1 9 -5 19 -10 22 -12 3
-1 16 3 29 11 23 12 24 13 6 26 -16 12 -15 13 14 9 18 -2 40 -10 48 -17 15
-12 15 -11 5 9 -17 30 -15 41 3 17 14 -18 14 -18 15 6 0 20 2 22 10 10 8 -13
11 -13 22 -1 11 11 11 13 -1 6 -9 -5 -12 -4 -7 3 5 9 13 9 29 0 20 -10 21 -10
8 6 -12 14 -12 16 3 10 9 -4 16 -1 16 6 0 10 3 10 15 0 9 -7 18 -10 22 -6 3 3
2 6 -4 6 -6 0 -13 7 -17 15 -5 13 -2 14 15 4 17 -9 20 -8 14 2 -6 8 -4 11 7 7
8 -4 15 0 15 8 0 7 -4 11 -8 8 -4 -2 -10 0 -13 5 -4 5 5 8 19 6 29 -3 41 10
28 28 -4 7 0 4 10 -6 17 -19 17 -19 17 1 0 11 8 26 18 33 15 13 16 12 4 -3 -9
-11 -10 -18 -2 -23 6 -4 10 -3 9 2 -5 19 23 65 41 70 11 3 23 16 26 29 3 13
10 21 15 18 5 -3 9 2 9 11 0 10 5 13 13 9 8 -5 7 -2 -2 10 -13 15 -12 18 7 22
11 4 18 12 16 18 -3 7 3 19 13 27 16 13 17 12 4 -4 -7 -9 -9 -17 -5 -17 5 0
15 9 22 21 8 12 9 18 3 15 -16 -10 -19 27 -3 46 7 9 14 22 16 30 1 7 5 19 9
25 5 7 6 17 2 22 -3 6 4 8 15 6 20 -4 24 4 22 53 -1 12 3 20 8 17 5 -3 12 0
16 7 4 7 4 10 -1 6 -9 -9 -36 23 -29 34 3 5 11 8 17 8 7 0 6 -4 -3 -10 -8 -5
-10 -10 -4 -10 20 0 23 12 9 32 -15 23 -9 52 9 41 6 -3 3 2 -6 13 -17 19 -17
21 0 38 16 18 16 19 -2 12 -16 -5 -17 -4 -6 9 7 8 17 12 24 8 6 -4 5 1 -3 10
-15 19 -26 23 -15 5 4 -7 3 -8 -4 -4 -6 4 -9 13 -6 21 4 8 10 12 16 9 5 -3 4
3 -3 14 -10 16 -10 24 -1 35 10 11 9 17 -4 28 -14 12 -14 14 2 26 13 9 14 13
4 13 -10 0 -11 3 -3 11 6 6 9 18 6 27 -5 11 -3 13 8 7 8 -5 7 -1 -3 12 -21 23
-24 38 -5 27 7 -5 6 0 -3 11 -14 17 -13 18 5 12 17 -6 16 -4 -4 11 -18 15 -21
21 -11 27 9 6 11 4 5 -5 -5 -8 -4 -11 3 -6 6 4 8 14 5 23 -5 12 -3 14 8 8 8
-5 6 0 -4 12 -14 16 -15 22 -5 26 10 4 10 6 1 6 -7 1 -13 6 -13 12 0 6 8 8 18
5 11 -4 8 1 -7 12 -18 15 -21 21 -11 27 9 6 11 4 5 -5 -6 -9 -4 -11 4 -5 9 5
10 10 2 18 -13 13 -15 31 -3 23 5 -3 9 1 9 9 0 8 -4 12 -9 9 -12 -7 -10 10 2
22 8 8 6 15 -5 24 -14 12 -14 15 2 33 17 20 17 20 -1 13 -16 -5 -17 -4 -6 9 7
8 17 12 24 8 6 -3 3 3 -6 14 -20 21 -24 38 -8 28 6 -3 10 -2 10 3 0 6 -7 13
-16 16 -14 5 -14 9 -3 23 15 17 20 85 7 77 -10 -7 -10 10 0 20 11 12 9 30 -7
42 -11 9 -12 12 -1 19 9 6 11 4 5 -6 -7 -12 -5 -12 6 -1 12 11 12 14 0 21 -10
6 -10 13 -3 28 13 23 11 46 -6 66 -10 12 -10 17 -1 23 8 4 9 3 5 -4 -4 -7 -2
-12 3 -12 17 0 13 18 -6 29 -11 6 -13 11 -5 11 7 0 10 5 7 10 -3 5 -1 10 4 10
6 0 11 5 11 11 0 5 -4 7 -10 4 -5 -3 -10 -2 -10 4 0 5 6 12 12 14 10 4 10 6 1
6 -7 1 -13 8 -13 17 0 9 5 12 13 8 7 -5 6 0 -3 11 -14 17 -13 18 5 11 18 -7
18 -6 -2 13 -21 20 -22 58 -2 45 5 -3 9 0 9 5 0 6 -4 11 -10 11 -5 0 -10 5
-10 11 0 5 6 7 13 3 10 -6 10 -4 0 7 -7 7 -13 17 -13 22 0 4 6 5 13 1 6 -4 4
1 -5 12 -17 19 -17 21 0 38 9 11 11 16 5 12 -16 -9 -17 6 -2 21 8 8 7 13 -2
18 -8 6 -10 4 -4 -5 5 -8 4 -11 -3 -6 -6 4 -9 13 -6 21 4 8 10 12 16 9 5 -3 4
3 -3 14 -10 16 -10 24 -1 35 10 11 9 17 -4 28 -14 12 -14 14 2 26 13 9 14 13
4 13 -10 0 -11 3 -3 11 6 6 9 18 6 27 -5 11 -3 13 8 7 8 -5 7 -1 -3 12 -21 23
-24 38 -5 27 7 -5 6 0 -3 11 -14 17 -13 18 5 12 17 -6 16 -4 -4 11 -18 15 -21
21 -11 27 9 6 11 4 5 -5 -5 -8 -4 -11 3 -6 6 4 8 14 5 23 -5 12 -3 14 8 8 8
-5 6 0 -4 12 -14 16 -15 22 -5 26 10 4 10 6 1 6 -7 1 -13 6 -13 12 0 6 8 8 18
5 11 -4 8 1 -7 12 -18 15 -21 21 -11 27 9 6 11 4 5 -5 -6 -9 -4 -11 4 -5 9 5
10 10 2 18 -13 13 -15 31 -3 23 5 -3 9 1 9 9 0 8 -4 12 -9 9 -12 -7 -10 10 2
22 8 8 6 15 -5 24 -14 12 -14 15 2 33 17 20 17 20 -1 13 -16 -5 -17 -4 -6 9 7
8 17 12 24 8 6 -3 3 3 -6 14 -21 23 -24 37 -5 27 6 -4 4 1 -5 12 -17 19 -17
21 0 38 9 11 11 15 3 11 -9 -5 -12 -3 -9 6 3 8 11 13 17 11 7 -1 10 2 6 8 -3
6 -11 8 -16 5 -5 -4 -9 -2 -9 4 0 5 4 13 10 16 6 4 3 17 -7 33 -15 22 -15 25
-2 15 13 -10 16 -10 16 2 0 8 -5 15 -11 15 -6 0 -6 4 1 11 6 6 9 18 6 27 -5
11 -3 13 8 7 8 -5 7 -1 -3 12 -21 23 -24 38 -5 27 7 -5 6 0 -3 11 -14 17 -13
18 5 12 19 -7 19 -6 2 7 -11 8 -14 17 -8 20 6 4 7 14 4 23 -5 12 -3 14 8 8 8
-5 7 -1 -3 12 -21 23 -24 38 -5 27 7 -5 6 0 -3 11 -14 17 -13 18 5 11 18 -7
18 -5 -3 14 -26 24 -28 32 -7 24 11 -5 13 -2 8 12 -5 13 -3 15 8 9 11 -7 12
-6 2 7 -7 8 -9 19 -5 23 4 5 1 5 -5 1 -16 -9 -17 10 -3 19 8 5 7 12 -2 23 -11
13 -10 15 5 9 11 -4 16 -3 12 3 -3 6 -14 10 -23 10 -13 0 -13 2 4 16 16 13 16
15 2 10 -10 -3 -18 -1 -18 4 0 9 15 14 33 11 5 -1 6 3 2 9 -3 6 -11 8 -16 5
-5 -4 -9 -2 -9 4 0 5 5 13 10 16 8 5 7 12 -2 23 -11 13 -10 15 5 9 11 -4 16
-3 12 3 -3 6 -14 10 -23 10 -13 0 -13 2 4 16 16 13 16 15 2 10 -10 -3 -18 -1
-18 4 0 9 15 14 33 11 5 -1 6 3 2 9 -3 6 -11 8 -16 5 -5 -4 -9 -2 -9 4 0 5 5
13 10 16 8 5 7 11 -1 21 -9 11 -8 14 2 15 8 0 5 4 -6 9 l-20 9 20 0 c15 1 17
3 6 10 -9 6 -10 11 -3 15 6 4 8 14 5 23 -5 12 -3 14 8 8 8 -5 7 -1 -3 12 -21
23 -24 38 -5 27 7 -5 6 0 -3 11 -14 17 -13 18 5 12 19 -7 19 -6 2 7 -11 8 -14
17 -8 20 6 4 7 14 4 23 -5 12 -3 14 8 8 8 -5 7 -1 -3 12 -21 23 -24 38 -5 27
7 -5 6 0 -3 11 -14 17 -13 18 5 12 19 -7 19 -6 2 7 -11 8 -14 17 -8 20 6 4 7
14 4 23 -5 12 -3 14 8 8 11 -7 12 -6 2 7 -7 8 -9 19 -5 23 4 5 1 5 -5 1 -16
-9 -17 10 -3 19 8 5 7 12 -2 23 -11 13 -10 15 5 9 11 -4 16 -3 12 3 -3 6 -14
10 -23 10 -13 0 -13 2 4 16 16 13 16 15 2 10 -10 -3 -18 -1 -18 4 0 9 15 14
33 11 5 -1 6 3 2 9 -3 6 -11 8 -16 5 -5 -4 -9 -2 -9 4 0 5 5 13 10 16 8 5 7
12 -2 23 -11 13 -10 15 5 9 11 -4 16 -3 12 3 -3 6 -14 10 -23 10 -13 0 -13 2
4 16 16 13 16 15 2 10 -10 -3 -18 -1 -18 4 0 9 15 14 33 11 5 -1 6 3 2 9 -3 6
-11 8 -16 5 -5 -4 -9 -2 -9 4 0 5 5 13 10 16 8 5 7 11 -1 21 -9 11 -8 14 2 15
8 0 5 4 -6 9 l-20 9 20 0 c15 1 17 3 6 10 -9 6 -10 11 -3 15 6 4 8 14 5 23 -5
12 -3 14 8 8 8 -5 7 -1 -3 12 -21 23 -24 38 -5 27 7 -5 6 0 -3 11 -14 17 -13
18 5 12 19 -7 19 -6 2 7 -11 8 -14 17 -8 20 6 4 7 14 4 23 -5 12 -3 14 8 8 8
-5 7 -1 -3 12 -21 23 -24 38 -5 27 7 -5 6 0 -3 11 -14 17 -13 18 5 12 19 -7
19 -6 2 7 -11 8 -14 17 -8 20 6 4 7 14 4 23 -5 12 -3 14 8 8 11 -7 12 -6 2 7
-7 8 -9 19 -5 23 4 5 1 5 -5 1 -16 -9 -17 10 -3 19 8 5 7 12 -2 23 -11 13 -10
15 5 9 11 -4 16 -3 12 3 -3 6 -14 10 -23 10 -13 0 -13 2 4 16 16 13 16 15 2
10 -10 -3 -18 -1 -18 4 0 9 15 14 33 11 5 -1 6 3 2 9 -3 6 -11 8 -16 5 -5 -4
-9 -2 -9 4 0 5 5 13 10 16 8 5 7 12 -2 23 -11 13 -10 15 5 9 11 -4 16 -3 12 3
-3 6 -14 10 -23 10 -14 0 -14 1 1 13 16 12 18 39 4 53 -11 11 -8 26 3 19 6 -3
10 -1 10 4 0 6 -4 11 -10 11 -5 0 -10 7 -10 15 0 8 5 15 12 15 6 0 4 6 -7 13
-14 11 -15 16 -5 22 9 6 11 4 5 -6 -7 -12 -5 -12 6 -1 12 11 12 14 0 21 -10 6
-10 13 -3 28 13 23 11 46 -6 66 -10 12 -10 17 -1 23 8 4 9 3 5 -4 -4 -7 -2
-12 3 -12 17 0 13 18 -6 29 -11 6 -13 11 -5 11 7 0 10 5 7 10 -3 6 -1 10 4 10
6 0 11 5 11 11 0 5 -4 7 -10 4 -5 -3 -10 -2 -10 4 0 5 6 12 12 14 10 4 10 6 1
6 -7 1 -13 8 -13 17 0 9 5 12 13 8 7 -5 6 0 -3 11 -14 17 -13 18 5 12 19 -7
19 -6 3 7 -21 15 -24 31 -5 20 9 -6 9 -4 0 7 -15 16 -17 33 -3 24 6 -3 10 -2
10 4 0 5 -6 11 -12 14 -10 3 -10 9 1 27 11 20 11 24 -4 32 -15 9 -15 11 1 29
16 18 16 20 -1 39 -16 18 -16 20 -2 26 16 6 18 36 4 50 -11 11 -8 26 3 19 6
-3 10 -1 10 4 0 6 -4 11 -10 11 -5 0 -10 7 -10 15 0 8 5 15 12 15 6 0 4 6 -7
13 -14 11 -15 16 -5 22 9 6 11 4 5 -6 -7 -12 -5 -12 6 -1 10 9 10 15 3 20 -13
8 -15 42 -2 42 4 0 8 5 8 11 0 5 -4 7 -10 4 -5 -3 -10 -2 -10 4 0 5 6 12 12
14 10 4 10 6 1 6 -7 1 -13 8 -13 17 0 8 5 12 10 9 6 -3 10 -1 10 4 0 6 -5 11
-12 11 -6 0 -8 3 -5 7 4 3 2 12 -4 19 -7 8 -6 14 2 20 8 5 9 3 4 -6 -5 -9 -4
-11 3 -6 14 8 11 38 -6 59 -10 11 -9 17 1 26 8 6 18 7 23 3 4 -4 2 1 -5 11 -7
9 -10 17 -5 17 4 0 3 5 -4 12 -15 15 -16 32 -2 23 6 -3 10 -2 10 4 0 5 -6 11
-12 14 -10 3 -10 9 1 27 11 20 11 24 -4 32 -15 9 -15 11 1 29 16 18 16 20 -1
39 -16 18 -16 20 -2 26 16 6 18 36 4 50 -11 11 -8 26 3 19 5 -3 10 -1 10 4 0
6 -4 11 -10 11 -5 0 -10 7 -10 15 0 8 5 15 12 15 6 0 4 6 -7 13 -14 11 -15 16
-5 22 9 6 11 4 5 -6 -7 -12 -5 -12 6 -1 10 9 10 15 3 20 -13 8 -15 42 -2 42 4
0 8 5 8 11 0 5 -4 7 -10 4 -5 -3 -10 -2 -10 4 0 5 6 12 12 14 10 4 10 6 1 6
-7 1 -13 8 -13 17 0 8 5 12 10 9 6 -3 10 -1 10 4 0 6 -5 11 -12 11 -6 0 -8 3
-5 7 4 3 2 12 -4 19 -7 8 -6 14 2 20 8 5 9 3 4 -6 -5 -9 -4 -11 3 -6 14 8 11
38 -6 59 -10 11 -9 17 1 26 8 6 18 7 23 3 4 -4 2 1 -5 11 -7 9 -10 17 -5 17 4
0 3 5 -4 12 -15 15 -16 32 -2 23 6 -3 10 -2 10 4 0 5 -6 11 -12 14 -10 3 -10
9 1 27 11 20 11 24 -4 32 -15 9 -15 11 1 29 16 18 16 20 -1 39 -16 18 -16 20
-2 26 16 6 18 36 4 50 -11 11 -8 26 3 19 6 -3 10 -1 10 4 0 6 -4 11 -10 11 -5
0 -10 7 -10 15 0 8 5 15 12 15 6 0 4 6 -7 13 -14 11 -15 16 -5 22 9 6 11 4 5
-6 -7 -12 -5 -12 6 -1 10 9 10 15 3 20 -13 8 -15 42 -2 42 4 0 8 5 8 11 0 5
-4 7 -10 4 -5 -3 -10 -2 -10 4 0 5 6 12 13 14 9 4 9 6 0 6 -7 1 -13 8 -13 17
0 8 5 12 10 9 6 -3 10 -1 10 4 0 6 -5 11 -12 11 -6 0 -8 3 -5 7 4 3 2 12 -4
19 -7 8 -6 14 2 20 8 5 9 3 4 -6 -5 -9 -4 -11 3 -6 14 8 11 38 -6 59 -10 11
-9 17 1 26 8 6 18 7 23 3 4 -4 2 1 -5 11 -7 9 -10 17 -5 17 4 0 3 5 -4 12 -15
15 -16 32 -2 23 6 -3 10 -2 10 4 0 5 -6 11 -12 14 -10 3 -10 9 1 27 11 20 11
24 -4 32 -15 9 -15 11 1 29 16 18 16 20 -1 39 -16 18 -16 20 -2 26 16 6 18 36
4 50 -11 11 -8 26 3 19 6 -3 10 -1 10 4 0 6 -4 11 -10 11 -5 0 -10 7 -10 15 0
8 5 15 12 15 6 0 4 6 -7 13 -14 11 -15 16 -5 22 9 6 11 4 5 -6 -7 -12 -5 -12
6 -1 10 9 10 15 3 20 -13 8 -15 42 -2 42 4 0 8 5 8 11 0 5 -5 7 -10 4 -5 -3
-10 -2 -10 4 0 5 6 12 13 14 9 4 9 6 0 6 -7 1 -13 8 -13 17 0 8 5 12 10 9 6
-3 10 -1 10 4 0 6 -5 11 -12 11 -6 0 -8 3 -5 7 4 3 2 12 -4 19 -7 8 -6 14 2
20 8 5 9 3 4 -6 -5 -9 -4 -11 3 -6 14 8 11 38 -6 59 -10 11 -9 17 1 26 8 6 18
7 23 3 4 -4 2 1 -5 11 -7 9 -10 17 -5 17 4 0 3 5 -4 12 -15 15 -16 32 -2 23 5
-3 10 -2 10 4 0 5 -6 11 -12 14 -10 3 -10 9 1 27 11 20 11 24 -4 32 -15 9 -15
11 1 29 16 18 16 20 -1 39 -16 18 -16 20 -2 26 16 6 18 36 4 50 -11 11 -8 26
3 19 6 -3 10 -1 10 4 0 6 -4 11 -10 11 -5 0 -10 7 -10 15 0 8 5 15 12 15 6 0
4 6 -7 13 -14 11 -15 16 -5 22 9 6 11 4 5 -6 -7 -12 -5 -12 6 -1 10 9 10 15 3
20 -13 8 -15 42 -2 42 4 0 8 5 8 11 0 5 -5 7 -10 4 -5 -3 -10 -2 -10 4 0 5 6
12 13 14 10 4 10 6 0 6 -7 1 -13 8 -13 17 0 8 5 12 10 9 6 -3 10 -1 10 4 0 6
-5 11 -12 11 -6 0 -8 3 -5 7 4 3 2 12 -4 19 -7 8 -6 14 2 20 8 5 9 3 4 -6 -5
-9 -4 -11 3 -6 14 8 11 38 -6 59 -10 11 -9 17 1 26 8 6 18 7 23 3 4 -4 2 1 -5
11 -7 9 -10 17 -5 17 4 0 3 5 -4 12 -15 15 -16 32 -2 23 5 -3 10 -2 10 4 0 5
-6 11 -12 14 -10 3 -10 9 1 27 11 20 11 24 -4 32 -15 9 -15 11 1 29 16 18 16
20 -1 39 -16 18 -16 20 -2 26 16 6 18 36 4 50 -11 11 -8 26 3 19 6 -3 10 -1
10 4 0 6 -4 11 -10 11 -5 0 -10 7 -10 15 0 8 5 15 12 15 6 0 4 6 -7 13 -14 11
-15 16 -5 22 9 6 11 4 5 -6 -7 -12 -5 -12 6 -1 10 9 10 15 3 20 -13 8 -15 42
-2 42 4 0 8 5 8 11 0 5 -4 7 -10 4 -5 -3 -10 -2 -10 4 0 5 6 12 13 14 9 4 9 6
0 6 -7 1 -13 8 -13 17 0 9 5 12 13 8 10 -6 10 -4 0 7 -19 20 -16 33 5 18 9 -7
7 -2 -6 13 -17 19 -20 28 -11 33 8 5 10 4 5 -3 -4 -7 -3 -12 2 -12 5 0 8 22 8
49 -1 39 -4 47 -14 39 -7 -6 -15 -8 -19 -4 -3 3 -2 6 4 6 17 0 23 40 8 46 -8
3 -11 12 -8 20 4 10 0 12 -13 7 -17 -6 -17 -4 1 13 12 10 19 18 17 17 -6 -3
-32 24 -32 32 0 3 5 3 11 0 6 -4 5 2 -2 13 -7 12 -17 18 -21 16 -4 -3 -8 2 -8
11 0 10 5 13 12 9 6 -4 8 -3 4 4 -3 6 -15 9 -26 7 -11 -2 -20 0 -20 6 0 5 7 9
16 9 12 0 10 5 -9 20 -17 14 -24 26 -20 37 5 12 2 15 -10 10 -9 -3 -16 -3 -16
1 5 25 -16 72 -31 72 -27 0 -31 12 -13 32 16 18 16 18 -3 12 -10 -4 -22 -12
-26 -18 -4 -6 -6 -1 -5 11 0 12 6 19 12 15 5 -3 4 2 -4 11 -18 22 -32 22 -25
0 5 -15 4 -15 -4 -3 -8 10 -7 18 0 28 9 10 8 12 -3 10 -8 -2 -13 3 -11 11 3
12 1 12 -14 0 -12 -9 -15 -9 -10 -1 4 7 2 12 -4 12 -6 0 -8 5 -4 13 5 7 0 6
-11 -3 -11 -9 -16 -10 -11 -2 4 7 2 12 -4 12 -6 0 -8 5 -4 13 6 9 5 9 -7 0
-14 -11 -16 -9 -14 17 1 16 -2 27 -7 24 -5 -4 -7 -12 -4 -20 3 -7 0 -16 -6
-20 -6 -4 -8 -3 -4 4 3 6 2 13 -4 17 -6 4 -7 12 -3 18 5 9 3 9 -8 1 -8 -5 -20
-9 -26 -8 -7 1 -19 2 -25 3 -9 1 -9 4 2 11 9 5 19 5 25 0 8 -6 12 -5 12 4 0 8
-12 12 -33 11 -23 -1 -31 2 -27 12 3 7 0 13 -6 13 -6 0 -11 -4 -11 -10 0 -5
-5 -10 -10 -10 -6 0 -10 6 -8 13 2 6 -2 12 -7 12 -5 0 -9 -7 -8 -15 2 -8 -3
-4 -9 8 -10 20 -18 23 -49 20 -21 -2 -35 0 -33 3 6 11 -24 31 -36 24 -5 -3
-10 -1 -10 6 0 6 -8 9 -19 6 -10 -2 -26 0 -36 6 -12 6 -16 6 -11 -1 3 -6 2
-13 -4 -17 -5 -3 -10 2 -11 12 0 11 -3 13 -6 5 -4 -10 -10 -9 -30 4 -14 9 -23
12 -19 6 3 -5 -1 -12 -9 -16 -8 -3 -17 0 -21 6 -5 7 -2 8 7 3 12 -8 12 -6 0 8
-14 18 -26 23 -16 8 3 -5 0 -13 -6 -17 -6 -3 -15 0 -20 7 -6 10 -9 11 -9 2 0
-7 -5 -13 -11 -13 -5 0 -7 6 -4 13 4 6 0 4 -8 -5 -8 -10 -17 -18 -20 -18 -4 0
-4 8 0 18 6 16 5 16 -14 -1 -13 -11 -23 -14 -27 -8 -4 6 -13 8 -21 4 -9 -3
-23 1 -32 8 -15 12 -16 12 -10 -5 7 -18 6 -18 -19 -1 -20 13 -26 14 -22 3 4
-9 -1 -14 -12 -14 -10 0 -17 4 -14 7 2 4 0 10 -6 14 -5 3 -10 1 -10 -4 0 -6
-9 -11 -21 -11 -13 0 -18 4 -13 13 6 9 5 9 -7 0 -12 -10 -18 -10 -29 0 -10 10
-12 8 -6 -7 6 -18 5 -18 -20 -1 -20 13 -26 14 -22 3 4 -9 -1 -14 -12 -14 -10
0 -17 4 -14 7 2 4 0 10 -6 14 -5 3 -10 1 -10 -4 0 -6 -9 -11 -21 -11 -11 0
-18 4 -15 8 3 5 -1 9 -9 9 -8 0 -12 -4 -9 -9 3 -4 1 -8 -5 -8 -5 0 -12 6 -14
13 -3 7 -6 5 -6 -5 -1 -10 -6 -18 -12 -18 -5 0 -7 5 -4 10 9 14 -9 12 -24 -2
-10 -11 -11 -10 -6 5 8 19 -10 24 -18 5 -4 -10 -8 -9 -16 2 -6 8 -11 10 -11 4
0 -7 -7 -14 -15 -18 -8 -3 -14 -2 -14 2 3 19 -2 22 -16 8 -15 -15 -50 -12 -40
3 2 4 -2 8 -10 8 -8 0 -12 -4 -10 -8 3 -4 -2 -9 -10 -13 -8 -3 -17 0 -21 6 -5
7 -2 8 7 3 12 -7 12 -5 1 6 -11 12 -14 12 -22 -1 -8 -13 -11 -12 -25 5 -12 16
-14 17 -9 3 3 -10 1 -18 -5 -18 -6 0 -11 6 -11 13 0 8 -4 7 -10 -3 -8 -12 -11
-13 -19 -1 -7 11 -9 11 -13 0 -3 -8 -9 -10 -19 -3 -20 13 -32 12 -45 -5 -9
-11 -12 -12 -19 -1 -6 9 -4 11 6 5 8 -5 10 -4 6 0 -10 11 -39 16 -32 5 3 -4
-2 -10 -10 -14 -8 -3 -17 0 -21 6 -5 7 -2 8 7 3 12 -7 12 -5 1 6 -11 12 -14
12 -22 -1 -8 -13 -11 -12 -25 5 -12 16 -14 17 -9 3 4 -13 1 -18 -11 -18 -10 0
-13 5 -9 12 4 6 -3 4 -16 -5 -22 -15 -25 -15 -44 1 -11 9 -16 11 -12 5 9 -17
-6 -17 -23 0 -12 10 -13 9 -7 -7 6 -18 5 -18 -20 -1 -26 17 -27 17 -20 0 6
-17 5 -17 -20 0 -22 14 -26 14 -21 3 4 -11 -1 -14 -19 -10 -14 2 -21 9 -17 16
4 7 1 7 -8 -1 -12 -10 -18 -10 -29 0 -10 10 -12 8 -6 -7 6 -18 5 -18 -20 -1
-26 17 -27 17 -20 0 6 -17 5 -17 -20 0 -22 14 -26 14 -21 3 4 -11 -1 -14 -19
-10 -13 2 -21 8 -18 13 6 10 -25 0 -43 -13 -7 -6 -14 -4 -19 3 -4 7 -3 9 3 6
5 -3 10 0 10 8 0 10 -4 12 -12 5 -7 -5 -16 -6 -20 -2 -5 4 -5 2 -2 -5 11 -18
-16 -22 -37 -4 -11 9 -17 11 -13 5 4 -7 -5 -11 -23 -12 -17 0 -30 5 -30 11 0
8 -3 8 -9 -1 -9 -14 -32 -13 -43 3 -4 6 -8 2 -8 -7 0 -10 -4 -18 -10 -18 -5 0
-9 5 -7 11 1 6 -4 14 -12 17 -10 3 -12 0 -8 -12 5 -13 3 -15 -11 -8 -9 5 -23
7 -31 4 -8 -3 -11 0 -7 7 4 6 3 11 -2 11 -6 0 -13 -7 -16 -16 -6 -15 -9 -15
-32 1 -15 9 -23 12 -20 6 4 -6 3 -11 -3 -11 -5 0 -13 5 -17 12 -5 7 -11 5 -21
-7 -13 -18 -13 -18 -13 0 0 18 0 18 -13 0 -11 -14 -16 -15 -22 -5 -5 9 -4 11
3 6 17 -10 15 -1 -4 14 -8 8 -14 9 -13 4 3 -19 -1 -34 -11 -34 -5 0 -7 6 -4
13 3 8 -3 13 -15 13 -16 0 -18 -3 -8 -15 9 -12 6 -12 -15 2 -16 10 -29 13 -33
7 -3 -6 -11 -10 -16 -10 -6 0 -8 4 -4 9 3 5 1 13 -5 16 -6 4 -10 3 -9 -2 3
-18 -2 -33 -11 -33 -5 0 -7 6 -4 13 3 9 -4 13 -21 13 -16 0 -24 -5 -21 -12 3
-8 -1 -11 -9 -7 -8 3 -13 8 -10 12 2 4 -3 8 -11 8 -8 0 -13 -6 -10 -13 3 -8 0
-11 -9 -7 -8 3 -13 8 -10 12 2 4 -3 8 -11 8 -8 0 -13 -6 -10 -13 3 -8 0 -11
-9 -7 -8 3 -13 8 -10 12 2 4 -3 8 -11 8 -8 0 -13 -6 -10 -13 3 -7 -2 -11 -12
-9 -9 2 -21 4 -25 4 -5 1 -6 5 -3 9 3 5 -2 9 -10 9 -8 0 -13 -6 -10 -13 3 -8
0 -11 -9 -7 -8 3 -13 8 -10 12 2 4 -3 8 -11 8 -8 0 -13 -6 -10 -13 3 -8 0 -11
-9 -7 -8 3 -13 8 -10 12 2 4 -3 8 -11 8 -8 0 -13 -6 -10 -13 3 -8 0 -11 -9 -7
-8 3 -12 10 -9 17 3 6 -1 3 -9 -7 -13 -16 -15 -16 -21 -1 -5 13 -9 14 -20 5
-11 -9 -15 -9 -19 1 -4 10 -6 10 -6 1 -1 -7 -8 -13 -17 -13 -9 0 -12 5 -8 13
6 10 4 10 -7 0 -15 -15 -33 -17 -24 -4 3 5 1 13 -5 16 -6 4 -10 3 -9 -2 3 -20
-2 -27 -11 -13 -8 13 -10 12 -10 -4 0 -19 0 -19 -13 -1 -11 14 -16 15 -22 5
-6 -9 -4 -11 5 -5 8 5 11 4 6 -3 -9 -15 -38 -3 -29 12 3 6 1 6 -8 -1 -15 -15
-33 -17 -24 -4 3 5 1 13 -5 16 -6 4 -10 3 -9 -2 3 -20 -2 -27 -11 -13 -8 13
-10 12 -10 -4 0 -19 0 -19 -13 -1 -11 14 -16 15 -22 5 -6 -9 -4 -11 5 -5 8 5
11 4 6 -3 -9 -15 -38 -3 -29 12 3 6 1 6 -8 -1 -15 -15 -33 -17 -24 -4 3 5 1
13 -5 16 -6 4 -10 3 -9 -2 3 -20 -2 -27 -11 -13 -8 13 -10 12 -10 -4 0 -19 0
-19 -13 -1 -11 14 -16 15 -22 5 -6 -9 -4 -11 5 -5 8 5 11 4 6 -3 -9 -15 -38
-3 -29 12 4 7 1 7 -7 -1 -11 -10 -16 -9 -27 5 -12 16 -13 16 -7 0 7 -20 -12
-25 -19 -5 -3 6 -6 3 -6 -7 -1 -19 -1 -19 -14 -1 -11 14 -16 15 -22 5 -6 -9
-4 -11 5 -5 9 6 11 4 5 -5 -6 -10 -11 -9 -22 5 -12 17 -13 17 -13 2 0 -9 -5
-17 -11 -17 -5 0 -8 4 -5 9 3 5 -1 14 -8 20 -12 10 -14 8 -9 -11 4 -18 2 -20
-6 -8 -13 18 -64 22 -57 4 3 -8 0 -11 -9 -7 -8 3 -13 8 -10 12 2 4 -3 8 -11 8
-8 0 -13 -6 -10 -13 3 -8 0 -11 -9 -7 -8 3 -13 8 -10 12 2 4 -3 8 -11 8 -8 0
-13 -6 -10 -13 3 -8 0 -11 -9 -7 -8 3 -13 8 -10 12 2 4 -3 8 -11 8 -8 0 -13
-6 -10 -13 3 -7 -2 -11 -12 -9 -9 2 -21 4 -25 4 -5 1 -6 5 -3 9 3 5 -2 9 -10
9 -8 0 -13 -6 -10 -13 3 -8 0 -11 -9 -7 -8 3 -13 8 -10 12 2 4 -3 8 -11 8 -8
0 -13 -6 -10 -13 3 -8 0 -11 -9 -7 -8 3 -13 8 -10 12 2 4 -3 8 -11 8 -8 0 -13
-6 -10 -13 3 -8 0 -11 -9 -7 -8 3 -12 10 -8 17 4 6 -4 4 -17 -5 -24 -15 -55
-15 -46 0 3 4 -1 8 -9 8 -8 0 -12 -4 -9 -9 3 -4 1 -8 -5 -8 -5 0 -12 6 -14 13
-4 9 -6 8 -6 -2 -1 -11 -6 -10 -23 5 -12 10 -18 14 -15 8 4 -7 1 -17 -7 -23
-11 -9 -17 -8 -29 4 -12 11 -17 12 -20 2 -4 -9 -8 -8 -16 3 -9 12 -11 12 -11
1 0 -11 -5 -9 -22 5 -12 10 -18 13 -13 5 6 -11 4 -13 -9 -8 -13 5 -17 3 -13
-7 4 -10 1 -13 -9 -9 -7 3 -14 10 -14 17 0 6 -5 4 -10 -4 -8 -12 -12 -13 -19
-2 -6 11 -10 10 -15 -3 -6 -16 -8 -16 -32 0 -15 9 -23 12 -20 6 4 -6 3 -11 -3
-11 -5 0 -13 5 -17 12 -5 7 -11 5 -21 -7 -13 -18 -13 -18 -13 0 0 18 0 18 -13
0 -11 -14 -16 -15 -22 -5 -6 9 -4 11 6 5 12 -8 12 -6 0 8 -14 18 -22 22 -20
10 3 -19 -2 -33 -11 -33 -5 0 -7 6 -4 13 3 8 -3 13 -15 13 -16 0 -18 -3 -8
-15 9 -12 6 -12 -15 2 -16 10 -29 13 -33 7 -3 -6 -11 -10 -16 -10 -6 0 -8 4
-4 9 3 5 1 13 -5 16 -6 4 -10 3 -9 -2 3 -18 -2 -33 -11 -33 -5 0 -7 6 -4 13 3
9 -4 13 -21 13 -16 0 -24 -5 -21 -12 3 -8 -1 -11 -9 -7 -8 3 -13 8 -10 12 2 4
-3 8 -11 8 -8 0 -13 -6 -10 -13 3 -8 0 -11 -9 -7 -8 3 -13 8 -10 12 2 4 -3 8
-11 8 -8 0 -13 -6 -10 -13 3 -8 0 -11 -9 -7 -8 3 -13 8 -10 12 2 4 -3 8 -11 8
-8 0 -13 -6 -10 -13 3 -7 -2 -11 -12 -9 -9 2 -21 4 -25 4 -5 1 -6 5 -3 9 3 5
-2 9 -10 9 -8 0 -13 -6 -10 -13 3 -8 0 -11 -9 -7 -8 3 -13 8 -10 12 2 4 -3 8
-11 8 -8 0 -13 -6 -10 -13 3 -8 0 -11 -9 -7 -8 3 -13 8 -10 12 2 4 -3 8 -11 8
-8 0 -13 -6 -10 -13 3 -8 0 -11 -9 -7 -8 3 -12 10 -9 17 3 6 -1 3 -9 -7 -13
-16 -15 -16 -21 -1 -5 13 -9 14 -20 5 -11 -9 -15 -9 -19 1 -4 10 -6 10 -6 1
-1 -7 -8 -13 -17 -13 -9 0 -12 5 -8 13 6 10 4 10 -7 0 -15 -15 -33 -17 -24 -4
3 5 1 13 -5 16 -6 4 -10 3 -9 -2 3 -20 -2 -27 -11 -13 -8 13 -10 12 -10 -4 0
-19 0 -19 -13 -1 -11 14 -16 15 -22 5 -6 -9 -4 -11 5 -5 8 5 11 4 6 -3 -9 -15
-38 -3 -29 12 3 6 1 6 -8 -1 -15 -15 -33 -17 -24 -4 3 5 1 13 -5 16 -6 4 -10
3 -9 -2 3 -20 -2 -27 -11 -13 -8 13 -10 12 -10 -4 0 -19 0 -19 -13 -1 -11 14
-16 15 -22 5 -6 -9 -4 -11 5 -5 8 5 11 4 6 -3 -9 -15 -38 -3 -29 12 3 6 1 6
-8 -1 -15 -15 -33 -17 -24 -4 3 5 1 13 -5 16 -6 4 -10 3 -9 -2 3 -20 -2 -27
-11 -13 -8 13 -10 12 -10 -4 0 -19 0 -19 -13 -1 -11 14 -16 15 -22 5 -6 -9 -4
-11 5 -5 8 5 11 4 6 -3 -9 -15 -38 -3 -29 12 4 7 1 7 -7 -1 -11 -10 -16 -9
-27 5 -12 16 -13 16 -7 0 7 -20 -12 -25 -19 -5 -3 6 -6 3 -6 -7 -1 -19 -1 -19
-14 -1 -11 14 -16 15 -22 5 -6 -9 -4 -11 5 -5 9 6 11 4 5 -5 -6 -10 -11 -9
-22 5 -12 17 -13 17 -13 2 0 -9 -5 -17 -11 -17 -5 0 -8 4 -5 9 3 5 -1 14 -8
20 -12 10 -14 8 -9 -11 4 -18 2 -20 -6 -8 -13 18 -64 22 -57 4 3 -8 0 -11 -9
-7 -8 3 -13 8 -10 12 2 4 -3 8 -11 8 -8 0 -13 -6 -10 -13 3 -8 0 -11 -9 -7 -8
3 -13 8 -10 12 2 4 -3 8 -11 8 -8 0 -13 -6 -10 -13 3 -8 0 -11 -9 -7 -8 3 -13
8 -10 12 2 4 -3 8 -11 8 -8 0 -13 -6 -10 -13 3 -7 -2 -11 -12 -9 -9 2 -21 4
-25 4 -5 1 -6 5 -3 9 3 5 -2 9 -10 9 -8 0 -13 -6 -10 -13 3 -8 0 -11 -9 -7 -8
3 -13 8 -10 12 2 4 -3 8 -11 8 -8 0 -13 -6 -10 -13 3 -8 0 -11 -9 -7 -8 3 -13
8 -10 12 2 4 -3 8 -11 8 -8 0 -13 -6 -10 -13 3 -8 0 -11 -9 -7 -8 3 -12 10 -8
17 4 6 -4 4 -17 -5 -24 -15 -55 -15 -46 0 3 4 -1 8 -9 8 -8 0 -12 -4 -9 -9 3
-4 1 -8 -5 -8 -5 0 -12 6 -14 13 -4 9 -6 8 -6 -2 -1 -11 -6 -10 -23 5 -12 10
-18 14 -15 8 4 -7 1 -17 -7 -23 -11 -9 -17 -8 -29 4 -12 11 -17 12 -20 2 -4
-9 -8 -8 -16 3 -9 12 -11 12 -11 1 0 -11 -5 -9 -22 5 -12 10 -18 13 -13 5 6
-11 4 -13 -9 -8 -13 5 -17 3 -13 -7 4 -10 1 -13 -9 -9 -7 3 -14 10 -14 17 0 6
-5 4 -10 -4 -8 -12 -12 -13 -19 -2 -6 11 -10 10 -15 -3 -6 -16 -8 -16 -32 0
-15 9 -23 12 -20 6 4 -6 3 -11 -3 -11 -5 0 -13 5 -17 12 -5 7 -11 5 -21 -7
-13 -18 -13 -18 -13 0 0 18 0 18 -13 0 -11 -14 -16 -15 -22 -5 -6 9 -4 11 6 5
12 -8 12 -6 0 8 -14 18 -22 22 -20 10 3 -19 -2 -33 -11 -33 -5 0 -7 6 -4 13 3
8 -3 13 -15 13 -16 0 -18 -3 -8 -15 9 -12 6 -12 -15 2 -16 10 -29 13 -33 7 -3
-6 -11 -10 -16 -10 -6 0 -8 4 -4 9 3 5 1 13 -5 16 -6 4 -10 3 -9 -2 3 -18 -2
-33 -11 -33 -5 0 -7 6 -4 13 3 9 -4 13 -21 13 -16 0 -24 -5 -21 -12 3 -8 -1
-11 -9 -7 -8 3 -13 8 -10 12 2 4 -3 8 -11 8 -8 0 -13 -6 -10 -13 3 -8 0 -11
-9 -7 -8 3 -13 8 -10 12 2 4 -3 8 -11 8 -8 0 -13 -6 -10 -13 3 -8 0 -11 -9 -7
-8 3 -13 8 -10 12 2 4 -3 8 -11 8 -8 0 -13 -6 -10 -13 3 -7 -2 -11 -12 -9 -9
2 -21 4 -25 4 -5 1 -6 5 -3 9 3 5 -2 9 -10 9 -8 0 -13 -6 -10 -13 3 -8 0 -11
-9 -7 -8 3 -13 8 -10 12 2 4 -3 8 -11 8 -8 0 -13 -6 -10 -13 3 -8 0 -11 -9 -7
-8 3 -13 8 -10 12 2 4 -3 8 -11 8 -8 0 -13 -6 -10 -13 3 -8 0 -11 -9 -7 -8 3
-12 9 -9 14 3 5 -2 6 -10 3 -9 -3 -13 -10 -10 -15 3 -5 -2 -6 -10 -3 -9 3 -13
11 -9 18 4 6 0 6 -9 -2 -13 -10 -17 -10 -21 0 -4 10 -6 10 -6 1 -1 -7 -8 -13
-17 -13 -9 0 -12 5 -8 13 5 9 4 9 -6 0 -11 -10 -16 -9 -27 5 -12 16 -13 16 -7
0 3 -10 1 -18 -5 -18 -6 0 -11 5 -11 11 0 5 -5 7 -10 4 -6 -4 -8 -10 -6 -14 3
-4 -5 -6 -17 -5 -12 1 -26 3 -30 3 -5 1 -5 7 -1 14 5 9 4 9 -6 0 -11 -10 -16
-9 -27 5 -12 16 -13 16 -7 0 4 -13 1 -18 -11 -18 -10 0 -13 5 -9 12 4 6 -3 4
-15 -5 -25 -17 -55 -12 -44 7 4 6 -1 5 -10 -3 -14 -11 -17 -11 -17 0 0 12 -2
12 -9 0 -6 -8 -14 -10 -22 -5 -24 15 -39 13 -39 -4 -1 -15 -2 -15 -11 0 -9 16
-12 17 -34 2 -17 -11 -25 -12 -31 -3 -5 8 -3 10 7 4 12 -7 12 -5 1 6 -11 12
-14 12 -22 -1 -9 -13 -11 -13 -20 0 -6 10 -10 11 -10 3 0 -7 -7 -13 -16 -13
-9 0 -12 5 -8 12 4 6 -3 4 -16 -5 -22 -15 -25 -15 -44 1 -11 9 -16 11 -12 5 4
-7 3 -13 -1 -13 -5 0 -15 6 -22 13 -12 10 -13 9 -7 -7 6 -18 5 -18 -20 -1 -20
13 -26 14 -22 3 4 -9 -1 -14 -12 -14 -10 0 -17 4 -14 7 2 4 0 10 -6 14 -5 3
-10 1 -10 -4 0 -6 -9 -11 -21 -11 -13 0 -18 4 -13 13 6 9 5 9 -7 0 -12 -10
-18 -10 -29 0 -10 10 -12 8 -6 -7 6 -18 5 -18 -20 -1 -20 13 -26 14 -22 3 4
-9 -1 -14 -12 -14 -10 0 -17 4 -14 7 2 4 0 10 -6 14 -5 3 -10 1 -10 -4 0 -6
-9 -11 -21 -11 -11 0 -18 4 -15 9 4 5 -3 7 -14 4 -11 -3 -20 -10 -20 -17 0 -6
-5 -3 -11 7 -9 16 -12 16 -32 2 -19 -13 -23 -13 -41 3 -11 9 -16 12 -13 6 4
-7 -3 -11 -18 -11 -14 0 -23 2 -21 6 8 12 -68 6 -91 -7 -19 -10 -25 -9 -43 10
-13 15 -19 17 -15 7 4 -10 0 -19 -9 -22 -11 -4 -13 -1 -10 11 5 14 3 13 -10
-2 -16 -20 -16 -20 -16 0 0 16 -2 17 -10 4 -5 -8 -10 -11 -10 -7 0 4 -9 3 -19
-3 -14 -7 -22 -7 -27 2 -4 6 -3 8 4 4 6 -3 13 -2 16 3 7 10 -20 9 -30 -2 -10
-10 -26 -9 -20 1 3 5 -1 9 -9 9 -8 0 -12 -4 -9 -9 8 -12 -10 -10 -24 4 -9 9
-15 9 -24 0 -14 -14 -32 -16 -23 -3 3 5 1 13 -5 16 -6 4 -10 3 -9 -2z m-116
-23 c3 -6 -1 -7 -9 -4 -18 7 -21 14 -7 14 6 0 13 -4 16 -10z m465 4 c0 -8 -19
-13 -24 -6 -3 5 1 9 9 9 8 0 15 -2 15 -3z m30 -4 c0 -5 -5 -10 -11 -10 -5 0
-7 5 -4 10 3 6 8 10 11 10 2 0 4 -4 4 -10z m740 0 c0 -5 -5 -10 -11 -10 -5 0
-7 5 -4 10 3 6 8 10 11 10 2 0 4 -4 4 -10z m1120 0 c0 -5 -5 -10 -11 -10 -5 0
-7 5 -4 10 3 6 8 10 11 10 2 0 4 -4 4 -10z m1920 0 c0 -5 -5 -10 -11 -10 -5 0
-7 5 -4 10 3 6 8 10 11 10 2 0 4 -4 4 -10z m2720 0 c0 -5 -5 -10 -11 -10 -5 0
-7 5 -4 10 3 6 8 10 11 10 2 0 4 -4 4 -10z m-7225 -10 c3 -5 1 -10 -4 -10 -6
0 -11 5 -11 10 0 6 2 10 4 10 3 0 8 -4 11 -10z m8379 -56 c3 -8 2 -12 -4 -9
-6 3 -10 10 -10 16 0 14 7 11 14 -7z m-8922 -261 c-6 -3 -9 -10 -6 -15 4 -7 2
-8 -5 -4 -9 6 -9 11 0 22 6 8 15 12 18 8 3 -4 0 -9 -7 -11z m9402 -221 c3 -5
-1 -9 -9 -9 -8 0 -12 4 -9 9 3 4 7 8 9 8 2 0 6 -4 9 -8z m-9520 -88 c5 -14 4
-15 -9 -4 -17 14 -19 20 -6 20 5 0 12 -7 15 -16z m-24 -474 c0 -5 -5 -10 -11
-10 -5 0 -7 5 -4 10 3 6 8 10 11 10 2 0 4 -4 4 -10z m-5 -899 c3 -5 2 -12 -3
-15 -5 -3 -9 1 -9 9 0 17 3 19 12 6z m5 -41 c0 -5 -5 -10 -11 -10 -5 0 -7 5
-4 10 3 6 8 10 11 10 2 0 4 -4 4 -10z m0 -740 c0 -5 -5 -10 -11 -10 -5 0 -7 5
-4 10 3 6 8 10 11 10 2 0 4 -4 4 -10z m0 -240 c0 -5 -5 -10 -11 -10 -5 0 -7 5
-4 10 3 6 8 10 11 10 2 0 4 -4 4 -10z m-5 -899 c3 -5 2 -12 -3 -15 -5 -3 -9 1
-9 9 0 17 3 19 12 6z m5 -41 c0 -5 -5 -10 -11 -10 -5 0 -7 5 -4 10 3 6 8 10
11 10 2 0 4 -4 4 -10z m0 -740 c0 -5 -5 -10 -11 -10 -5 0 -7 5 -4 10 3 6 8 10
11 10 2 0 4 -4 4 -10z m9580 -174 c0 -3 -4 -8 -10 -11 -5 -3 -10 -1 -10 4 0 6
5 11 10 11 6 0 10 -2 10 -4z m-9580 -66 c0 -5 -5 -10 -11 -10 -5 0 -7 5 -4 10
3 6 8 10 11 10 2 0 4 -4 4 -10z m9580 -174 c0 -3 -4 -8 -10 -11 -5 -3 -10 -1
-10 4 0 6 5 11 10 11 6 0 10 -2 10 -4z m0 -120 c0 -3 -4 -8 -10 -11 -5 -3 -10
-1 -10 4 0 6 5 11 10 11 6 0 10 -2 10 -4z m0 -120 c0 -3 -4 -8 -10 -11 -5 -3
-10 -1 -10 4 0 6 5 11 10 11 6 0 10 -2 10 -4z m0 -400 c0 -3 -4 -8 -10 -11 -5
-3 -10 -1 -10 4 0 6 5 11 10 11 6 0 10 -2 10 -4z m-9585 -85 c3 -5 2 -12 -3
-15 -5 -3 -9 1 -9 9 0 17 3 19 12 6z m5 -41 c0 -5 -5 -10 -11 -10 -5 0 -7 5
-4 10 3 6 8 10 11 10 2 0 4 -4 4 -10z m9580 6 c0 -3 -4 -8 -10 -11 -5 -3 -10
-1 -10 4 0 6 5 11 10 11 6 0 10 -2 10 -4z m0 -120 c0 -3 -4 -8 -10 -11 -5 -3
-10 -1 -10 4 0 6 5 11 10 11 6 0 10 -2 10 -4z m0 -400 c0 -3 -4 -8 -10 -11 -5
-3 -10 -1 -10 4 0 6 5 11 10 11 6 0 10 -2 10 -4z m0 -120 c0 -3 -4 -8 -10 -11
-5 -3 -10 -1 -10 4 0 6 5 11 10 11 6 0 10 -2 10 -4z m-9580 -106 c0 -5 -5 -10
-11 -10 -5 0 -7 5 -4 10 3 6 8 10 11 10 2 0 4 -4 4 -10z m9580 -14 c0 -3 -4
-8 -10 -11 -5 -3 -10 -1 -10 4 0 6 5 11 10 11 6 0 10 -2 10 -4z m-9580 -226
c0 -5 -5 -10 -11 -10 -5 0 -7 5 -4 10 3 6 8 10 11 10 2 0 4 -4 4 -10z m9580
-414 c0 -3 -4 -8 -10 -11 -5 -3 -10 -1 -10 4 0 6 5 11 10 11 6 0 10 -2 10 -4z
m-9585 -485 c3 -5 2 -12 -3 -15 -5 -3 -9 1 -9 9 0 17 3 19 12 6z m5 -41 c0 -5
-5 -10 -11 -10 -5 0 -7 5 -4 10 3 6 8 10 11 10 2 0 4 -4 4 -10z m0 -740 c0 -5
-5 -10 -11 -10 -5 0 -7 5 -4 10 3 6 8 10 11 10 2 0 4 -4 4 -10z m9580 -14 c0
-3 -4 -8 -10 -11 -5 -3 -10 -1 -10 4 0 6 5 11 10 11 6 0 10 -2 10 -4z m-9580
-206 c0 -5 -2 -10 -4 -10 -3 0 -8 5 -11 10 -3 6 -1 10 4 10 6 0 11 -4 11 -10z
m9556 -227 c-2 -9 -9 -19 -17 -21 -11 -3 -11 -1 1 7 13 10 13 11 0 12 -11 0
-11 2 -2 6 10 4 10 8 0 21 -11 15 -11 15 4 4 9 -7 15 -20 14 -29z m-9406 -247
c0 -2 -7 -7 -16 -10 -8 -3 -12 -2 -9 4 6 10 25 14 25 6z m180 -206 c0 -5 -2
-10 -4 -10 -3 0 -8 5 -11 10 -3 6 -1 10 4 10 6 0 11 -4 11 -10z m8700 -105 c0
-11 -29 -11 -33 -1 -4 10 1 12 14 9 10 -3 19 -7 19 -8z m-8409 -18 c-10 -9
-11 -8 -5 6 3 10 9 15 12 12 3 -3 0 -11 -7 -18z m633 -1 c-10 -8 -21 -12 -24
-10 -5 6 21 24 34 24 6 0 1 -6 -10 -14z m230 5 c3 -5 -1 -11 -9 -14 -9 -4 -12
-1 -8 9 6 16 10 17 17 5z m504 -4 c8 -10 6 -13 -7 -13 -11 0 -17 6 -14 13 3 7
6 13 8 13 1 0 7 -6 13 -13z m42 -9 c0 -6 -6 -5 -15 2 -8 7 -15 14 -15 16 0 2
7 1 15 -2 8 -4 15 -11 15 -16z m1374 13 c3 -5 -1 -11 -9 -14 -9 -4 -12 -1 -8
9 6 16 10 17 17 5z m844 -4 c8 -10 6 -13 -7 -13 -11 0 -17 6 -14 13 3 7 6 13
8 13 1 0 7 -6 13 -13z m361 -3 c5 4 12 3 15 -2 10 -16 -33 -10 -46 6 -12 15
-11 16 4 4 9 -8 22 -11 27 -8z m55 -13 c-2 -3 -12 3 -22 13 -16 17 -16 18 5 5
12 -7 20 -15 17 -18z m46 -3 c0 -12 -6 -9 -26 13 -19 22 -19 22 4 8 12 -8 22
-17 22 -21z m-1557 11 c13 10 15 9 10 -8 -4 -17 -9 -19 -24 -10 -10 5 -19 15
-19 22 0 8 3 7 9 -2 8 -12 12 -12 24 -2z m1017 7 c0 -3 -4 -8 -10 -11 -5 -3
-10 -1 -10 4 0 6 5 11 10 11 6 0 10 -2 10 -4z m680 0 c0 -3 -4 -8 -10 -11 -5
-3 -10 -1 -10 4 0 6 5 11 10 11 6 0 10 -2 10 -4z m333 -4 c4 9 6 9 6 1 2 -20
-16 -24 -30 -5 -13 15 -12 16 3 4 13 -10 17 -10 21 0z m120 0 c4 9 6 9 6 1 2
-20 -16 -24 -30 -5 -13 15 -12 16 3 4 13 -10 17 -10 21 0z m542 -1 c3 -5 2
-12 -3 -15 -5 -3 -9 1 -9 9 0 17 3 19 12 6z m120 0 c3 -5 2 -12 -3 -15 -5 -3
-9 1 -9 9 0 17 3 19 12 6z m120 0 c3 -5 2 -12 -3 -15 -5 -3 -9 1 -9 9 0 17 3
19 12 6z m120 0 c3 -5 2 -12 -3 -15 -5 -3 -9 1 -9 9 0 17 3 19 12 6z m118 -6
c-3 -9 -8 -14 -10 -11 -3 3 -2 9 2 15 9 16 15 13 8 -4z m471 -1 c3 -8 2 -12
-4 -9 -6 3 -10 10 -10 16 0 14 7 11 14 -7z m180 0 c3 -8 2 -12 -4 -9 -6 3 -10
10 -10 16 0 14 7 11 14 -7z m129 8 c4 9 6 9 6 1 2 -20 -16 -24 -30 -5 -13 15
-12 16 3 4 13 -10 17 -10 21 0z m120 0 c4 9 6 9 6 1 2 -20 -16 -24 -30 -5 -13
15 -12 16 3 4 13 -10 17 -10 21 0z m542 -1 c3 -5 2 -12 -3 -15 -5 -3 -9 1 -9
9 0 17 3 19 12 6z m120 0 c3 -5 2 -12 -3 -15 -5 -3 -9 1 -9 9 0 17 3 19 12 6z
m120 0 c3 -5 2 -12 -3 -15 -5 -3 -9 1 -9 9 0 17 3 19 12 6z m120 0 c3 -5 2
-12 -3 -15 -5 -3 -9 1 -9 9 0 17 3 19 12 6z m118 -6 c-3 -9 -8 -14 -10 -11 -3
3 -2 9 2 15 9 16 15 13 8 -4z m471 -1 c3 -8 2 -12 -4 -9 -6 3 -10 10 -10 16 0
14 7 11 14 -7z m-5624 2 c0 -3 -4 -8 -10 -11 -5 -3 -10 -1 -10 4 0 6 5 11 10
11 6 0 10 -2 10 -4z m3840 0 c0 -3 -4 -8 -10 -11 -5 -3 -10 -1 -10 4 0 6 5 11
10 11 6 0 10 -2 10 -4z"/>
<path d="M3470 9936 c0 -2 8 -10 18 -17 15 -13 16 -12 3 4 -13 16 -21 21 -21
13z"/>
<path d="M5390 9936 c0 -2 8 -10 18 -17 15 -13 16 -12 3 4 -13 16 -21 21 -21
13z"/>
<path d="M7310 9936 c0 -2 8 -10 18 -17 15 -13 16 -12 3 4 -13 16 -21 21 -21
13z"/>
<path d="M1650 9919 c0 -5 5 -7 10 -4 6 3 10 8 10 11 0 2 -4 4 -10 4 -5 0 -10
-5 -10 -11z"/>
<path d="M1830 9919 c0 -5 5 -7 10 -4 6 3 10 8 10 11 0 2 -4 4 -10 4 -5 0 -10
-5 -10 -11z"/>
<path d="M9348 9883 c7 -3 16 -2 19 1 4 3 -2 6 -13 5 -11 0 -14 -3 -6 -6z"/>
<path d="M9740 9630 c-8 -5 -10 -10 -5 -10 6 0 17 5 25 10 8 5 11 10 5 10 -5
0 -17 -5 -25 -10z"/>
<path d="M9811 9517 c2 -1 13 -9 24 -17 19 -14 19 -14 6 3 -7 9 -18 17 -24 17
-6 0 -8 -1 -6 -3z"/>
<path d="M404 9492 c3 -5 0 -13 -6 -15 -9 -4 -10 -6 -1 -6 17 -1 25 16 12 25
-7 4 -9 3 -5 -4z"/>
<path d="M310 7939 c0 -5 5 -7 10 -4 6 3 10 8 10 11 0 2 -4 4 -10 4 -5 0 -10
-5 -10 -11z"/>
<path d="M310 7759 c0 -5 5 -7 10 -4 6 3 10 8 10 11 0 2 -4 4 -10 4 -5 0 -10
-5 -10 -11z"/>
<path d="M310 6019 c0 -5 5 -7 10 -4 6 3 10 8 10 11 0 2 -4 4 -10 4 -5 0 -10
-5 -10 -11z"/>
<path d="M310 5839 c0 -5 5 -7 10 -4 6 3 10 8 10 11 0 2 -4 4 -10 4 -5 0 -10
-5 -10 -11z"/>
<path d="M310 4099 c0 -5 5 -7 10 -4 6 3 10 8 10 11 0 2 -4 4 -10 4 -5 0 -10
-5 -10 -11z"/>
<path d="M310 3919 c0 -5 5 -7 10 -4 6 3 10 8 10 11 0 2 -4 4 -10 4 -5 0 -10
-5 -10 -11z"/>
<path d="M9910 3066 c0 -2 7 -7 16 -10 8 -3 12 -2 9 4 -6 10 -25 14 -25 6z"/>
<path d="M9910 2946 c0 -2 7 -7 16 -10 8 -3 12 -2 9 4 -6 10 -25 14 -25 6z"/>
<path d="M9910 2546 c0 -2 7 -7 16 -10 8 -3 12 -2 9 4 -6 10 -25 14 -25 6z"/>
<path d="M9910 2366 c0 -2 7 -7 16 -10 8 -3 12 -2 9 4 -6 10 -25 14 -25 6z"/>
<path d="M310 2179 c0 -5 5 -7 10 -4 6 3 10 8 10 11 0 2 -4 4 -10 4 -5 0 -10
-5 -10 -11z"/>
<path d="M310 1999 c0 -5 5 -7 10 -4 6 3 10 8 10 11 0 2 -4 4 -10 4 -5 0 -10
-5 -10 -11z"/>
<path d="M9910 1666 c0 -2 7 -7 16 -10 8 -3 12 -2 9 4 -6 10 -25 14 -25 6z"/>
<path d="M9910 1266 c0 -2 7 -7 16 -10 8 -3 12 -2 9 4 -6 10 -25 14 -25 6z"/>
<path d="M306 1198 c3 -5 10 -6 15 -3 13 9 11 12 -6 12 -8 0 -12 -4 -9 -9z"/>
<path d="M9910 1086 c0 -2 7 -7 16 -10 8 -3 12 -2 9 4 -6 10 -25 14 -25 6z"/>
<path d="M9873 848 c-9 -15 -13 -61 -4 -52 3 3 7 10 7 15 1 5 2 10 4 12 4 5 8
37 5 37 -2 0 -7 -6 -12 -12z"/>
<path d="M9836 781 c-3 -5 1 -11 9 -14 9 -4 12 -1 8 9 -6 16 -10 17 -17 5z"/>
<path d="M9705 569 c-11 -16 -1 -19 13 -3 7 8 8 14 3 14 -5 0 -13 -5 -16 -11z"/>
<path d="M570 526 c0 -2 8 -10 18 -17 15 -13 16 -12 3 4 -13 16 -21 21 -21 13z"/>
<path d="M881 351 c-8 -5 -9 -11 -3 -15 5 -3 12 1 16 9 6 17 6 18 -13 6z"/>
<path d="M1087 319 c7 -7 15 -10 18 -7 3 3 -2 9 -12 12 -14 6 -15 5 -6 -5z"/>
<path d="M1855 319 c-4 -6 -5 -12 -2 -15 2 -3 7 2 10 11 7 17 1 20 -8 4z"/>
<path d="M2673 314 c0 -8 3 -12 5 -9 3 3 11 0 19 -6 7 -6 13 -7 13 -3 0 5 -8
14 -18 21 -15 9 -19 8 -19 -3z"/>
<path d="M2721 314 c0 -11 3 -14 6 -6 3 7 2 16 -1 19 -3 4 -6 -2 -5 -13z"/>
<path d="M3775 319 c-4 -6 -5 -12 -2 -15 2 -3 7 2 10 11 7 17 1 20 -8 4z"/>
<path d="M9215 321 c-3 -5 -2 -12 3 -15 5 -3 9 1 9 9 0 17 -3 19 -12 6z"/>
<path d="M1714 307 c-4 -7 -4 -9 1 -5 4 4 14 3 22 -3 8 -7 13 -8 13 -1 0 15
-28 23 -36 9z"/>
<path d="M1950 316 c0 -3 9 -10 20 -16 11 -6 20 -8 20 -6 0 3 -9 10 -20 16
-11 6 -20 8 -20 6z"/>
<path d="M3634 307 c-4 -7 -4 -9 1 -5 4 4 14 3 22 -3 8 -7 13 -8 13 -1 0 15
-28 23 -36 9z"/>
<path d="M3870 316 c0 -3 9 -10 20 -16 11 -6 20 -8 20 -6 0 3 -9 10 -20 16
-11 6 -20 8 -20 6z"/>
<path d="M4515 310 c-3 -5 -1 -10 4 -10 6 0 11 5 11 10 0 6 -2 10 -4 10 -3 0
-8 -4 -11 -10z"/>
<path d="M4755 310 c-3 -5 -1 -10 4 -10 6 0 11 5 11 10 0 6 -2 10 -4 10 -3 0
-8 -4 -11 -10z"/>
<path d="M5116 303 c-6 -14 -5 -15 5 -6 7 7 10 15 7 18 -3 3 -9 -2 -12 -12z"/>
<path d="M1116 302 c-2 -4 4 -8 14 -8 10 0 16 4 14 8 -3 4 -9 8 -14 8 -5 0
-11 -4 -14 -8z"/>
<path d="M1916 302 c-2 -4 4 -8 14 -8 10 0 16 4 14 8 -3 4 -9 8 -14 8 -5 0
-11 -4 -14 -8z"/>
<path d="M2076 302 c-2 -4 4 -8 14 -8 10 0 16 4 14 8 -3 4 -9 8 -14 8 -5 0
-11 -4 -14 -8z"/>
<path d="M3836 302 c-2 -4 4 -8 14 -8 10 0 16 4 14 8 -3 4 -9 8 -14 8 -5 0
-11 -4 -14 -8z"/>
<path d="M3996 302 c-2 -4 4 -8 14 -8 10 0 16 4 14 8 -3 4 -9 8 -14 8 -5 0
-11 -4 -14 -8z"/>
</g>
</svg>
